/* XPM */
static char *_01719337535[] = {
/* columns rows colors chars-per-pixel */
"120 77 57 1 ",
"  c black",
". c #000600",
"X c #020702",
"o c #000A00",
"O c #030A03",
"+ c #000F00",
"@ c #030C03",
"# c #001000",
"$ c #001700",
"% c #041104",
"& c #051505",
"* c #001A00",
"= c #001E00",
"- c #071B07",
"; c #071C07",
": c #002200",
"> c #002700",
", c #002800",
"< c #092309",
"1 c #0A290A",
"2 c #0F3B0F",
"3 c #0F3D0F",
"4 c #0F450F",
"5 c #0F470F",
"6 c #165816",
"7 c #165A16",
"8 c #175B17",
"9 c #175C17",
"0 c #185F18",
"q c #196319",
"w c #1A661A",
"e c #1B6A1B",
"r c #1E771E",
"t c #218521",
"y c #228822",
"u c #259625",
"i c #269926",
"p c #279A27",
"a c #279D27",
"s c #28A028",
"d c #29A429",
"f c #2AA72A",
"g c #31C231",
"h c #31C431",
"j c #36D636",
"k c #37DC37",
"l c #38DE38",
"z c #39E339",
"x c #39E439",
"c c #3BEA3B",
"v c #3BED3B",
"b c #3CEE3C",
"n c #3DF43D",
"m c #3EF83E",
"M c #3FFB3F",
"N c #40FE40",
"B c #40FF40",
/* pixels */
"                                                                                                                        ",
"                                                  ####################                                                  ",
"         ####################                     ,,,,,,,,,,,,,,,,,,,,                    8000000000000000000q.         ",
"         ,,,,,,,,,,,,,,,,,,,,                     ,,,,,,,,,,,,,,,,,,,,                    znnnnnnnnnnnnnnnnnnn%         ",
"         ,,,,,,,,,,,,,,,,,,,,                  #,,,,,,,,,,,,,,,,,,,,,,,,*                 bBBBBBBBBBBBBBBBBBBB%         ",
"      #,,,,,,,,,,,,,,,,,,,,,,,>$               #,,,,,,,,,,,,,,,,,,,,,,,>*              7zbBBBBBBBBBBBBBBBBBBBBbbuO      ",
"      #,,,,,,,,,,,,,,,,,,,,,,>>$             ww5**>,,,,,,,,,,,,,,,,,,,*$$++            0nBBBBBBBBBBBBBBBBBBBBBBBa@      ",
"    ###**,,,,,,,,,,,,,,,,,,,,**$##           BBi  >,,,,,,,,,,,,,,,,,,,  +>,          70rpaBBBBBBBBBBBBBBBBBBBBdayq0o    ",
"    ,,*  ,,,,,,,,,,,,,,,,,,,,  #,,           BBi  ,,,,,,,,,,,,,,,,,,,,  #,,          zna&obBBBBBBBBBBBBBBBBBBB;oqcn%    ",
"    ,>$  ,,,,,,,,,,,,,,,,,,,,  #,,        wBBBBBBB                    ,,,,,,,*       vBso bBBBBBBBBNBBBmBBBBBB% 0nB%    ",
" #,,,,,,,                    ,,,,,,,$  .  wBBBBBBB                    ,,,,,,,*    7zbBBmbb<%&#%%@%%&%%%&%%%&%%lbnBBbbuO ",
" #,,,,,,,                    ,,,,,,,*  +  wBBBBBBB  .##  .####o  ##o  ,,,,,,>$    0nBBBBBB%                   bBBBBBBaO ",
" #,,,,,,,  .##  .###+o  ##o  ,,,,,,,*  +  wBBBBBBB  #,,  #,,,,*  ,,$  ,,,,,,,*    0nBBBBBB% .+#  .#+++o  ++o  bBBBBBBsO ",
" #,,,,,,,  #,,  #,,,>*  ,,*  ,,,,,,,*  o  wBBBBBBB  #,,  #,,,,*  ,,*  ,,,,,,>$    0nBBBBBB% +>>  #>>>>$  >>*  bBBBBBBs@ ",
" #,,,,,,,  #,,  #,,,,*  ,>$  ,,,,,,,$  +  wBBBBBBB  #,,,,,,,,,>>,,>$  ,,,,,,>*    0nBBBBBB% +>>  +>>,,*  >,*  bBBBBBBs@ ",
" #,,,,,,,  #,,,,,,,,>>,,,>*  ,,,,,,,$  +  wBBBBBBB  #,,,,,,,,,,,,,,*  ,,,,,,>*    0nBBBBBB% +>>>>>>>,,>:>>,*  bBBBBBBsO ",
" #,,,,,,,  #,,,,,,,,,,,,,,*  ,,,,,,,*  o  wBBBBBBB  #,,,,,,,,,,,,,,$  ,,,,,,,*    0nBBBBBB% +>,,>>,,,,,,,,,*  vBBBBBBso ",
" #,,,,,,,  #,,,,,,,,,,,,,,$  ,,,,,,,$  +  wBBBBBBB  #,,,,,,,,,,,,,,*  ,,,,,,>$    0nBBBBBB% +>,,,>,,,,,,,,,*  vBBBBBBs+ ",
" #,,,,,,,  #,,,,,,,,,,,,,,*  ,,,,,,,$  +  wBBBBBBB  #,,,,,,,,,,,,,>*  ,,,,,,>*    0nBBBBBB% +>>,,,,,,,,,,,,*  vBBBBBBsO ",
" #,,,,,,,  #,,,,,,,,,,,,,>$  ,,,,,>>*  o  wBBBBBBB     ,,,,,,,,,,     ,,,,,,>*    0nBBBBBB% +>>>,,,,,,,,,,,*. vBBBBBBs@ ",
" #,,,,,,,     ,,,,,,,,,,     ,,,,,,,$  +  wBBBBBBB     ,,,,,,,,,,     ,,,,,,,*    0nBBBBBB%  . >,,,,,,,,,..   vBBBBBBsO ",
" #,,,,,,,     ,,,,,,,,,,     ,,,,,,,*  +  wBBBBBBB     ,,,,,,,,,,     ,,,,,,>$    0nBBBBBB%    >,,,,,,,,,     vBBBBBBs@ ",
" #,,,,,,,     ,,,,,,,,,,     ,,,,,,,$  +  wBBBBBBB     ,,,,,,,,,,     ,,,,,,,$    0nBBBBBB%    >,,,,,,,,,.    vBBBBBBsO ",
" #,,,,,,,     ,,,,,,,,,,     ,,,,,,,*  +  wBBBBBBB     ,,,,,,,,,,     ,,,,,,,*    0nBBBBBN&    :,,,,,,,,,     vBBBBBBs@ ",
" #,,,,,,,     ,,,,,,,,,,     ,,,,,,,*  +  wBBBBBBB  #,,,,,,,,,,,,,,$  ,,,,,,>$    0nBBBBBB%    >,,,,,,,,,     vBBBBBBsO ",
" #,,,,,,,  #,,,,,,,,,,,,,,*  ,,,,,,,$  +  wBBBBBBB  #,,,,,,,,,,,,,,*  ,,,,,,,*    0nBBBBBB% +>>,,,,,,,,,,>>$. vBBBBBBs@ ",
" #,,,,,,,  #,,,,,,,,,,,,,>$  ,,,,,,,*  +  wBBBBBBB  #,,,,,,,,,,,,,>*  ,,,,,,,*    0nBBBBBB% +>>>,,,,,,,,,,>*  vBBBBBBsO ",
" #,,,,,,,  #,,,,,,,,,,,,,>*  ,,,,,,,$  o  wBBBBBBB  #,,,,,,,,,,,,,>$  ,,,,,,>$    0nBBBBBB& +>>>,,,,,,,,,>>*  vBBBBBBs@ ",
" #,,,,,,,  #,,,,,,,,,,,,,,$  ,,,,,,,*  +  wBBBBBBB  #,,,,,,,,,,,,,,$  ,,,,,,,*    0nBBBBBB% +>,,,,,,,,,,,,>*  vBBBBBBs@ ",
" #,,,,,,,  #,,,,,,,,,,,,,,*  ,,,,,,,$  +  wBBBBBBB  #,,  #,,,,*  ,,*  ,,,,,,>$    0nBBBBBB% +>,>,,,,,,,,,,>*  vBBBBBBsO ",
" #,,,,,,,  #,,  #,,,,$  ,,*  ,,,,,,,*  +  wBBBBBBB  +,,  #,,,,$  ,,$  ,,,,,,>*    0nBBBBBB% +>,. #>,,,*. >>*  bBBBBBBsO ",
" #,,,,,,,  #,,  #,,,,*  ,,$  ,,,,,,>$  o  wBBBBBBB  o$*  o$$*$+  $*+  ,,,,,,>*    0nBBBBBB% +>>. #>,,,*  >,*. vBBBBBBs@ ",
" #,,,,,,,  o$*  o*$*$+  $*#  ,,,,,,,*  +  wBBBBBBB                    ,,,,,,>*    0nBBBBBB% o**  o****+  **+  bBBBBBBsO ",
" #,,,,,,,                    ,,,,,,,$  +  wBBBBBBB                    ,,,,,,>*    qnBBBBBB%                   bBBBBBBs@ ",
" #,,,,>>,                    ,,,,,,,*  +     BBi  BBBBBBBBBBBBBBBBBBBB  #,,       0nBBBBBB%                   bBBBBBBs@ ",
"    ,,*  ,,,,,,,,,,,,,,,,,,,,  #,,     .     BBi  BBBBBBBBBBBBBBBBBBBB  #,,       .%%bBd-%>>>>>>>>>>>>>>>>>:>>#&wBB<%O  ",
"    >,*  ,,,,,,,,,,,,,,,,,,,,  #>>           iitwwBBBBBBBBBBBBBBBBBBBBww5**          bBaO >>,,,,>,,,,,,,>,,,,,  0nB%    ",
"    $*$+#,,,,,,,,,,,,,,,,,,,,###**             wBBBBBBBBBBBBBBBBBBBBBBBBi            use%+>>,,,,>>,,,,,,>>,,,,##4uaO    ",
"      #,,,,,,,,,,,,,,,,,,,,,,,>$               wBBBBBBBBBBBBBBBBBBBBBBBBi            O+$>>,,,,,,,,,,,,,,,,,,,,>,=@@     ",
"      #,,,,,,,,,,,,,,,,,,,,,,,,*             BBi  BBBBBBBBBBBBBBBBBBBB  wBB            +>,,,,,,,,,,,,,,,,,,,,,,,*       ",
"    ,,*  ,,,,,,,,,,,,,,,,,,,,  #,,           BBi  BBBBBBBBBBBBBBBBBBBB  wBB          lbu+ >,,,,,,,,,,,,,>,,,,,. 0zb%    ",
"    ,,*  >,,,,>>,,>>,,,,,>,,,  #,,        1wwBBgwwiiiiiiiiiiiiiiiiiiiiwwsBBww3       bBaO >,>>,,,,>>,,,,>>,,,,  0nB@    ",
" .##,,=+#*$***$***$*$**$*$$**##*,,##o     wBBBBBBB                    BBBBBBBi    <80nBgwq=*******************8qpnBe02. ",
" #,,,,,>,                    >,,,,,,*  o  wBBBBBBB                    BBBBBBBi    8cnBBBnn% .      .    .     znBBBnNpO ",
" #,,,,,,,                    ,,,,,,,*  +  wBBBBBBB  #,,  #,,,,*  ,,$  BBBBBBBi    0nBBBBBB%                   bBBBBBNaO ",
" #,,,,,,,  #,,  #,,,,*  ,,*  ,,,,,,,*  o  wBBBBBBB  #,,  #,,,,*  ,,*  BBBBBBBi    0nBBBBBB% +>>. +>>>>*  :>$  cBBBBBNpO ",
" #,,,,,,,  #,,  #,,,>*  ,,*  ,,,,,,,$  +  wBBBBBBB  #,,##*,,,,=+#,>$  BBBBBBBi    0nBBBBBB% +>>  +>>,,*  >>*  bBBBBBBs@ ",
" #,,,,,,,  #,,##*,,,>=##,>$  ,,,,,,,$  +  wBBBBBBB  #,,,,,,,,,,>,,,*  BBBBBBBi    0nBBBBBB% +>>#+*>,,,=#+>>*. bBBBBBBsO ",
" #,,,,,,,  #,,,,,,,,,,,,,,*  ,,,,,,,*  o  wBBBBBBB  #,,,,,,,,,,,,,,$  BBBBBBBi    0nBBBBBB% +>>>>>,,,,>>>>>*  bBBBBBBs@ ",
" #,,,,,,,  #,,,,,,,,,,,,,,*  ,,,,,,,$  +  wBBBBBBB  #,,,,,,,,,,,,,,*  BBBBBBBi    0nBBBBBB% +>,,>>,,,,,,,>>*  bBBBBBBsO ",
" #,,,,,,,  #,,,,,,,,,,,,,>$  ,,,,,,,$  +  wBBBBBBB  +,,,,,,,,,,,,,,$  BBBBBBBi    0nBBBBBB% +>,,,,,,,,,,,,,*  vBBBBBBsO ",
" #,,,,,,,  #,,,,,,,,,,,,,>*  ,,,,,>>*  o  wBBBBBBB  o$*,,,,,,,,,>$*+  BBBBBBBi    0nBBBBBB% +>>>,,,,,,,,,,,*  vBBBBBBs@ ",
" #,,,,,,,  o**>>,,,,,,,,*$+  ,,,,,,,$  +  wBBBBBBB     ,,,,,,,,,,     BBBBBBBi    0nBBBBBB% +$*>,,,,,,,,>**#  nmBBBBBsO ",
" #,,,,,,,     ,,,,,,,,,,     ,,,,,,,*  +  wBBBBBBB     ,,,,,,,,,,     BBBBBBBi    0nBBBBBB%    >,,,,,,,,,.    nBBBBBBs@ ",
" #,,,,,,,     ,,,,,,,,,,     ,,,,,,,$  +  wBBBBBBB     ,,,,,,,,,,     BBBBBBBi    0nBBBBBB%    >,,,,,,,,,     vmBBBBBs@ ",
" #,,,,,,,     ,,,,,,,,,,     ,,,,,,,*  +  wBBBBBBB     ,,,,,,,,,,     BBBBBBBi    0nBBBBBN&    :,,,,,,,,,.    nBBBBBBsO ",
" #,,,,,,,     ,,,,,,,,,,     ,,,,,,,*  +  wBBBBBBB  .##,,,,,,,,,,##o  BBBBBBBi    0nBBBBBB%    >,,,,,,,,,     vBBBBBBs@ ",
" #,,,,,,,  .##,,,,,,,,,,##o  ,,,,,,,$  +  wBBBBBBB  #,,,,,,,,,,,,,,*  BBBBBBBi    0nBBBBBB% .++>,,,,,,,,,#+o  vBBBBBBsO ",
" #,,,,,,,  #,,,,,,,,,,,,,,$  ,,,,,,,*  +  wBBBBBBB  #,,,,,,,,,,,,,>*  BBBBBBBi    0nBBBBBB% +>>>,,,,,,,,,,>*  vBBBBBBsO ",
" #,,,,,,,  #,,,,,,,,,,,,,,*  ,,,,,,,$  o  wBBBBBBB  #,,>,,,,,,,,,,>$  BBBBBBBi    0nBBBBBm& +>>>,,,,,,,,,,,*  vBBBBBBs@ ",
" #,,,,,,,  #,,,,,,,,,,,,,,*  ,,,,,,,*  +  wBBBBBBB  #,,>,,,,,,,,>>,$  BBBBBBBi    0nBBBBBB% +>,,,,,,,,,,,,,*. vBBBBBBsO ",
" #,,,,,,,  #,,,,,,,,,,,>,,*  ,,,,,,,$  +  wBBBBBBB  #,,**=,,,,:**,,*  BBBBBBBi    0nBBBBBB% +>,,,,,,,,,,,,,*  vBBBBBBs@ ",
" #,,,,,,,  #,,*$=,,,,:*$,>$  ,,,,,,,*  +  wBBBBBBB  #,,  +,,,>$  ,>$  BBBBBBBi    0nBBBBBB% +>,**=>,,,>**>,*  vBBBBBBs@ ",
" #,,,,,,,  #,,  #,,>>*  ,>*  ,,,,,,>$  o  wBBBBBBB  #,,  #,,,>*  ,,*  BBBBBBBi    0nBBBBBB% +>>. +>,,>*  >,*  vBBBBBBsO ",
" #,,,,,,,  #,,  #,,,,*  ,,*  ,,,,,,,*  +  wBBBBBBB                    BBBBBBBi    0nBBBBBB% #>>  #>>,,*  >>*  bBBBBBBsO ",
" #,,,,,,,                    ,,,,,,,*  +  wBBBBBBB                    BBBBBBBi    0nBBBBBB%  ..    ..    .    bBBBBBBs@ ",
" #,>,>,,>                    >,,,,>>$  +  3iiBBjiiwwwwwwwwwwwwwwwwwwwwiigBBii9    0nBBBBBB%                   bBBBBBBaO ",
" o*$,>:**####################$*=>>**+  o     BBi  BBBBBBBBBBBBBBBBBBBB  wBB       2isnBldsw0000000000000000q00ashmBdswo ",
"    ,,*  ,,,,,,,,,,,,,,,,,,,,  #,,     .     BBi  BBBBBBBBBBBBBBBBBBBB  wBB       .oObBd&oznnnnnnnnnnnnnnnnnnn-ownB;OO  ",
"    ,,*  ,,,,,,,,,,,,,,,,,,,,  #,,             wBBBBBBBBBBBBBBBBBBBBBBBBi            bBs@ bBBBBBBBBBBBBBBBBBBB% qnB%    ",
"      +>,,,,,,,,,,,,,,,,,,,,,,,*               wBBBBBBBBBBBBBBBBBBBBBBBBi            %%qxbBBBBBBBBBBBBBBBBBBBBbbp-%     ",
"      #,,,,,,,,,,,,,,,,,,,,,,,>$               3iiBBBBBBBBBBBBBBBBBBBBii9              0nBBBBBBBBBBBBBBBBBBBBBBBsO      ",
"      o*$,,,,,,,,,,,,,,,,,,,,*$+                  BBBBBBBBBBBBBBBBBBBB                 2iamBBBBBBBBBBBBBBBBBBBdsw.      ",
"         ,,,,,,,,,,,,,,,,,,,,                     BBBBBBBBBBBBBBBBBBBB                 .O@bBBBBBBBBBBBBBBBBBBB;@.       ",
"         ,,,,,,,,,,,,,,,,,,,,                                                             bBBBBBBBBBBBBBBBBBBB%         ",
"                                                                                          %%%%%%%%%%%%%%%%&%%%          ",
"                                                                                                                        "
};
