/* XPM */
static char *_01719337535[] = {
/* columns rows colors chars-per-pixel */
"120 77 55 1 ",
"  c black",
". c #000600",
"X c #020702",
"o c #000A00",
"O c #030A03",
"+ c #000F00",
"@ c #030C03",
"# c #001000",
"$ c #001700",
"% c #041104",
"& c #051505",
"* c #001A00",
"= c #001E00",
"- c #071B07",
"; c #071C07",
": c #002200",
"> c #002700",
", c #002800",
"< c #092309",
"1 c #0F3B0F",
"2 c #0F3D0F",
"3 c #0F450F",
"4 c #0F470F",
"5 c #165816",
"6 c #165A16",
"7 c #175B17",
"8 c #175C17",
"9 c #185F18",
"0 c #196319",
"q c #1A661A",
"w c #1B6A1B",
"e c #1E771E",
"r c #218521",
"t c #228822",
"y c #259625",
"u c #269926",
"i c #279A27",
"p c #279D27",
"a c #28A028",
"s c #29A429",
"d c #2AA72A",
"f c #31C231",
"g c #31C431",
"h c #37DC37",
"j c #38DE38",
"k c #39E339",
"l c #39E439",
"z c #3BEA3B",
"x c #3BED3B",
"c c #3CEE3C",
"v c #3DF43D",
"b c #3EF83E",
"n c #3FFB3F",
"m c #40FE40",
"M c #40FF40",
/* pixels */
"                                                                                                                        ",
"                                                                                                                        ",
"         ####################                     qqqqqqqqqqqqqqqqqqqq                    79999999999999999990.         ",
"         ,,,,,,,,,,,,,,,,,,,,                     MMMMMMMMMMMMMMMMMMMM                    kvvvvvvvvvvvvvvvvvvv%         ",
"         ,,,,,,,,,,,,,,,,,,,,                     MMMMMMMMMMMMMMMMMMMM                    cMMMMMMMMMMMMMMMMMMM%         ",
"      #,,,,,,,,,,,,,,,,,,,,,,,>$               qMMMMMMMMMMMMMMMMMMMMMMMMu              6kcMMMMMMMMMMMMMMMMMMMMccyO      ",
"      #,,,,,,,,,,,,,,,,,,,,,,>>$               qMMMMMMMMMMMMMMMMMMMMMMMMu              9vMMMMMMMMMMMMMMMMMMMMMMMp@      ",
"    ###**,,,,,,,,,,,,,,,,,,,,**$##           #+4uuMMMMMMMMMMMMMMMMMMMMuurqq          69eipMMMMMMMMMMMMMMMMMMMMspt09o    ",
"    ,,*  ,,,,,,,,,,,,,,,,,,,,  #,,           ,,$  MMMMMMMMMMMMMMMMMMMM  qMM          kvp&ocMMMMMMMMMMMMMMMMMMM;o0zv%    ",
"    ,>$  ,,,,,,,,,,,,,,,,,,,,  #,,           ,,*  MMMMMMMMMMMMMMMMMMMM  qMM          xMao cMMMMMMMMmMMMbMMMMMM% 9vM%    ",
" #,,,,,,,                    ,,,,,,,$     #,,,,,,,                    MMMMMMMu    6kcMMbcc<%&#%%@%%&%%%&%%%&%%jcvMMccyO ",
" #,,,,,,,                    ,,,,,,,*     #,,,,,,,                    MMMMMMMu    9vMMMMMM%                   cMMMMMMpO ",
" #,,,,,,,  .##  .###+o  ##o  ,,,,,,,*     #,,,,,,,  .##  .####o  ##o  MMMMMMMu    9vMMMMMM% .+#  .#+++o  ++o  cMMMMMMaO ",
" #,,,,,,,  #,,  #,,,>*  ,,*  ,,,,,,,*     #,,,,,,,  #,,  #,,,,*  ,,*  MMMMMMMu    9vMMMMMM% +>>  #>>>>$  >>*  cMMMMMMa@ ",
" #,,,,,,,  #,,  #,,,,*  ,>$  ,,,,,,,$     #,,,,,,,  #,,  #,,,,$  ,>$  MMMMMMMu    9vMMMMMM% +>>  +>>,,*  >,*  cMMMMMMa@ ",
" #,,,,,,,  #,,,,,,,,>>,,,>*  ,,,,,,,$     #,,,,,,,  #,,,,,,,,,,,,,,*  MMMMMMMu    9vMMMMMM% +>>>>>>>,,>:>>,*  cMMMMMMaO ",
" #,,,,,,,  #,,,,,,,,,,,,,,*  ,,,,,,,*     #,,,,,,,  #,,,,,,,,,,,,,,$  MMMMMMMu    9vMMMMMM% +>,,>>,,,,,,,,,*  xMMMMMMao ",
" #,,,,,,,  #,,,,,,,,,,,,,,$  ,,,,,,,$     #,,,,,,,  #,,,,,,,,,,,,,,*  MMMMMMMu    9vMMMMMM% +>,,,>,,,,,,,,,*  xMMMMMMa+ ",
" #,,,,,,,  #,,,,,,,,,,,,,,*  ,,,,,,,$     #,,,,,,,  #,,,,,,,,,,,,,>$  MMMMMMMu    9vMMMMMM% +>>,,,,,,,,,,,,*  xMMMMMMaO ",
" #,,,,,,,  #,,,,,,,,,,,,,>$  ,,,,,>>*     #,,,,,,,  #,,,,,,,,,,,,,,*  MMMMMMMu    9vMMMMMM% +>>>,,,,,,,,,,,*. xMMMMMMa@ ",
" #,,,,,,,     ,,,,,,,,,,     ,,,,,,,$     #,,,,,,,     ,,,,,,,,,,     MMMMMMMu    9vMMMMMM%  . >,,,,,,,,,..   xMMMMMMaO ",
" #,,,,,,,     ,,,,,,,,,,     ,,,,,,,*     #,,,,,,,     ,,,,,,,,,,     MMMMMMMu    9vMMMMMM%    >,,,,,,,,,     xMMMMMMa@ ",
" #,,,,,,,     ,,,,,,,,,,     ,,,,,,,$     #,,,,,,,     ,,,,,,,,,,     MMMMMMMu    9vMMMMMM%    >,,,,,,,,,.    xMMMMMMaO ",
" #,,,,,,,     ,,,,,,,,,,     ,,,,,,,*     #,,,,,,,     ,,,,,,,,,,     MMMMMMMu    9vMMMMMm&    :,,,,,,,,,     xMMMMMMa@ ",
" #,,,,,,,     ,,,,,,,,,,     ,,,,,,,*     #,,,,,,,     ,,,,,,,,,,     MMMMMMMu    9vMMMMMM%    >,,,,,,,,,     xMMMMMMaO ",
" #,,,,,,,  #,,,,,,,,,,,,,,*  ,,,,,,,$     #,,,,,,,  #,,,,,,,,,,,,,,*  MMMMMMMu    9vMMMMMM% +>>,,,,,,,,,,>>$. xMMMMMMa@ ",
" #,,,,,,,  #,,,,,,,,,,,,,>$  ,,,,,,,*     #,,,,,,,  #,,,,,,,,,,,,,>*  MMMMMMMu    9vMMMMMM% +>>>,,,,,,,,,,>*  xMMMMMMaO ",
" #,,,,,,,  #,,,,,,,,,,,,,>*  ,,,,,,,$     #,,,,,,,  #,,,,,,,,,,,,,>$  MMMMMMMu    9vMMMMMM& +>>>,,,,,,,,,>>*  xMMMMMMa@ ",
" #,,,,,,,  #,,,,,,,,,,,,,,$  ,,,,,,,$     #,,,,,,,  #,,,,,,,,,,,,,,$  MMMMMMMu    9vMMMMMM% +>,,,,,,,,,,,,>*  xMMMMMMa@ ",
" #,,,,,,,  #,,,,,,,,,,,,,,*  ,,,,,,,*     #,,,,,,,  #,,,,,,,,,,,,,,*  MMMMMMMu    9vMMMMMM% +>,>,,,,,,,,,,>*  xMMMMMMaO ",
" #,,,,,,,  #,,  #,,,,$  ,,*  ,,,,,,,*     #,,,,,,,  #,,  #,,,>*  ,>$  MMMMMMMu    9vMMMMMM% +>,. #>,,,*. >>*  cMMMMMMaO ",
" #,,,,,,,  #,,  #,,,,*  ,,$  ,,,,,,>$     #,,,,,,,  #,,  #,,,>*  ,,*  MMMMMMMu    9vMMMMMM% +>>. #>,,,*  >,*. xMMMMMMa@ ",
" #,,,,,,,  o$*  o*$*$+  $*#  ,,,,,,,*     #,,,,,,,  o*$  o*$$*+  *$+  MMMMMMMu    9vMMMMMM% o**  o****+  **+  cMMMMMMaO ",
" #,,,,,,,                    ,,,,,,,$     #,,,,>,,                    MMMMMMMu    0vMMMMMM%                   cMMMMMMa@ ",
" #,,,,>>,                    ,,,,,,,*     #,,,,>,,                    MMMMMMMu    9vMMMMMM%                   cMMMMMMa@ ",
"    ,,*  ,,,,,,,,,,,,,,,,,,,,  #,,           ,,*  ,,,,,,,,,,,,,,,,,,,,  qMM       .%%cMs-%>>>>>>>>>>>>>>>>>:>>#&qMM<%O  ",
"    >,*  ,,,,,,,,,,,,,,,,,,,,  #>>           >>$  ,,,,,,,,,,,,,,,,,,,,  qMM          cMpO >>,,,,>,,,,,,,>,,,,,  9vM%    ",
"    $*$+#,,,,,,,,,,,,,,,,,,,,###**           $*$##,,,,,,,,,,,,,,,,,,,,##4uu          yaw%+>>,,,,>>,,,,,,>>,,,,##3ypO    ",
"      #,,,,,,,,,,,,,,,,,,,,,,,>$               #,,,,,,,,,,,,,,,,,,,,,,,,*            O+$>>,,,,,,,,,,,,,,,,,,,,>,=@@     ",
"      #,,,,,,,,,,,,,,,,,,,,,,,,*               +,,,,,,,,,,,,,,,,,,,,,,,,$              +>,,,,,,,,,,,,,,,,,,,,,,,*       ",
"    ,,*  ,,,,,,,,,,,,,,,,,,,,  #,,           ,,$  ,,,,,,,,,,,,,,,,,,,,  qMM          jcy+ >,,,,,,,,,,,,,>,,,,,. 9kc%    ",
"    ,,*  >,,,,>>,,>>,,,,,>,,,  #,,           ,,*  ,>,,,>,,>>,,,,,>,,,,  qMM          cMpO >,>>,,,,>>,,,,>>,,,,  9vM@    ",
" .##,,=+#*$***$***$*$**$*$$**##*,,##o     .##,,=##*$*$*$**$*$**$*$$***qqaMMqq2    <79vMfq0=*******************70ivMw91. ",
" #,,,,,>,                    >,,,,,,*     #,,,,,,,                    MMMMMMMu    7zvMMMvv% .      .    .     kvMMMvmiO ",
" #,,,,,,,                    ,,,,,,,*     #,,,,,,,                    MMMMMMMu    9vMMMMMM%                   cMMMMMmpO ",
" #,,,,,,,  #,,  #,,,,*  ,,*  ,,,,,,,*     #,,,,,,,  #,,  #,,,,*  ,,*  MMMMMMMu    9vMMMMMM% +>>. +>>>>*  :>$  zMMMMMmiO ",
" #,,,,,,,  #,,  #,,,>*  ,,*  ,,,,,,,$     #,,,,,,,  #,,  #,,,,$  ,>$  MMMMMMMu    9vMMMMMM% +>>  +>>,,*  >>*  cMMMMMMa@ ",
" #,,,,,,,  #,,##*,,,>=##,>$  ,,,,,,,$     #,,,,,,,  #,,##*,,,,=##,,*  MMMMMMMu    9vMMMMMM% +>>#+*>,,,=#+>>*. cMMMMMMaO ",
" #,,,,,,,  #,,,,,,,,,,,,,,*  ,,,,,,,*     #,,,,,,,  #,,,,,,,,,,,,,,$  MMMMMMMu    9vMMMMMM% +>>>>>,,,,>>>>>*  cMMMMMMa@ ",
" #,,,,,,,  #,,,,,,,,,,,,,,*  ,,,,,,,$     #,,,,,,,  #,,,,,,,,,,,,,,*  MMMMMMMu    9vMMMMMM% +>,,>>,,,,,,,>>*  cMMMMMMaO ",
" #,,,,,,,  #,,,,,,,,,,,,,>$  ,,,,,,,$     #,,,,,,,  #,,,,,,,,,,,,,>*  MMMMMMMu    9vMMMMMM% +>,,,,,,,,,,,,,*  xMMMMMMaO ",
" #,,,,,,,  #,,,,,,,,,,,,,>*  ,,,,,>>*     #,,,,,,,  #,,>,,,,,,,,,,>$  MMMMMMMu    9vMMMMMM% +>>>,,,,,,,,,,,*  xMMMMMMa@ ",
" #,,,,,,,  o**>>,,,,,,,,*$+  ,,,,,,,$     #,,,,,,,  o**>,,,,,,,,,*$+  MMMMMMMu    9vMMMMMM% +$*>,,,,,,,,>**#  vbMMMMMaO ",
" #,,,,,,,     ,,,,,,,,,,     ,,,,,,,*     #,,,,,,,     ,,,,,,,,,,     MMMMMMMu    9vMMMMMM%    >,,,,,,,,,.    vMMMMMMa@ ",
" #,,,,,,,     ,,,,,,,,,,     ,,,,,,,$     #,,,,,,,     ,,,,,,,,,,     MMMMMMMu    9vMMMMMM%    >,,,,,,,,,     xbMMMMMa@ ",
" #,,,,,,,     ,,,,,,,,,,     ,,,,,,,*     #,,,,,,,     ,,,,,,,,,,     MMMMMMMu    9vMMMMMm&    :,,,,,,,,,.    vMMMMMMaO ",
" #,,,,,,,     ,,,,,,,,,,     ,,,,,,,*     #,,,,,,,     ,,,,,,,,,,     MMMMMMMu    9vMMMMMM%    >,,,,,,,,,     xMMMMMMa@ ",
" #,,,,,,,  .##,,,,,,,,,,##o  ,,,,,,,$     #,,,,,,,  .##,,,,,,,,,,##o  MMMMMMMu    9vMMMMMM% .++>,,,,,,,,,#+o  xMMMMMMaO ",
" #,,,,,,,  #,,,,,,,,,,,,,,$  ,,,,,,,*     #,,,,,,,  #,,,,,,,,,,,,,>*  MMMMMMMu    9vMMMMMM% +>>>,,,,,,,,,,>*  xMMMMMMaO ",
" #,,,,,,,  #,,,,,,,,,,,,,,*  ,,,,,,,$     #,,,,,,,  #,,,,,,,,,,,,,>$  MMMMMMMu    9vMMMMMb& +>>>,,,,,,,,,,,*  xMMMMMMa@ ",
" #,,,,,,,  #,,,,,,,,,,,,,,*  ,,,,,,,$     #,,,,,,,  #,,,,,,,,,,,,,,$  MMMMMMMu    9vMMMMMM% +>,,,,,,,,,,,,,*. xMMMMMMaO ",
" #,,,,,,,  #,,,,,,,,,,,>,,*  ,,,,,,,*     #,,,,,,,  #,,,,,,,,,,,,>,*  MMMMMMMu    9vMMMMMM% +>,,,,,,,,,,,,,*  xMMMMMMa@ ",
" #,,,,,,,  #,,*$=,,,,:*$,>$  ,,,,,,,*     #,,,,,,,  #,>**=,,,>:**>>$  MMMMMMMu    9vMMMMMM% +>,**=>,,,>**>,*  xMMMMMMa@ ",
" #,,,,,,,  #,,  #,,>>*  ,>*  ,,,,,,>$     #,,,,,,,  #,>  +,,,>*  ,,*  MMMMMMMu    9vMMMMMM% +>>. +>,,>*  >,*  xMMMMMMaO ",
" #,,,,,,,  #,,  #,,,,*  ,,*  ,,,,,,,*     #,,,,,,,  #,,  #,,,,*  ,,*  MMMMMMMu    9vMMMMMM% #>>  #>>,,*  >>*  cMMMMMMaO ",
" #,,,,,,,                    ,,,,,,,*     #,,,,,,,                    MMMMMMMu    9vMMMMMM%  ..    ..    .    cMMMMMMa@ ",
" #,>,>,,>                    >,,,,>>$     #,>>>>,>                    MMMMMMMu    9vMMMMMM%                   cMMMMMMpO ",
" o*$,>:**####################$*=>>**+     o**,,:*$####################uufMMuu8    1uavMjsaq9999999999999999099pagbMsaqo ",
"    ,,*  ,,,,,,,,,,,,,,,,,,,,  #,,           ,>*  ,,,,,,,,,,,,,,,,,,,,  qMM       .oOcMs&okvvvvvvvvvvvvvvvvvvv-oqvM;OO  ",
"    ,,*  ,,,,,,,,,,,,,,,,,,,,  #,,           ,>*  ,,,,,,,,,,,,,,,,,,,,  qMM          cMa@ cMMMMMMMMMMMMMMMMMMM% 0vM%    ",
"      +>,,,,,,,,,,,,,,,,,,,,,,,*               #,,,,,,,,,,,,,,,,,,,,,,,,$            %%0lcMMMMMMMMMMMMMMMMMMMMcci-%     ",
"      #,,,,,,,,,,,,,,,,,,,,,,,>$               #,,,,,,,,,,,,,,,,,,,,,,,,*              9vMMMMMMMMMMMMMMMMMMMMMMMaO      ",
"      o*$,,,,,,,,,,,,,,,,,,,,*$+               o**>>,,,,,,,,,,,,,,,,,,**+              1upbMMMMMMMMMMMMMMMMMMMsaq.      ",
"         ,,,,,,,,,,,,,,,,,,,,                     ,,,,,,,,,,,,,,,,,,,,                 .O@cMMMMMMMMMMMMMMMMMMM;@.       ",
"         ,,,,,,,,,,,,,,,,,,,,                                                             cMMMMMMMMMMMMMMMMMMM%         ",
"                                                                                          %%%%%%%%%%%%%%%%&%%%          ",
"                                                                                                                        "
};
