/* XPM */
static char *_01719337535[] = {
/* columns rows colors chars-per-pixel */
"120 77 57 1 ",
"  c black",
". c #000600",
"X c #020702",
"o c #000A00",
"O c #030A03",
"+ c #000F00",
"@ c #030C03",
"# c #001000",
"$ c #001700",
"% c #041104",
"& c #051505",
"* c #001A00",
"= c #001E00",
"- c #071B07",
"; c #071C07",
": c #002200",
"> c #002700",
", c #002800",
"< c #092309",
"1 c #0A290A",
"2 c #0F3B0F",
"3 c #0F3D0F",
"4 c #0F450F",
"5 c #165816",
"6 c #165A16",
"7 c #175B17",
"8 c #175C17",
"9 c #185F18",
"0 c #196319",
"q c #1A661A",
"w c #1B6A1B",
"e c #1E771E",
"r c #1F7A1F",
"t c #218521",
"y c #228822",
"u c #259625",
"i c #269926",
"p c #279A27",
"a c #279D27",
"s c #28A028",
"d c #29A429",
"f c #2AA72A",
"g c #31C231",
"h c #31C431",
"j c #36D636",
"k c #37DC37",
"l c #38DE38",
"z c #39E339",
"x c #39E439",
"c c #3BEA3B",
"v c #3BED3B",
"b c #3CEE3C",
"n c #3DF43D",
"m c #3EF83E",
"M c #3FFB3F",
"N c #40FE40",
"B c #40FF40",
/* pixels */
"                                                                                                                        ",
"                                                                                                                        ",
"         ####################                    qqqqqqqqqqqqqqqqqqqq                     79999999999999999990.         ",
"         ,,,,,,,,,,,,,,,,,,,,                    BBBBBBBBBBBBBBBBBBBB                     znnnnnnnnnnnnnnnnnnn%         ",
"         ,,,,,,,,,,,,,,,,,,,,                    BBBBBBBBBBBBBBBBBBBB                     bBBBBBBBBBBBBBBBBBBB%         ",
"      #,,,,,,,,,,,,,,,,,,,,,,,>$              qBBBBBBBBBBBBBBBBBBBBBBBBi               7zbBBBBBBBBBBBBBBBBBBBBbbuO      ",
"      #,,,,,,,,,,,,,,,,,,,,,,>>$              qBBBBBBBBBBBBBBBBBBBBBBBBi               9nBBBBBBBBBBBBBBBBBBBBBBBa@      ",
"    ###**,,,,,,,,,,,,,,,,,,,,**$##          qqriiBBBBBBBBBBBBBBBBBBBBiitqq           79epaBBBBBBBBBBBBBBBBBBBBday09o    ",
"    ,,*  ,,,,,,,,,,,,,,,,,,,,  #,,          BBi  BBBBBBBBBBBBBBBBBBBB  qBB           zna&obBBBBBBBBBBBBBBBBBBB;o0cn%    ",
"    ,>$  ,,,,,,,,,,,,,,,,,,,,  #,,          BBi  BBBBBBBBBBBBBBBBBBBB  qBB           vBso bBBBBBBBBNBBBmBBBBBB% 9nB%    ",
" #,,,,,,,                    ,,,,,,,$    qBBBBBBB                    BBBBBBBi     7zvBBmbb<%&#%%@%%&%%%&%%%&%%lbnBBbbuO ",
" #,,,,,,,                    ,,,,,,,*    qBBBBBBB                    BBBBBBBi     8nBBBBBB%                   bBBBBBBaO ",
" #,,,,,,,  .##  .###+o  ##o  ,,,,,,,*    qBBBBBBB  .##  .####o  ##o  BBBBBBBi     8nBBBBBB% .+#  .#+++o  ++o  bBBBBBBsO ",
" #,,,,,,,  #,,  #,,,>*  ,,*  ,,,,,,,*    qBBBBBBB  #,,  #,,,,*  ,,*  BBBBBBBi     0nBBBBBB% +>>  #>>>>$  >>*  bBBBBBBs@ ",
" #,,,,,,,  #,,  #,,,,*  ,>$  ,,,,,,,$    qBBBBBBB  #,,  #,,,>*  ,,*  BBBBBBBi     0nBBBBBB% +>>  +>>,,*  >,*  bBBBBBBs@ ",
" #,,,,,,,  #,,,,,,,,>>,,,>*  ,,,,,,,$    qBBBBBBB  #,,,,,,,,>,,,,>$  BBBBBBBi     8nBBBBBB% +>>>>>>>,,>:>>,*  bBBBBBBsO ",
" #,,,,,,,  #,,,,,,,,,,,,,,*  ,,,,,,,*    qBBBBBBB  #,,,,,,,,,,,,,,*  BBBBBBBi     9nBBBBBB% +>,,>>,,,,,,,,,*  vBBBBBBso ",
" #,,,,,,,  #,,,,,,,,,,,,,,$  ,,,,,,,$    qBBBBBBB  #,,,,,,,,,,,,,,$  BBBBBBBi     9nBBBBBB% +>,,,>,,,,,,,,,*  vBBBBBBs+ ",
" #,,,,,,,  #,,,,,,,,,,,,,,*  ,,,,,,,$    qBBBBBBB  #,,,,,,,,,,,,,,*  BBBBBBBi     9nBBBBBB% +>>,,,,,,,,,,,,*  vBBBBBBsO ",
" #,,,,,,,  #,,,,,,,,,,,,,>$  ,,,,,>>*    qBBBBBBB  #,,,,,,,,,,,,,>$  BBBBBBBi     9nBBBBBB% +>>>,,,,,,,,,,,*. vBBBBBBs@ ",
" #,,,,,,,     ,,,,,,,,,,     ,,,,,,,$    qBBBBBBB     ,,,,,,,,,,     BBBBBBBi     9nBBBBBB%  . >,,,,,,,,,..   vBBBBBBsO ",
" #,,,,,,,     ,,,,,,,,,,     ,,,,,,,*    qBBBBBBB     ,,,,,,,,,,     BBBBBBBi     9nBBBBBB%    >,,,,,,,,,     vBBBBBBs@ ",
" #,,,,,,,     ,,,,,,,,,,     ,,,,,,,$    qBBBBBBB     ,,,,,,,,,,     BBBBBBBi     9nBBBBBB%    >,,,,,,,,,.    vBBBBBBsO ",
" #,,,,,,,     ,,,,,,,,,,     ,,,,,,,*    qBBBBBBB     ,,,,,,,,,,     BBBBBBBi     9nBBBBBN&    :,,,,,,,,,     vBBBBBBs@ ",
" #,,,,,,,     ,,,,,,,,,,     ,,,,,,,*    qBBBBBBB     ,,,,,,,,,,     BBBBBBBi     9nBBBBBB%    >,,,,,,,,,     vBBBBBBsO ",
" #,,,,,,,  #,,,,,,,,,,,,,,*  ,,,,,,,$    qBBBBBBB  #,,,,,,,,,,,,,,*  BBBBBBBi     9nBBBBBB% +>>,,,,,,,,,,>>$. vBBBBBBs@ ",
" #,,,,,,,  #,,,,,,,,,,,,,>$  ,,,,,,,*    qBBBBBBB  #,,,,,,,,,,,,,,*  BBBBBBBi     9nBBBBBB% +>>>,,,,,,,,,,>*  vBBBBBBsO ",
" #,,,,,,,  #,,,,,,,,,,,,,>*  ,,,,,,,$    qBBBBBBB  #,,,,,,,,,,,,,>$  BBBBBBBi     9nBBBBBB& +>>>,,,,,,,,,>>*  vBBBBBBs@ ",
" #,,,,,,,  #,,,,,,,,,,,,,,$  ,,,,,,,$    qBBBBBBB  #,,,,,,,,,,,,,,*  BBBBBBBi     9nBBBBBB% +>,,,,,,,,,,,,>*  vBBBBBBs@ ",
" #,,,,,,,  #,,,,,,,,,,,,,,*  ,,,,,,,*    qBBBBBBB  #,,,,,,,,,,,,,,$  BBBBBBBi     9nBBBBBB% +>,>,,,,,,,,,,>*  vBBBBBBsO ",
" #,,,,,,,  #,,  #,,,,$  ,,*  ,,,,,,,*    qBBBBBBB  #,,  #,,,>$  ,,*  BBBBBBBi     9nBBBBBB% +>,. #>,,,*. >>*  bBBBBBBsO ",
" #,,,,,,,  #,,  #,,,,*  ,,$  ,,,,,,>$    qBBBBBBB  #,,  #,,,,*  ,>$  BBBBBBBi     9nBBBBBB% +>>. #>,,,*  >,*. vBBBBBBs@ ",
" #,,,,,,,  o$*  o*$*$+  $*#  ,,,,,,,*    qBBBBBBB  o*$  o**$$+  *$+  BBBBBBBi     9nBBBBBB% o**  o****+  **+  bBBBBBBsO ",
" #,,,,,,,                    ,,,,,,,$    qBBBBBBB                    BBBBBBBi     0nBBBBBB%                   bBBBBBBs@ ",
" #,,,,>>,                    ,,,,,,,*    qBBBBBBB                    BBBBBBBi     9nBBBBBB%                   bBBBBBBs@ ",
"    ,,*  ,,,,,,,,,,,,,,,,,,,,  #,,          BBi  BBBBBBBBBBBBBBBBBBBB  qBB        .%%bBd-%>>>>>>>>>>>>>>>>>:>>#&qBB<%O  ",
"    >,*  ,,,,,,,,,,,,,,,,,,,,  #>>          BBi  BBBBBBBBBBBBBBBBBBBB  qBB           bBaO >>,,,,>,,,,,,,>,,,,,  9nB%    ",
"    $*$+#,,,,,,,,,,,,,,,,,,,,###**          iitqqBBBBBBBBBBBBBBBBBBBBqqrii           usw%+>>,,,,>>,,,,,,>>,,,,##4uaO    ",
"      #,,,,,,,,,,,,,,,,,,,,,,,>$              qBBBBBBBBBBBBBBBBBBBBBBBBi             o+&>>,,,,,,,,,,,,,,,,,,,,>,=@@     ",
"      #,,,,,,,,,,,,,,,,,,,,,,,,*              qBBBBBBBBBBBBBBBBBBBBBBBBi               +>,,,,,,,,,,,,,,,,,,,,,,,*       ",
"    ,,*  ,,,,,,,,,,,,,,,,,,,,  #,,          BBi  BBBBBBBBBBBBBBBBBBBB  qBB           kvu+ >,,,,,,,,,,,,,>,,,,,. 9zb%    ",
"    ,,*  >,,,,>>,,>>,,,,,>,,,  #,,          BBi  BBBBBBBBBBBBBBBBBBBB  wBB           bBso >,>>,,,,>>,,,,>>,,,,  9nB@    ",
" .##,,=+#*$***$***$*$**$*$$**##*,,##o    1qqBBgqqiiiiiiiiiiiiiiiiiiiiqqsBBqq3     <79nBgq0=*******************70pnBw92. ",
" #,,,,,>,                    >,,,,,,*    qBBBBBBB                    BBBBBBBi     7cnBBBnn% .      .    .     znBBBnNpO ",
" #,,,,,,,                    ,,,,,,,*    qBBBBBBB                    BBBBBBBi     9nBBBBBB%                   bBBBBBNaO ",
" #,,,,,,,  #,,  #,,,,*  ,,*  ,,,,,,,*    qBBBBBBB  #,,  #,,,,*  ,,*  BBBBBBBi     9nBBBBBB% +>>. +>>>>*  :>$  cBBBBBNpO ",
" #,,,,,,,  #,,  #,,,>*  ,,*  ,,,,,,,$    qBBBBBBB  #,,  #,,,>*  ,,*  BBBBBBBi     9nBBBBBB% +>>  +>>,,*  >>*  bBBBBBBs@ ",
" #,,,,,,,  #,,##*,,,>=##,>$  ,,,,,,,$    qBBBBBBB  #,,##*,,,>=##,>$  BBBBBBBi     9nBBBBBB% +>>#+*>,,,=#+>>*. bBBBBBBsO ",
" #,,,,,,,  #,,,,,,,,,,,,,,*  ,,,,,,,*    qBBBBBBB  #,,,,,,,,,,,,,,*  BBBBBBBi     9nBBBBBB% +>>>>>,,,,>>>>>*  bBBBBBBs@ ",
" #,,,,,,,  #,,,,,,,,,,,,,,*  ,,,,,,,$    qBBBBBBB  #,,,,,,,,,,,,,,$  BBBBBBBi     9nBBBBBB% +>,,>>,,,,,,,>>*  bBBBBBBsO ",
" #,,,,,,,  #,,,,,,,,,,,,,>$  ,,,,,,,$    qBBBBBBB  #,,,,,,,,,,,,,,*  BBBBBBBi     9nBBBBBB% +>,,,,,,,,,,,,,*  vBBBBBBsO ",
" #,,,,,,,  #,,,,,,,,,,,,,>*  ,,,,,>>*    qBBBBBBB  #,,,,,,,,,,,,,>$  BBBBBBBi     9nBBBBBB% +>>>,,,,,,,,,,,*  vBBBBBBs@ ",
" #,,,,,,,  o**>>,,,,,,,,*$+  ,,,,,,,$    qBBBBBBB  o*$,,,,,,,,,,*$+  BBBBBBBi     9nBBBBBB% +$*>,,,,,,,,>**#  nmBBBBBsO ",
" #,,,,,,,     ,,,,,,,,,,     ,,,,,,,*    qBBBBBBB     ,,,,,,,,,,     BBBBBBBi     9nBBBBBB%    >,,,,,,,,,.    nBBBBBBs@ ",
" #,,,,,,,     ,,,,,,,,,,     ,,,,,,,$    qBBBBBBB     ,,,,,,,,,,     BBBBBBBi     9nBBBBBB%    >,,,,,,,,,     vmBBBBBs@ ",
" #,,,,,,,     ,,,,,,,,,,     ,,,,,,,*    qBBBBBBB     ,,,,,,,,,,     BBBBBBBi     9nBBBBBN&    :,,,,,,,,,.    nBBBBBBsO ",
" #,,,,,,,     ,,,,,,,,,,     ,,,,,,,*    qBBBBBBB     ,,,,,,,,,,     BBBBBBBi     9nBBBBBB%    >,,,,,,,,,     vBBBBBBs@ ",
" #,,,,,,,  .##,,,,,,,,,,##o  ,,,,,,,$    qBBBBBBB  .##,,,,,,,,,,##o  BBBBBBBi     9nBBBBBB% .++>,,,,,,,,,#+o  vBBBBBBsO ",
" #,,,,,,,  #,,,,,,,,,,,,,,$  ,,,,,,,*    qBBBBBBB  #,,,,,,,,,,,,,,*  BBBBBBBi     9nBBBBBB% +>>>,,,,,,,,,,>*  vBBBBBBsO ",
" #,,,,,,,  #,,,,,,,,,,,,,,*  ,,,,,,,$    qBBBBBBB  #,,,,,,,,,,,,,>$  BBBBBBBi     9nBBBBBm& +>>>,,,,,,,,,,,*  vBBBBBBs@ ",
" #,,,,,,,  #,,,,,,,,,,,,,,*  ,,,,,,,$    qBBBBBBB  #,,,,,,,,,,,,,,*  BBBBBBBi     9nBBBBBB% +>,,,,,,,,,,,,,*. vBBBBBBsO ",
" #,,,,,,,  #,,,,,,,,,,,>,,*  ,,,,,,,*    qBBBBBBB  #,,,,,,,,,,,,,,$  BBBBBBBi     9nBBBBBB% +>,,,,,,,,,,,,,*  vBBBBBBs@ ",
" #,,,,,,,  #,,*$=,,,,:*$,>$  ,,,,,,,*    qBBBBBBB  #,,$*=,,,>:*$,,*  BBBBBBBi     9nBBBBBB% +>,**=>,,,>**>,*  vBBBBBBs@ ",
" #,,,,,,,  #,,  #,,>>*  ,>*  ,,,,,,>$    qBBBBBBB  #,,  #,,,>*  ,>$  BBBBBBBi     9nBBBBBB% +>>. +>,,>*  >,*  vBBBBBBsO ",
" #,,,,,,,  #,,  #,,,,*  ,,*  ,,,,,,,*    qBBBBBBB  #,,  #,,,,*  ,,*  BBBBBBBi     9nBBBBBB% #>>  #>>,,*  >>*  bBBBBBBsO ",
" #,,,,,,,                    ,,,,,,,*    qBBBBBBB                    BBBBBBBi     9nBBBBBB%  ..    ..    .    bBBBBBBs@ ",
" #,>,>,,>                    >,,,,>>$    qBBBBBBB                    BBBBBBBi     9nBBBBBB%                   bBBBBBBaO ",
" o*$,>:**####################$*=>>**+    3iiBBjiiqqqqqqqqqqqqqqqqqqqqiigBBii8     2isnBldsq9999999999999999099ashmBdsqo ",
"    ,,*  ,,,,,,,,,,,,,,,,,,,,  #,,          BBi  BBBBBBBBBBBBBBBBBBBB  qBB        .oObBd&oznnnnnnnnnnnnnnnnnnn-oqnB;OO  ",
"    ,,*  ,,,,,,,,,,,,,,,,,,,,  #,,          BBi  BBBBBBBBBBBBBBBBBBBB  qBB           bBs@ bBBBBBBBBBBBBBBBBBBB% 0nB%    ",
"      +>,,,,,,,,,,,,,,,,,,,,,,,*              qBBBBBBBBBBBBBBBBBBBBBBBBi             %%0xbBBBBBBBBBBBBBBBBBBBBbbp-%     ",
"      #,,,,,,,,,,,,,,,,,,,,,,,>$              qBBBBBBBBBBBBBBBBBBBBBBBBi               9nBBBBBBBBBBBBBBBBBBBBBBBsO      ",
"      o*$,,,,,,,,,,,,,,,,,,,,*$+              3iiBBBBBBBBBBBBBBBBBBBBii8               2iamBBBBBBBBBBBBBBBBBBBdsq.      ",
"         ,,,,,,,,,,,,,,,,,,,,                    BBBBBBBBBBBBBBBBBBBB                  .O@bBBBBBBBBBBBBBBBBBBB;@.       ",
"         ,,,,,,,,,,,,,,,,,,,,                    BBBBBBBBBBBBBBBBBBBB                     bBBBBBBBBBBBBBBBBBBB%         ",
"                                                                                          %%%%%%%%%%%%%%%%&%%%          ",
"                                                                                                                        "
};
