/* XPM */
static char *_1719337534[] = {
/* columns rows colors chars-per-pixel */
"120 77 53 1 ",
"  c black",
". c #000600",
"X c #020702",
"o c #000A00",
"O c #030A03",
"+ c #000F00",
"@ c #030C03",
"# c #001000",
"$ c #001500",
"% c #041104",
"& c #051505",
"* c #001800",
"= c #011C01",
"- c #021E02",
"; c #071B07",
": c #071C07",
"> c #002300",
", c #002700",
"< c #002800",
"1 c #092309",
"2 c #0F3B0F",
"3 c #0F450F",
"4 c #165816",
"5 c #165A16",
"6 c #175B17",
"7 c #185F18",
"8 c #196219",
"9 c #196519",
"0 c #1A661A",
"q c #196A19",
"w c #1B6A1B",
"e c #1E771E",
"r c #228822",
"t c #259625",
"y c #269926",
"u c #279C27",
"i c #279D27",
"p c #28A028",
"a c #29A429",
"s c #2AA72A",
"d c #31C431",
"f c #37DC37",
"g c #38DE38",
"h c #39E339",
"j c #39E439",
"k c #3BEA3B",
"l c #3BED3B",
"z c #3CEE3C",
"x c #3DF43D",
"c c #3EF83E",
"v c #3FFB3F",
"b c #40FE40",
"n c #40FF40",
/* pixels */
"                                                                                                                        ",
"                                                                                                                        ",
"           ####################                   ####################                    57777777777777777778.         ",
"           <<<<<<<<<<<<<<<<<<<<                   <<<<<<<<<<<<<<<<<<<<                    hxxxxxxxxxxxxxxxxxxx%         ",
"           <<<<<<<<<<<<<<<<<<<<                   <<<<<<<<<<<<<<<<<<<<                    znnnnnnnnnnnnnnnnnnn%         ",
"        #<<<<<<<<<<<<<<<<<<<<<<<<*             #<<<<<<<<<<<<<<<<<<<<<<<<*              5hznnnnnnnnnnnnnnnnnnnnzztO      ",
"        #<<<<<<<<<<<<<<<<<<<<<<<<*             #<<<<<<<<<<<<<<<<<<<<<<<<*              7xnnnnnnnnnnnnnnnnnnnnnnni@      ",
"      ###**<<<<<<<<<<<<<<<<<<<<**$##         ###**<<<<<<<<<<<<<<<<<<<<**$##          57euinnnnnnnnnnnnnnnnnnnnair88.    ",
"      <<*  <<<<<<<<<<<<<<<<<<<<  #<<         <<*  <<<<<<<<<<<<<<<<<<<<  #<<          hxi&@znnnnnnnnnnnnnnnnnnn=O8kx%    ",
"      <<*  <<<<<<<<<<<<<<<<<<<<  #<<         <<*  <<<<<<<<<<<<<<<<<<<<  #<<          znpo znnnnnnnnnnnnnnnnnnn% 7xn%    ",
"<  #<<<<<<<                    <<<<<<<*   #<<<<<<<                    <<<<<<<*    5hznnczz1%&#%%%%%&%%&#%%%&%%gzxnnzztO ",
"<  #<<<<<<<                    <<<<<<<*   #<<<<<<<                    <<<<<<<*    7xnnnnnn%                   znnnnnni@ ",
"<  #<<<<<<<  o+#  .####o  ##o  <<<<<<<*   #<<<<<<<  .##  .####+  ##o  <<<<<<<*    7xnnnnnn% .+#  .++++o  +++  znnnnnnpO ",
"<  #<<<<<<<  #<<  #<<<<*  <<*  <<<<<<<*   #<<<<<<<  #<<  #<<<<*  <<*  <<<<<<<*    7xnnnnnn% +,,  +,,,,$  ,,*  znnnnnnp@ ",
"<  #<<<<<<<  #<<  #<<<<*  <<*  <<<<<<<*   #<<<<<<<  #<<  #<<<<*  <<*  <<<<<<<*    7xnnnnnn% +,,  +,,<<*  ,<*  znnnnnnp@ ",
"<  #<<<<<<<  #<<<<<<<<<<<<<<*  <<<<<<<*   #<<<<<<<  #<<<<<<<<<<<<<<*  <<<<<<<*    7xnnnnnn% +,,,,,,,<<<>,,<*  znnnnnnpO ",
"<  #<<<<<<<  #<<<<<<<<<<<<<<*  <<<<<<<*   #<<<<<<<  #<<<<<<<<<<<<<<*  <<<<<<<*    7xnnnnnn% +,<<,,<<<<<<<<<*. lnnnnnnpo ",
"<  #<<<<<<<  #<<<<<<<<<<<<<<*  <<<<<<<*   #<<<<<<<  #<<<<<<<<<<<<<<*  <<<<<<<*    7xnnnnnn% +,<<<,<<<<<<<<<*  lnnnnnnp+ ",
"<  #<<<<<<<  #<<<<<<<<<<<<<<*  <<<<<<<*   #<<<<<<<  #<<<<<<<<<<<<<<*  <<<<<<<*    7xnnnnnn% +,,<<<<<<<<<<<<*. lnnnnnnpO ",
"<  #<<<<<<<  #<<<<<<<<<<<<<<*  <<<<<<<*   #<<<<<<<  #<<<<<<<<<<<<<<*  <<<<<<<*    7xnnnnnn% +,,,<<<<<<<<<<<*  lnnnnnnp@ ",
"<  #<<<<<<<     <<<<<<<<<<     <<<<<<<*   #<<<<<<<     <<<<<<<<<<     <<<<<<<*    7xnnnnnn%  . ,<<<<<<<<<..   lnnnnnnpO ",
"<  #<<<<<<<     <<<<<<<<<<     <<<<<<<*   #<<<<<<<     <<<<<<<<<<     <<<<<<<*    7xnnnnnn%    ,<<<<<<<<<     lnnnnnnp@ ",
"<  #<<<<<<<     <<<<<<<<<<     <<<<<<<*   #<<<<<<<     <<<<<<<<<<     <<<<<<<*    7xnnnnnn%    ,<<<<<<<<<.    lnnnnnnpO ",
"<  #<<<<<<<     <<<<<<<<<<     <<<<<<<*   #<<<<<<<     <<<<<<<<<<     <<<<<<<*    7xnnnnnn&    ><<<<<<<<<     lnnnnnnp@ ",
"<  #<<<<<<<     <<<<<<<<<<     <<<<<<<*   #<<<<<<<     <<<<<<<<<<     <<<<<<<*    7xnnnnnn%    ,<<<<<<<<<     lnnnnnnpO ",
"<  #<<<<<<<  #<<<<<<<<<<<<<<*  <<<<<<<*   #<<<<<<<  #<<<<<<<<<<<<<<*  <<<<<<<*    7xnnnnnn% +,,<<<<<<<<<<,,$. lnnnnnnp@ ",
"<  #<<<<<<<  #<<<<<<<<<<<<<<*  <<<<<<<*   #<<<<<<<  #<<<<<<<<<<<<<<*  <<<<<<<*    7xnnnnnn% +,,,<<<<<<<<<<<*  lnnnnnnpO ",
"<  #<<<<<<<  #<<<<<<<<<<<<<<*  <<<<<<<*   #<<<<<<<  #<<<<<<<<<<<<<<*  <<<<<<<*    7xnnnnnn& +,,,<<<<<<<<<<<*  lnnnnnnp@ ",
"<  #<<<<<<<  #<<<<<<<<<<<<<<*  <<<<<<<*   #<<<<<<<  #<<<<<<<<<<<<<<*  <<<<<<<*    7xnnnnnn% +,<<<<<<<<<<<<<*  znnnnnnp@ ",
"<  #<<<<<<<  #<<<<<<<<<<<<<<*  <<<<<<<*   #<<<<<<<  #<<<<<<<<<<<<<<*  <<<<<<<*    7xnnnnnn% +,<<<<<<<<,,<<<*. znnnnnnpO ",
"<  #<<<<<<<  #<<  #<<<<*  <<*  <<<<<<<*   #<<<<<<<  #<<  #<<<<*  <<*  <<<<<<<*    7xnnnnnn% +,<. #,<<<*..,,*  znnnnnnpO ",
"<  #<<<<<<<  #<<  #<<<<*  <<*  <<<<<<<*   #<<<<<<<  #<<  #<<<<*  <<*  <<<<<<<*    7xnnnnnn% +,<. #,<<<*. ,,*  znnnnnnp@ ",
"<  #<<<<<<<  +**  o***$+  **+  <<<<<<<*   #<<<<<<<  +$*  o****+  **#  <<<<<<<*    7xnnnnnn% o**  +****+  $*+  znnnnnnpO ",
"<  #<<<<<<<                    <<<<<<<*   #<<<<<<<                    <<<<<<<*    8xnnnnnn%         .    .    znnnnnnp@ ",
"<  #<<<<<<<                    <<<<<<<*   #<<<<<<<                    <<<<<<<*    7xnnnnnn%                   znnnnnnp@ ",
"      <<*  <<<<<<<<<<<<<<<<<<<<  #<<         <<*  <<<<<<<<<<<<<<<<<<<<  #<<       .%%zna;%,,,,,,,,>,,,,,,,,>,,#&0nn1%O  ",
"      <<*  <<<<<<<<<<<<<<<<<<<<  #<<         <<*  <<<<<<<<<<<<<<<<<<<<  #<<          znpO ,<<<<<,<<<<<<<,<<<<<  7xn%    ",
"      **$##<<<<<<<<<<<<<<<<<<<<###**         **$##<<<<<<<<<<<<<<<<<<<<##$**          tpq$+,,<<<<,,<<<<<<,<<<<<##3tiO    ",
"        #<<<<<<<<<<<<<<<<<<<<<<<<*             #<<<<<<<<<<<<<<<<<<<<<<<<*            Oo$,,<<<<<<<<<<<<<<<<<<<<,,-@@     ",
"        #<<<<<<<<<<<<<<<<<<<<<<<<*             #<<<<<<<<<<<<<<<<<<<<<<<<*              +<<<<<<<<<<<<<<<<<<<<<,,<*       ",
"      <<*  <<<<<<<<<<<<<<<<<<<<  #<<         <<*  <<<<<<<<<<<<<<<<<<<<  #<<          gzt+ ,<<<<<<<<<<<<<<<<<<<..7hz%    ",
"      <<*  <<<<<<<<<<<<<<<<<<<<  #<<         <<*  <<<<<<<<<<<<<<<<<<<<  #<<          kniO ,<<<<<<<<<<<<<<<<<<<  7xn%    ",
"#  .##<<=##********************##=<<##o   .##<<=##********************##*<<##o    167xnd08=*******=******=****67ibb072. ",
"<  #<<<<<<<                    <<<<<<<*   #<<<<<<<                    <<<<<<<*    6kxnnnxx&   .    ..  .  . . hxxnnxxiO ",
"<  #<<<<<<<                    <<<<<<<*   #<<<<<<<                    <<<<<<<*    7xnnnnnn&                   znnnnnniO ",
"<  #<<<<<<<  #<<  #<<<<*  <<*  <<<<<<<*   #<<<<<<<  #<<  #<<<<*  <<*  <<<<<<<*    7xnnnnnn% +,,  +,,,,*  >,$  knnnnnniO ",
"<  #<<<<<<<  #<<  #<<<<*  <<*  <<<<<<<*   #<<<<<<<  #<<  #<<<<*  <<*  <<<<<<<*    7xnnnnnn% +>,. +,,<<*  ,<*  znnnnnnp@ ",
"<  #<<<<<<<  #<<##=<<<<=##<<*  <<<<<<<*   #<<<<<<<  #<<##*<<<<=##<<*  <<<<<<<*    7xnnnnnn% +,,#+*,<<,>##,<*. znnnnnnpO ",
"<  #<<<<<<<  #<<<<<<<<<<<<<<*  <<<<<<<*   #<<<<<<<  #<<<<<<<<<<<<<<*  <<<<<<<*    7xnnnnnn% +,<,,,<<<<,,,,<*. znnnnnnp@ ",
"<  #<<<<<<<  #<<<<<<<<<<<<<<*  <<<<<<<*   #<<<<<<<  #<<<<<<<<<<<<<<*  <<<<<<<*    7xnnnnnn% +,<<<<<<<<<<<,<*  znnnnnnpO ",
"<  #<<<<<<<  #<<<<<<<<<<<<<<*  <<<<<<<*   #<<<<<<<  #<<<<<<<<<<<<<<*  <<<<<<<*    7xnnnnnn% +,<<<<<<<<<<<<<*  znnnnnnpO ",
"<  #<<<<<<<  #<<<<<<<<<<<<<<*  <<<<<<<*   #<<<<<<<  #<<<<<<<<<<<<<<$  <<<<<<<*    7xnnnnnn% +,<<<<<<<<<<<<<*  knnnnnnp@ ",
"<  #<<<<<<<  o**<<<<<<<<<<**+  <<<<<<<*   #<<<<<<<  +$*<<<<<<<<<<**+  <<<<<<<*    7xnnnnnn% +$*<<<<<<<<<<**#  xcnnnnnpO ",
"<  #<<<<<<<     <<<<<<<<<<     <<<<<<<*   #<<<<<<<     <<<<<<<<<<     <<<<<<<*    7xnnnnnn%    ,<<<<<<<<<.    xnnnnnnp@ ",
"<  #<<<<<<<     <<<<<<<<<<     <<<<<<<*   #<<<<<<<     <<<<<<<<<<     <<<<<<<*    7xnnnnnn%    ,<<<<<<<<<.    lcnnnnnp@ ",
"<  #<<<<<<<     <<<<<<<<<<     <<<<<<<*   #<<<<<<<     <<<<<<<<<<     <<<<<<<*    7xnnnnnb&    ><<<<<<<<<     xnnnnnnpO ",
"<  #<<<<<<<     <<<<<<<<<<     <<<<<<<*   #<<<<<<<     <<<<<<<<<<     <<<<<<<*    7xnnnnnn%    ,<<<<<<<<<.    lnnnnnnp@ ",
"<  #<<<<<<<  .##<<<<<<<<<<##o  <<<<<<<*   #<<<<<<<  o##<<<<<<<<<<##o  <<<<<<<*    7xnnnnnn% .++,<<<<<<<<<##o  lnnnnnnpO ",
"<  #<<<<<<<  #<<<<<<<<<<<<<<*  <<<<<<<*   #<<<<<<<  +<<<<<<<<<<<<<<*  <<<<<<<*    7xnnnnnn% +,,,<<<<<<<<<,,*  lnnnnnnpO ",
"<  #<<<<<<<  #<<<<<<<<<<<<<<*  <<<<<<<*   #<<<<<<<  #<<<<<<<<<<<<<<*  <<<<<<<*    7xnnnnnc& +,,,<<<<<<<<<<,*  lnnnnnnp@ ",
"<  #<<<<<<<  #<<<<<<<<<<<<<<*  <<<<<<<*   #<<<<<<<  #<<<<<<<<<<<<<<*  <<<<<<<*    7xnnnnnn% #,<<<<<<<<<<<<<*. lnnnnnnpO ",
"<  #<<<<<<<  #<<<<<<<<<,<<<<*  <<<<<<<*   #<<<<<<<  #<<<<<<<<<<<<<<*  <<<<<<<*    7xnnnnnn% +<<<<<<<<<<<<<<*  lnnnnnnp@ ",
"<  #<<<<<<<  #<<**=<<<<>**<<*  <<<<<<<*   #<<<<<<<  #<<**=<<<<>**<<*  <<<<<<<*    7xnnnnnn% +,<**=<<<<,**<<=  lnnnnnnp@ ",
"<  #<<<<<<<  #<<  #<<<<*  <<*  <<<<<<<*   #<<<<<<<  #<<  #<<<<*  <<*  <<<<<<<*    7xnnnnnn% +,<. #,<<<*. ,<*  lnnnnnnpO ",
"<  #<<<<<<<  #<<  #<<<<*  <<*  <<<<<<<*   #<<<<<<<  #<<  #<<<<*  <<*  <<<<<<<*    8xnnnnnn% #,,  #,,<<*. ,<*  znnnnnnpO ",
"<  #<<<<<<<                    <<<<<<<*   #<<<<<<<                    <<<<<<<*    7xnnnnnn%  ..    ..     .   znnnnnnp@ ",
"<  #<<<<,<<                    <<<<<<<*   #<<<<<<<                    <<<<<<<*    7xnnnnnn%                   znnnnnnuO ",
"*  o**<<>**####################**=<<**+   o**<<>**####################**=<<**+    2ypxngap07777777777777777777ipdxnap0o ",
"      <<*  <<<<<<<<<<<<<<<<<<<<  #<<         <<*  <<<<<<<<<<<<<<<<<<<<  #<<       .oOzna&ohxxxxxxxxxxxxxxxxxxx;O0xn:oO  ",
"      <<*  <<<<<<<<<<<<<<<<<<<<  #<<         <<*  <<<<<<<<<<<<<<<<<<<<  #<<          znp@ znnnnnnnnnnnnnnnnnnn% 8xn%    ",
"        #<<<<<<<<<<<<<<<<<<<<<<<<*             #<<<<<<<<<<<<<<<<<<<<<<<<*            %%8jznnnnnnnnnnnnnnnnnnnnzzi;%     ",
"        #<<<<<<<<<<<<<<<<<<<<<<<<*             #<<<<<<<<<<<<<<<<<<<<<<<<*              7xnnnnnnnnnnnnnnnnnnnnnnniO      ",
"        o**<<<<<<<<<<<<<<<<<<<<**+             o**<<<<<<<<<<<<<<<<<<<<**+              2yicnnnnnnnnnnnnnnnnnnnap0.      ",
"           <<<<<<<<<<<<<<<<<<<<                   <<<<<<<<<<<<<<<<<<<<                 .O@znnnnnnnnnnnnnnnnnnn:@O       ",
"           <<<<<<<<<<<<<<<<<<<<                   <<<<<<<<<<<<<<<<<<<<                    znnnnnnnnnnnnnnnnnnn%         ",
"                                                                                          %%%%%%%%%%%%%%%%&%%%          ",
"                                                                                                                        "
};
