/* XPM */
static char *_001719337534[] = {
/* columns rows colors chars-per-pixel */
"120 77 60 1 ",
"  c black",
". c #000600",
"X c #020702",
"o c #000A00",
"O c #030A03",
"+ c #000E00",
"@ c #030C03",
"# c #001000",
"$ c #001700",
"% c #041104",
"& c #051505",
"* c #001A00",
"= c #001E00",
"- c #021E02",
"; c #071B07",
": c #071C07",
"> c #002200",
", c #002700",
"< c #002800",
"1 c #092309",
"2 c #0A290A",
"3 c #0A370A",
"4 c #0F3B0F",
"5 c #0F3D0F",
"6 c #0F450F",
"7 c #165816",
"8 c #165A16",
"9 c #175B17",
"0 c #175C17",
"q c #185F18",
"w c #176217",
"e c #196319",
"r c #1A661A",
"t c #1B6A1B",
"y c #1E771E",
"u c #1F7A1F",
"i c #218521",
"p c #228822",
"a c #259625",
"s c #269926",
"d c #279A27",
"f c #279D27",
"g c #29A329",
"h c #29A429",
"j c #2AA72A",
"k c #31C231",
"l c #31C431",
"z c #36D636",
"x c #37DC37",
"c c #38DE38",
"v c #39E339",
"b c #39E439",
"n c #3BEA3B",
"m c #3BED3B",
"M c #3CEE3C",
"N c #3DF43D",
"B c #3EF83E",
"V c #3FFB3F",
"C c #40FE40",
"Z c #40FF40",
/* pixels */
"                                                                                                                        ",
"                                                                                                                        ",
"       ####################                      rrrrrrrrrrrrrrrrrrrr                     8qqqqqqqqqqqqqqqqqqe.         ",
"       <<<<<<<<<<<<<<<<<<<<                      ZZZZZZZZZZZZZZZZZZZZ                     vNNNNNNNNNNNNNNNNNNN%         ",
"       <<<<<<<<<<<<<<<<<<<<                      ZZZZZZZZZZZZZZZZZZZZ                     MZZZZZZZZZZZZZZZZZZZ%         ",
"    #<<<<<<<<<<<<<<<<<<<<<<,,*                rZZZZZZZZZZZZZZZZZZZZZZZZs               8vMZZZZZZZZZZZZZZZZZZZZMMaO      ",
"    #<<<<<<<<<<<<<<<<<<<<<<,,$                rZZZZZZZZZZZZZZZZZZZZZZZZs               qNZZZZZZZZZZZZZZZZZZZZZZZf@      ",
"  ###**,<<<<<<<<<<<<<<<<<<<**3rr            rrussZZZZZZZZZZZZZZZZZZZZssirr           8qydfZZZZZZZZZZZZZZZZZZZZhfpeqo    ",
"  <<*  <<<<<<<<<<<<<<<<<<<<  rZZ            ZZs  ZZZZZZZZZZZZZZZZZZZZ  rZZ           vNs&@MZZZZZZZZZZZZZZZZZZZ=OenN%    ",
"  <<$  <<<<<<<<<<<<<<<<<<<<  rZZ            ZZs  ZZZZZZZZZZZZZZZZZZZZ  rZZ           MZgo MZZZZZZZZCZZZZZZZZZZ% qNZ%    ",
"<<<<,<<                    ZZZZZZZs      rZZZZZZZ                    ZZZZZZZs     8vMZZBMM1%&#%%@%%&%%%%%%%&%%cMNZZMMaO ",
"<<<<<<<                    ZZZZZZZs      rZZZZZZZ                    ZZZZZZZs     qNZZZZZZ%                   MZZZZZZfO ",
"<<<<<<<  .##  .####o  ##o  ZZZZZZZs      rZZZZZZZ  .##  .####o  ##o  ZZZZZZZs     qNZZZZZZ% .+#  .+#++o  ++o  MZZZZZZfO ",
"<<<<<<<  #<<  #<<<<*  <<*  ZZZZZZZs      rZZZZZZZ  #<<  #<<<<*  <<*  ZZZZZZZs     qNZZZZZZ% +,<  +<<,,*  ,,*  MZZZZZZg@ ",
"<<<<<<<  #<<  #<<<,*  <<*  ZZZZZZZs      rZZZZZZZ  #<<  #<<<,*  <<*  ZZZZZZZs     qNZZZZZZ% +,,  +,,<<*  ,<*  MZZZZZZg@ ",
"<<<<<<<  #<<<<<<<<,<<<<,$  ZZZZZZZs      rZZZZZZZ  #<<<<<<<<,<<<<,$  ZZZZZZZs     qNZZZZZZ% #,<,,,,,<<,>,,<*  MZZZZZZfO ",
"<<<<<<<  #<<<<<<<<<<<<<<$  ZZZZZZZs      rZZZZZZZ  #<<<<<<<<<<<<<<*  ZZZZZZZs     qNZZZZZZ% +,<<,,<<<<<<<<<*  mZZZZZZfo ",
"<<<<<<<  #<<<<<<<<<<<<<<*  ZZZZZZZs      rZZZZZZZ  #<<<<<<<<<<<<<<$  ZZZZZZZs     qNZZZZZZ& +,<<<<<<<<<<<<<*  mZZZZZZg+ ",
"<<<<<<<  #<<<<<<<<<<<<<<$  ZZZZZZZs      rZZZZZZZ  #<<<<<<<<<<<<<<*  ZZZZZZZs     qNZZZZZZ% +,,<<<<<<<<<<<<*  mZZZZZZfO ",
"<<<<<<<  #<<<<<<<<<<<<<<*  ZZZZZZZs      rZZZZZZZ  #<<<<<<<<<<<<<,$  ZZZZZZZs     qNZZZZZZ% +,,,<<<<<<<<<<<*. mZZZZZZg@ ",
"<<<<<<<     <<<<<<<<<<     ZZZZZZZs      rZZZZZZZ     <<<<<<<<<<     ZZZZZZZs     qNZZZZZZ%  . ,<<<<<<<<<..   mZZZZZZfO ",
"<<<<<<<     <<<<<<<<<<     ZZZZZZZs      rZZZZZZZ     <<<<<<<<<<     ZZZZZZZs     qNZZZZZZ%    ,<<<<<<<<<     mZZZZZZg@ ",
"<<<<<<<     <<<<<<<<<<     ZZZZZZZs      rZZZZZZZ     <<<<<<<<<<     ZZZZZZZs     qNZZZZZZ%    ,<<<<<<<<<.    mZZZZZZfO ",
"<<<<<<<     <<<<<<<<<<     ZZZZZZZs      rZZZZZZZ     <<<<<<<<<<     ZZZZZZZs     qNZZZZZZ&    ><<<<<<<<<     mZZZZZZg@ ",
"<<<<<<<     <<<<<<<<<<     ZZZZZZZs      rZZZZZZZ     <<<<<<<<<<     ZZZZZZZs     qNZZZZZZ%    ,<<<<<<<<<     mZZZZZZfO ",
"<<<<<<<  #<<<<<<<<<<<<<<*  ZZZZZZZs      rZZZZZZZ  #<<<<<<<<<<<<<<*  ZZZZZZZs     qNZZZZZZ% +,,<<<<<<<<<<,,$. mZZZZZZg@ ",
"<<<<<<<  #<<<<<<<<<<<<<<*  ZZZZZZZs      rZZZZZZZ  #<<<<<<<<<<<<<<*  ZZZZZZZs     qNZZZZZZ% +,,<<<<<<<<<<<,*  mZZZZZZfO ",
"<<<<<<<  #<<<<<<<<<<<<<<$  ZZZZZZZs      rZZZZZZZ  #<<<<<<<<<<<<<,$  ZZZZZZZs     qNZZZZZZ& +,<<<<<<<<<<<,,*  mZZZZZZg@ ",
"<<<<<<<  #<<<<<<<<<<<<<<$  ZZZZZZZs      rZZZZZZZ  #<<<<<<<<<<<<<<*  ZZZZZZZs     qNZZZZZZ% +,<<<<<<<<<<<<,*  nZZZZZZg@ ",
"<<<<<<<  #<<<<<<<<<,<<<<*  ZZZZZZZs      rZZZZZZZ  #<<<<<<<<<<<<<<$  ZZZZZZZs     qNZZZZZZ% +,<,<<<<<<<<<<,*  MZZZZZZfO ",
"<<<<<<<  #<<  #<<<<$  <<$  ZZZZZZZs      rZZZZZZZ  #<<  #<<<,$  <<*  ZZZZZZZd     qNZZZZZZ% +,<. #,<<<*. ,,*  MZZZZZZfO ",
"<<<<<<<  #<<  #<<<<*  <<$  ZZZZZZZs      rZZZZZZZ  #<<  #<<<<*  <,$  ZZZZZZZd     qNZZZZZZ% +,,. #,<<<*  ,<*. MZZZZZZg@ ",
"<<<<<<<  o$*  o*$**+  $*+  ZZZZZZZs      rZZZZZZZ  o*$  o**$$+  *$+  ZZZZZZZs     qNZZZZZZ% o**  o****+  **+  MZZZZZZfO ",
"<<<<<<<                    ZZZZZZZs      rZZZZZZZ                    ZZZZZZZs     eNZZZZZZ%                   MZZZZZZg@ ",
"<<<<<<<                    ZZZZZZZs      rZZZZZZZ                    ZZZZZZZs     qNZZZZZZ%                   MZZZZZZg@ ",
"  ,,*  <<<<<<<<<<<<<<<<<<<<  rZZ            ZZs  <<<<<<<<<<<<<<<<<<<<  rZZ        .%%MZh;%,,,,,,,,,,,,,,,,,>,,#&rZZ1%O  ",
"  <<$  <<<<<<<<<<<<<<<<<<<<  rZZ            ZZs  <<<<<<<<<<<<<<<<<<<<  rZZ           MZf@ ,,<<<<,<<<<<<<,<<<<<  qNZ%    ",
"  $*$##<<<<<<<<<<<<<<<<<<<<##6ss            ssw##<<<<<<<<<<<<<<<<<<<<##6ss           agt#+,,<<<<,<<<<<<<,<<<<<##6agO    ",
"    #<<<<<<<<<<<<<<<<<<<<<<<,*                #<<<<<<<<<<<<<<<<<<<<<<<,*             oo$,,<<<<<<<<<<<<<<<<<<<<,<=@O     ",
"    #<<<<<<<<<<<<<<<<<<<<<<<,*                #<<<<<<<<<<<<<<<<<<<<<<<,*               +,<<<<<<<<<<<<<<<<<<<<<<<*       ",
"  <<*  <<<<<<<<<<<<<<<<<<<<  rZZ            ZZs  <<<<<<<<<<<<<<<<<<<<  rZZ           cMa+ ,<<<<<<<<<<<<<,<<<<<. 9vn%    ",
"  <<$  <<,<<<<,,<<,,<<<<<,<  rZZ            ZZs  <<,<<<,<<,,<<<<<,<<<  rZZ           MZfO ,<,,<<<<<<<<<<,,<<<<  qNZ%    ",
"##<<=##**$$***$***$*$**$*$*rrgZZrr5      2rrZZkrr**$*$*$**$*$**$*$$**rrgZZrr5     19qNZkre=*******************8edZZtq4. ",
"<<<<<<,                    ZZZZZZZs      rZZZZZZZ                    ZZZZZZZs     9nNZZZNN% .         . .     bNNZZNNdO ",
"<<<<<<<                    ZZZZZZZs      rZZZZZZZ                    ZZZZZZZs     qNZZZZZZ%                   MZZZZZZgO ",
"<<<<<<<  #<<          <<*  ZZZZZZZs      rZZZZZZZ  #<<  #<<<<*  <<*  ZZZZZZZs     qNZZZZZZ% +,,. +,,,,*  >,$  MZZZZZZfO ",
"<<<<<<<  #<<          <<$  ZZZZZZZs      rZZZZZZZ  #<<  #<<<,*  <<*  ZZZZZZZs     qNZZZZZZ% +,,  +,,<<*  ,,*  MZZZZZZfO ",
"<<<<<<<  #<<##o    .##<<*  ZZZZZZZs      rZZZZZZZ  #<<##*<<<,=##<,$  ZZZZZZZs     qNZZZZZZ% #,<#+*,<<<=#+,,*. MZZZZZZg@ ",
"<<<<<<<  #<<<<*    #<<<<*  ZZZZZZZs      rZZZZZZZ  #<<<<<<<<<<<<<<*  ZZZZZZZs     qNZZZZZZ% +,,,,,<<<<,,,,,*  MZZZZZZg@ ",
"<<<<<<<  #<<<<*    #<<<<$  ZZZZZZZs      rZZZZZZZ  #<<<<<<<<<<<<<<$  ZZZZZZZs     qNZZZZZC& +,<<<<<<<<<<<,,*  mZZZZZZfO ",
"<<<<<<<  #<<<<,,<<<<<<<<*  ZZZZZZZs      rZZZZZZZ  #<<<<<<<<<<<<<<*  ZZZZZZZs     qNZZZZZZ% +,<<<<<<<<<<<<<*  mZZZZZZfO ",
"<<<<<<<  #<<<<<<<<<<<<<<$  ZZZZZZZs      rZZZZZZZ  #<<<<<<<<<<<<<,$  ZZZZZZZs     qNZZZZZZ% +,<,<<<<<<<<<<<*  mZZZZZZg@ ",
"<<<<<<<  o$*<<<<<<<<<<$*+  ZZZZZZZs      rZZZZZZZ  o*$<<<<<<<<<<*$+  ZZZZZZZs     qNZZZZZZ@ +$*,<<<<<<<<,**#  NBZZZZZfO ",
"<<<<<<<     <<<<<<<<<<     ZZZZZZZs      rZZZZZZZ     <<<<<<<<<<     ZZZZZZZs     qNZZZZZZ%    ,<<<<<<<<<.    NZZZZZZg@ ",
"<<<<<<<     <<<<<<<<<<     ZZZZZZZs      rZZZZZZZ     <<<<<<<<<<     ZZZZZZZs     qNZZZZZZ%    ><<<<<<<<<     mBZZZZZg@ ",
"<<<<<<<     <<<<<<<<<<     ZZZZZZZs      rZZZZZZZ     <<<<<<<<<<     ZZZZZZZs     qNZZZZZZ&    ,<<<<<<<<<.    NZZZZZZfO ",
"<<<<<<<     <<<<<<<<<<     ZZZZZZZs      rZZZZZZZ     <<<<<<<<<<     ZZZZZZZs     qNZZZZZZ%    ,<<<<<<<<<     mZZZZZZg@ ",
"<<<<<<<  .##<<<<<<<<<<##o  ZZZZZZZs      rZZZZZZZ  .##<<<<<<<<<<##o  ZZZZZZZs     qNZZZZZZ% .++,<<<<<<<<<#+o  mZZZZZZfO ",
"<<<<<<<  #<<<<<<<<<<<<<<*  ZZZZZZZs      rZZZZZZZ  #<<<<<<<<<<<<<<*  ZZZZZZZs     qNZZZZZZ% +,,,<<<<<<<<<<,*  mZZZZZZfO ",
"<<<<<<<  #<<<<<<<<<<<<<<*  ZZZZZZZs      rZZZZZZZ  #<<<<<<<<<<<<<,$  ZZZZZZZs     qNZZZZZB& #,,,<<<<<<<<<<<*  mZZZZZZg@ ",
"<<<<<<<  #<<<<*    #<<<<$  ZZZZZZZs      rZZZZZZZ  #<<<<<<<<<<<<<<*  ZZZZZZZs     qNZZZZZZ% +,<<<<<<<<<<<<<*. mZZZZZZfO ",
"<<<<<<<  #<<<<*    #<<<<$  ZZZZZZZs      rZZZZZZZ  #<<<<<<<<<<<<<<$  ZZZZZZZs     qNZZZZZZ% +,<<<<<<<<<<<<<*  mZZZZZZg@ ",
"<<<<<<<  #<<$*+    o*$<<*  ZZZZZZZs      rZZZZZZZ  #<<$*=<<<,>*$<<*  ZZZZZZZs     qNZZZZZZ% +,<**=,<<<,**,<*  mZZZZZZg@ ",
"<<<<<<<  #<<          <,$  ZZZZZZZs      rZZZZZZZ  #<<  #<<<,*  <,$  ZZZZZZZs     qNZZZZZZ% +,<. +,<<,*  ,<*  mZZZZZZfO ",
"<<<<<<<  #<<          <<*  ZZZZZZZs      rZZZZZZZ  #<<  #<<<<*  <<*  ZZZZZZZs     qNZZZZZZ& +,,  #,,<<*  ,,*  MZZZZZZfO ",
"<<<<<<<                    ZZZZZZZs      rZZZZZZZ                    ZZZZZZZs     qNZZZZZZ%  ..    ..    .    MZZZZZZg@ ",
"<,<<<,<                    ZZZZZZZs      rZZZZZZZ                    ZZZZZZZs     qNZZZZZC@                   MZZZZZZfO ",
"*$<<>$*####################sskZZss0      5ssZZzssrrrrrrrrrrrrrrrrrrrrsskZZss0     4shNZxggrqqqqqqqqqqqqqqqqeqqdgkBZhgro ",
"  <<*  <<<<<<<<<<<<<<<<<<<<  rZZ            ZZs  ZZZZZZZZZZZZZZZZZZZZ  rZZ        .oOMZg&ovNNNNNNNNNNNNNNNNNNN;orNZ:O.  ",
"  <<$  <<<<<<<<<<<<<<<<<<<<  rZZ            ZZs  ZZZZZZZZZZZZZZZZZZZZ  rZZ           MCg+ MZZZZZZZZZZZZZZZZZZZ% eNZ%    ",
"    #<<<<<<<<<<<<<<<<<<<<<<<,$                rZZZZZZZZZZZZZZZZZZZZZZZZs             %%evMZZZZZZZZZZZZZZZZZZZZMMd;%     ",
"    #<<<<<<<<<<<<<<<<<<<<<<<<*                rZZZZZZZZZZZZZZZZZZZZZZZZs               qNZZZZZZZZZZZZZZZZZZZZZZZgO      ",
"    o*$<<<<<<<<<<<<<<<<<<<<*$+                5ssZZZZZZZZZZZZZZZZZZZZss0               4dfBZZZZZZZZZZZZZZZZZZZhgr.      ",
"       <<<<<<<<<<<<<<<<<<<<                      ZZZZZZZZZZZZZZZZZZZZ                  .OOMZZZZZZZZZZZZZZZZZZZ:@.       ",
"       <<<<<<<<<<<<<<<<<<<<                      ZZZZZZZZZZZZZZZZZZZZ                     MZZZZZZZZZZZZZZZZZZZ%         ",
"                                                                                          %%%%%%%%%%%%%%%%&%%%          ",
"                                                                                                                        "
};
