/* XPM */
static char *_01719337536[] = {
/* columns rows colors chars-per-pixel */
"120 77 59 1 ",
"  c black",
". c #000600",
"X c #020702",
"o c #000A00",
"O c #030A03",
"+ c #000F00",
"@ c #030C03",
"# c #001000",
"$ c #001700",
"% c #041104",
"& c #051505",
"* c #001A00",
"= c #001E00",
"- c #071B07",
"; c #071C07",
": c #002200",
"> c #002700",
", c #002800",
"< c #092309",
"1 c #0A290A",
"2 c #0A370A",
"3 c #0F3B0F",
"4 c #0F3D0F",
"5 c #0F450F",
"6 c #0F470F",
"7 c #165816",
"8 c #165A16",
"9 c #175B17",
"0 c #175C17",
"q c #185F18",
"w c #196319",
"e c #1A661A",
"r c #1B6A1B",
"t c #1E771E",
"y c #1F7A1F",
"u c #218521",
"i c #228822",
"p c #259625",
"a c #269926",
"s c #279A27",
"d c #279D27",
"f c #28A028",
"g c #29A429",
"h c #2AA72A",
"j c #31C231",
"k c #31C431",
"l c #36D636",
"z c #37DC37",
"x c #38DE38",
"c c #39E339",
"v c #39E439",
"b c #3BEA3B",
"n c #3BED3B",
"m c #3CEE3C",
"M c #3DF43D",
"N c #3EF83E",
"B c #3FFB3F",
"V c #40FE40",
"C c #40FF40",
/* pixels */
"                                                                                                                        ",
"                                                                                                                        ",
"         ####################                    eeeeeeeeeeeeeeeeeeee                     9qqqqqqqqqqqqqqqqqqw.         ",
"         ,,,,,,,,,,,,,,,,,,,,                    CCCCCCCCCCCCCCCCCCCC                     cMMMMMMMMMMMMMMMMMMM%         ",
"         ,,,,,,,,,,,,,,,,,,,,                    CCCCCCCCCCCCCCCCCCCC                     mCCCCCCCCCCCCCCCCCCC%         ",
"      #,,,,,,,,,,,,,,,,,,,,,,,>$              eCCCCCCCCCCCCCCCCCCCCCCCCa               9cmCCCCCCCCCCCCCCCCCCCCmmpO      ",
"      #,,,,,,,,,,,,,,,,,,,,,,>>$              eCCCCCCCCCCCCCCCCCCCCCCCCa               qMCCCCCCCCCCCCCCCCCCCCCCCd@      ",
"    ###**,,,,,,,,,,,,,,,,,,,,**$##          ##6aaCCCCCCCCCCCCCCCCCCCCaauee           9qtsdCCCCCCCCCCCCCCCCCCCCgdiwqo    ",
"    ,,*  ,,,,,,,,,,,,,,,,,,,,  #,,          ,,*  CCCCCCCCCCCCCCCCCCCC  eCC           cMd&omCCCCCCCCCCCCCCCCCCC;owbM%    ",
"    ,>$  ,,,,,,,,,,,,,,,,,,,,  #,,          ,,$  CCCCCCCCCCCCCCCCCCCC  eCC           nCfo mCCCCCCCCVCCCNCCCCCC% qMC%    ",
" #,,,,,,,                    ,,,,,,,$  . #,,,,,,,                    CCCCCCCa     9cnCCNmm<%&#%%@%%&%%%&%%%&%%xmMCCmmpO ",
" #,,,,,,,                    ,,,,,,,*  + #,,,,,,,                    CCCCCCCa     0MCCCCCC%                   mCCCCCCdO ",
" #,,,,,,,  .##  .###+o  ##o  ,,,,,,,*  + #,,,,,,,  .##  .####o  ##o  CCCCCCCa     0MCCCCCC% .+#  .#+++o  ++o  mCCCCCCfO ",
" #,,,,,,,  #,,  #,,,>*  ,,*  ,,,,,,,*  o #,,,,,,,  #,,  #,,,,*  ,,*  CCCCCCCa     wMCCCCCC% +>>  #>>>>$  >>*  mCCCCCCf@ ",
" #,,,,,,,  #,,  #,,,,*  ,>$  ,,,,,,,$  + #,,,,,,,  #,,  #,,,>*  ,,*  CCCCCCCa     wMCCCCCC% +>>  +>>,,*  >,*  mCCCCCCf@ ",
" #,,,,,,,  #,,,,,,,,>>,,,>*  ,,,,,,,$  + #,,,,,,,  #,,,,,,,,>,,,,>$  CCCCCCCa     0MCCCCCC% +>>>>>>>,,>:>>,*  mCCCCCCfO ",
" #,,,,,,,  #,,,,,,,,,,,,,,*  ,,,,,,,*  o #,,,,,,,  #,,,,,,,,,,,,,,*  CCCCCCCa     qMCCCCCC% +>,,>>,,,,,,,,,*  nCCCCCCfo ",
" #,,,,,,,  #,,,,,,,,,,,,,,$  ,,,,,,,$  + #,,,,,,,  #,,,,,,,,,,,,,,$  CCCCCCCa     qMCCCCCC% +>,,,>,,,,,,,,,*  nCCCCCCf+ ",
" #,,,,,,,  #,,,,,,,,,,,,,,*  ,,,,,,,$  + #,,,,,,,  #,,,,,,,,,,,,,,*  CCCCCCCa     qMCCCCCC% +>>,,,,,,,,,,,,*  nCCCCCCfO ",
" #,,,,,,,  #,,,,,,,,,,,,,>$  ,,,,,>>*  o #,,,,,,,  #,,,,,,,,,,,,,>$  CCCCCCCa     qMCCCCCC% +>>>,,,,,,,,,,,*. nCCCCCCf@ ",
" #,,,,,,,     ,,,,,,,,,,     ,,,,,,,$  + #,,,,,,,     ,,,,,,,,,,     CCCCCCCa     qMCCCCCC%  . >,,,,,,,,,..   nCCCCCCfO ",
" #,,,,,,,     ,,,,,,,,,,     ,,,,,,,*  + #,,,,,,,     ,,,,,,,,,,     CCCCCCCa     qMCCCCCC%    >,,,,,,,,,     nCCCCCCf@ ",
" #,,,,,,,     ,,,,,,,,,,     ,,,,,,,$  + #,,,,,,,     ,,,,,,,,,,     CCCCCCCa     qMCCCCCC%    >,,,,,,,,,.    nCCCCCCfO ",
" #,,,,,,,     ,,,,,,,,,,     ,,,,,,,*  + #,,,,,,,     ,,,,,,,,,,     CCCCCCCa     qMCCCCCV&    :,,,,,,,,,     nCCCCCCf@ ",
" #,,,,,,,     ,,,,,,,,,,     ,,,,,,,*  + #,,,,,,,     ,,,,,,,,,,     CCCCCCCa     qMCCCCCC%    >,,,,,,,,,     nCCCCCCfO ",
" #,,,,,,,  #,,,,,,,,,,,,,,*  ,,,,,,,$  + #,,,,,,,  #,,,,,,,,,,,,,,*  CCCCCCCa     qMCCCCCC% +>>,,,,,,,,,,>>$. nCCCCCCf@ ",
" #,,,,,,,  #,,,,,,,,,,,,,>$  ,,,,,,,*  + #,,,,,,,  #,,,,,,,,,,,,,,*  CCCCCCCa     qMCCCCCC% +>>>,,,,,,,,,,>*  nCCCCCCfO ",
" #,,,,,,,  #,,,,,,,,,,,,,>*  ,,,,,,,$  o #,,,,,,,  #,,,,,,,,,,,,,>$  CCCCCCCa     qMCCCCCC& +>>>,,,,,,,,,>>*  nCCCCCCf@ ",
" #,,,,,,,  #,,,,,,,,,,,,,,$  ,,,,,,,*  + #,,,,,,,  #,,,,,,,,,,,,,,*  CCCCCCCa     qMCCCCCC% +>,,,,,,,,,,,,>*  nCCCCCCf@ ",
" #,,,,,,,  #,,,,,,,,,,,,,,*  ,,,,,,,$  + #,,,,,,,  #,,,,,,,,,,,,,,$  CCCCCCCa     qMCCCCCC% +>,>,,,,,,,,,,>*  nCCCCCCfO ",
" #,,,,,,,  #,,  #,,,,$  ,,*  ,,,,,,,*  + #,,,,,,,  #,,  #,,,>$  ,,*  CCCCCCCa     qMCCCCCC% +>,. #>,,,*. >>*  mCCCCCCfO ",
" #,,,,,,,  #,,  #,,,,*  ,,$  ,,,,,,>$  o #,,,,,,,  #,,  #,,,,*  ,>$  CCCCCCCa     qMCCCCCC% +>>. #>,,,*  >,*. nCCCCCCf@ ",
" #,,,,,,,  o$*  o*$*$+  $*#  ,,,,,,,*  + #,,,,,,,  o*$  o**$$+  *$+  CCCCCCCa     qMCCCCCC% o**  o****+  **+  mCCCCCCfO ",
" #,,,,,,,                    ,,,,,,,$  + #,,,,,,,                    CCCCCCCa     wMCCCCCC%                   mCCCCCCf@ ",
" #,,,,>>,                    ,,,,,,,*  + #,,,,,,,                    CCCCCCCa     qMCCCCCC%                   mCCCCCCf@ ",
"    ,,*  ,,,,,,,,,,,,,,,,,,,,  #,,     .    ,,*  CCCCCCCCCCCCCCCCCCCC  eCC        .%%mCg-%>>>>>>>>>>>>>>>>>:>>#&eCC<%O  ",
"    >,*  ,,,,,,,,,,,,,,,,,,,,  #>>          ,>*  CCCCCCCCCCCCCCCCCCCC  eCC           mCdO >>,,,,>,,,,,,,>,,,,,  qMC%    ",
"    $*$+#,,,,,,,,,,,,,,,,,,,,###**          *$2eeCCCCCCCCCCCCCCCCCCCCeeyaa           pfr%+>>,,,,>>,,,,,,>>,,,,##5pdO    ",
"      #,,,,,,,,,,,,,,,,,,,,,,,>$              eCCCCCCCCCCCCCCCCCCCCCCCCa             o+&>>,,,,,,,,,,,,,,,,,,,,>,=@@     ",
"      #,,,,,,,,,,,,,,,,,,,,,,,,*              eCCCCCCCCCCCCCCCCCCCCCCCCa               +>,,,,,,,,,,,,,,,,,,,,,,,*       ",
"    ,,*  ,,,,,,,,,,,,,,,,,,,,  #,,          CCa  CCCCCCCCCCCCCCCCCCCC  #,,           znp+ >,,,,,,,,,,,,,>,,,,,. qcm%    ",
"    ,,*  >,,,,>>,,>>,,,,,>,,,  #,,          CCa  CCCCCCCCCCCCCCCCCCCC  #,,           mCfo >,>>,,,,>>,,,,>>,,,,  qMC@    ",
" .##,,=+#*$***$***$*$**$*$$**##*,,##o    1eeCCjeeaaaaaaaaaaaaaaaaaaaa##*,,##o     <9qMCjew=*******************9wsMCrq3. ",
" #,,,,,>,                    >,,,,,,*  o eCCCCCCC                    ,,,,,>>*     9bMCCCMM% .      .    .     cMCCCMVsO ",
" #,,,,,,,                    ,,,,,,,*  + eCCCCCCC                    ,,,,,,,$     qMCCCCCC%                   mCCCCCVdO ",
" #,,,,,,,  #,,  #,,,,*  ,,*  ,,,,,,,*  o eCCCCCCC  #,,  #,,,,*  ,,*  ,,,,,,,*     qMCCCCCC% +>>. +>>>>*  :>$  bCCCCCVsO ",
" #,,,,,,,  #,,  #,,,>*  ,,*  ,,,,,,,$  + eCCCCCCC  #,,  #,,,>*  ,,*  ,,,,,,,$     qMCCCCCC% +>>  +>>,,*  >>*  mCCCCCCf@ ",
" #,,,,,,,  #,,##*,,,>=##,>$  ,,,,,,,$  + eCCCCCCC  #,,##*,,,>=##,>$  ,,,,,,,*     qMCCCCCC% +>>#+*>,,,=#+>>*. mCCCCCCfO ",
" #,,,,,,,  #,,,,,,,,,,,,,,*  ,,,,,,,*  o eCCCCCCC  #,,,,,,,,,,,,,,*  ,,,,,,,$     qMCCCCCC% +>>>>>,,,,>>>>>*  mCCCCCCf@ ",
" #,,,,,,,  #,,,,,,,,,,,,,,*  ,,,,,,,$  + eCCCCCCC  #,,,,,,,,,,,,,,$  ,,,,,,,*     qMCCCCCC% +>,,>>,,,,,,,>>*  mCCCCCCfO ",
" #,,,,,,,  #,,,,,,,,,,,,,>$  ,,,,,,,$  + eCCCCCCC  #,,,,,,,,,,,,,,*  ,,,,,,,$     qMCCCCCC% +>,,,,,,,,,,,,,*  nCCCCCCfO ",
" #,,,,,,,  #,,,,,,,,,,,,,>*  ,,,,,>>*  o eCCCCCCC  #,,,,,,,,,,,,,>$  ,,,,,,,*     qMCCCCCC% +>>>,,,,,,,,,,,*  nCCCCCCf@ ",
" #,,,,,,,  o**>>,,,,,,,,*$+  ,,,,,,,$  + eCCCCCCC  o*$,,,,,,,,,,*$+  ,,,,,,,*     qMCCCCCC% +$*>,,,,,,,,>**#  MNCCCCCfO ",
" #,,,,,,,     ,,,,,,,,,,     ,,,,,,,*  + eCCCCCCC     ,,,,,,,,,,     ,,,,,,,*     qMCCCCCC%    >,,,,,,,,,.    MCCCCCCf@ ",
" #,,,,,,,     ,,,,,,,,,,     ,,,,,,,$  + eCCCCCCC     ,,,,,,,,,,     ,,,,,,,$     qMCCCCCC%    >,,,,,,,,,     nNCCCCCf@ ",
" #,,,,,,,     ,,,,,,,,,,     ,,,,,,,*  + eCCCCCCC     ,,,,,,,,,,     ,,,,,,,$     qMCCCCCV&    :,,,,,,,,,.    MCCCCCCfO ",
" #,,,,,,,     ,,,,,,,,,,     ,,,,,,,*  + eCCCCCCC     ,,,,,,,,,,     ,,,,,,,*     qMCCCCCC%    >,,,,,,,,,     nCCCCCCf@ ",
" #,,,,,,,  .##,,,,,,,,,,##o  ,,,,,,,$  + eCCCCCCC  .##,,,,,,,,,,##o  ,,,,,,,$     qMCCCCCC% .++>,,,,,,,,,#+o  nCCCCCCfO ",
" #,,,,,,,  #,,,,,,,,,,,,,,$  ,,,,,,,*  + eCCCCCCC  #,,,,,,,,,,,,,,*  ,,,,,,,$     qMCCCCCC% +>>>,,,,,,,,,,>*  nCCCCCCfO ",
" #,,,,,,,  #,,,,,,,,,,,,,,*  ,,,,,,,$  o eCCCCCCC  #,,,,,,,,,,,,,>$  ,,,,,>>*     qMCCCCCN& +>>>,,,,,,,,,,,*  nCCCCCCf@ ",
" #,,,,,,,  #,,,,,,,,,,,,,,*  ,,,,,,,*  + eCCCCCCC  #,,,,,,,,,,,,,,*  ,,,,,,,$     qMCCCCCC% +>,,,,,,,,,,,,,*. nCCCCCCfO ",
" #,,,,,,,  #,,,,,,,,,,,>,,*  ,,,,,,,$  + eCCCCCCC  #,,,,,,,,,,,,,,$  ,,,,,,,*     qMCCCCCC% +>,,,,,,,,,,,,,*  nCCCCCCf@ ",
" #,,,,,,,  #,,*$=,,,,:*$,>$  ,,,,,,,*  + eCCCCCCC  #,,$*=,,,>:*$,,*  ,,,,,,,$     qMCCCCCC% +>,**=>,,,>**>,*  nCCCCCCf@ ",
" #,,,,,,,  #,,  #,,>>*  ,>*  ,,,,,,>$  o eCCCCCCC  #,,  #,,,>*  ,>$  ,,,,,,,*     qMCCCCCC% +>>. +>,,>*  >,*  nCCCCCCfO ",
" #,,,,,,,  #,,  #,,,,*  ,,*  ,,,,,,,*  + eCCCCCCC  #,,  #,,,,*  ,,*  ,,,,,,,*     qMCCCCCC% #>>  #>>,,*  >>*  mCCCCCCfO ",
" #,,,,,,,                    ,,,,,,,*  + eCCCCCCC                    ,,,,,,,*     qMCCCCCC%  ..    ..    .    mCCCCCCf@ ",
" #,>,>,,>                    >,,,,>>$  + eCCCCCCC                    >,,,,>>$     qMCCCCCC%                   mCCCCCCdO ",
" o*$,>:**####################$*=>>**+  o 4aaCClaaeeeeeeeeeeeeeeeeeeee$*=>>**+     3afMCxgfeqqqqqqqqqqqqqqqqwqqdfkNCgfeo ",
"    ,,*  ,,,,,,,,,,,,,,,,,,,,  #,,     .    CCa  CCCCCCCCCCCCCCCCCCCC  #,,        .oOmCg&ocMMMMMMMMMMMMMMMMMMM-oeMC;OO  ",
"    ,,*  ,,,,,,,,,,,,,,,,,,,,  #,,          CCa  CCCCCCCCCCCCCCCCCCCC  #,,           mCf@ mCCCCCCCCCCCCCCCCCCC% wMC%    ",
"      +>,,,,,,,,,,,,,,,,,,,,,,,*              eCCCCCCCCCCCCCCCCCCCCCCCCa             %%wvmCCCCCCCCCCCCCCCCCCCCmms-%     ",
"      #,,,,,,,,,,,,,,,,,,,,,,,>$              eCCCCCCCCCCCCCCCCCCCCCCCCa               qMCCCCCCCCCCCCCCCCCCCCCCCfO      ",
"      o*$,,,,,,,,,,,,,,,,,,,,*$+              4aaCCCCCCCCCCCCCCCCCCCCaa0               3adNCCCCCCCCCCCCCCCCCCCgfe.      ",
"         ,,,,,,,,,,,,,,,,,,,,                    CCCCCCCCCCCCCCCCCCCC                  .O@mCCCCCCCCCCCCCCCCCCC;@.       ",
"         ,,,,,,,,,,,,,,,,,,,,                    CCCCCCCCCCCCCCCCCCCC                     mCCCCCCCCCCCCCCCCCCC%         ",
"                                                                                          %%%%%%%%%%%%%%%%&%%%          ",
"                                                                                                                        "
};
