/* XPM */
static char *_01719337536[] = {
/* columns rows colors chars-per-pixel */
"120 77 56 1 ",
"  c black",
". c #000600",
"X c #020702",
"o c #000A00",
"O c #030A03",
"+ c #000F00",
"@ c #030C03",
"# c #001000",
"$ c #001700",
"% c #041104",
"& c #051505",
"* c #001A00",
"= c #001E00",
"- c #071B07",
"; c #071C07",
": c #002200",
"> c #002700",
", c #002800",
"< c #092309",
"1 c #0A370A",
"2 c #0F3B0F",
"3 c #0F3D0F",
"4 c #0F450F",
"5 c #165816",
"6 c #165A16",
"7 c #175B17",
"8 c #175C17",
"9 c #185F18",
"0 c #196319",
"q c #1A661A",
"w c #1B6A1B",
"e c #1E771E",
"r c #1F7A1F",
"t c #218521",
"y c #228822",
"u c #259625",
"i c #269926",
"p c #279A27",
"a c #279D27",
"s c #28A028",
"d c #29A429",
"f c #2AA72A",
"g c #31C231",
"h c #31C431",
"j c #37DC37",
"k c #38DE38",
"l c #39E339",
"z c #39E439",
"x c #3BEA3B",
"c c #3BED3B",
"v c #3CEE3C",
"b c #3DF43D",
"n c #3EF83E",
"m c #3FFB3F",
"M c #40FE40",
"N c #40FF40",
/* pixels */
"                                                                                                                        ",
"                                                 qqqqqqqqqqqqqqqqqqqq                                                   ",
"         ####################                    NNNNNNNNNNNNNNNNNNNN                     79999999999999999990.         ",
"         ,,,,,,,,,,,,,,,,,,,,                    NNNNNNNNNNNNNNNNNNNN                     lbbbbbbbbbbbbbbbbbbb%         ",
"         ,,,,,,,,,,,,,,,,,,,,                 qNNNNNNNNNNNNNNNNNNNNNNNNi                  vNNNNNNNNNNNNNNNNNNN%         ",
"      #,,,,,,,,,,,,,,,,,,,,,,,>$              qNNNNNNNNNNNNNNNNNNNNNNNNi               7lvNNNNNNNNNNNNNNNNNNNNvvuO      ",
"      #,,,,,,,,,,,,,,,,,,,,,,>>$            ##4iiNNNNNNNNNNNNNNNNNNNNiitqq             9bNNNNNNNNNNNNNNNNNNNNNNNa@      ",
"    ###**,,,,,,,,,,,,,,,,,,,,**$##          ,,*  NNNNNNNNNNNNNNNNNNNN  qNN           79epaNNNNNNNNNNNNNNNNNNNNday09o    ",
"    ,,*  ,,,,,,,,,,,,,,,,,,,,  #,,          ,,*  NNNNNNNNNNNNNNNNNNNN  qNN           lba&ovNNNNNNNNNNNNNNNNNNN;o0xb%    ",
"    ,>$  ,,,,,,,,,,,,,,,,,,,,  #,,       #,,,,>>,                    NNNNNNNi        cNso vNNNNNNNNMNNNnNNNNNN% 9bN%    ",
" #,,,,,,,                    ,,,,,,,$  . #,,,,,,,                    NNNNNNNi     7lcNNnvv<%&#%%@%%&%%%&%%%&%%kvbNNvvuO ",
" #,,,,,,,                    ,,,,,,,*  + #,,,,,,,  .##  .####o  ##o  NNNNNNNi     8bNNNNNN%                   vNNNNNNaO ",
" #,,,,,,,  .##  .###+o  ##o  ,,,,,,,*  + #,,,,,,,  #,,  #,,,,$  ,,*  NNNNNNNi     8bNNNNNN% .+#  .#+++o  ++o  vNNNNNNsO ",
" #,,,,,,,  #,,  #,,,>*  ,,*  ,,,,,,,*  o #,,,,,,,  #,,  #,,,,*  ,,$  NNNNNNNi     0bNNNNNN% +>>  #>>>>$  >>*  vNNNNNNs@ ",
" #,,,,,,,  #,,  #,,,,*  ,>$  ,,,,,,,$  + #,,,,,,,  #,,,,,,,,,,,,,,*  NNNNNNNi     0bNNNNNN% +>>  +>>,,*  >,*  vNNNNNNs@ ",
" #,,,,,,,  #,,,,,,,,>>,,,>*  ,,,,,,,$  + #,,,,,,,  #,,,,,,,,,,,,,>$  NNNNNNNi     8bNNNNNN% +>>>>>>>,,>:>>,*  vNNNNNNsO ",
" #,,,,,,,  #,,,,,,,,,,,,,,*  ,,,,,,,*  o #,,,,,,,  #,,,,,,,,,,,,,,*  NNNNNNNi     9bNNNNNN% +>,,>>,,,,,,,,,*  cNNNNNNso ",
" #,,,,,,,  #,,,,,,,,,,,,,,$  ,,,,,,,$  + #,,,,,,,  #,,,,,,,,,,,,,,$  NNNNNNNi     9bNNNNNN% +>,,,>,,,,,,,,,*  cNNNNNNs+ ",
" #,,,,,,,  #,,,,,,,,,,,,,,*  ,,,,,,,$  + #,,,,,,,  #,,,,,,,,,,,,,,*  NNNNNNNi     9bNNNNNN% +>>,,,,,,,,,,,,*  cNNNNNNsO ",
" #,,,,,,,  #,,,,,,,,,,,,,>$  ,,,,,>>*  o #,,,,,,,     ,,,,,,,,,,     NNNNNNNi     9bNNNNNN% +>>>,,,,,,,,,,,*. cNNNNNNs@ ",
" #,,,,,,,     ,,,,,,,,,,     ,,,,,,,$  + #,,,,,,,     ,,,,,,,,,,     NNNNNNNi     9bNNNNNN%  . >,,,,,,,,,..   cNNNNNNsO ",
" #,,,,,,,     ,,,,,,,,,,     ,,,,,,,*  + #,,,,,,,     ,,,,,,,,,,     NNNNNNNi     9bNNNNNN%    >,,,,,,,,,     cNNNNNNs@ ",
" #,,,,,,,     ,,,,,,,,,,     ,,,,,,,$  + #,,,,,,,     ,,,,,,,,,,     NNNNNNNi     9bNNNNNN%    >,,,,,,,,,.    cNNNNNNsO ",
" #,,,,,,,     ,,,,,,,,,,     ,,,,,,,*  + #,,,,,,,     ,,,,,,,,,,     NNNNNNNi     9bNNNNNM&    :,,,,,,,,,     cNNNNNNs@ ",
" #,,,,,,,     ,,,,,,,,,,     ,,,,,,,*  + #,,,,,,,  #,,,,,,,,,,,,,,*  NNNNNNNi     9bNNNNNN%    >,,,,,,,,,     cNNNNNNsO ",
" #,,,,,,,  #,,,,,,,,,,,,,,*  ,,,,,,,$  + #,,,,,,,  #,,,,,,,,,,,,,,$  NNNNNNNi     9bNNNNNN% +>>,,,,,,,,,,>>$. cNNNNNNs@ ",
" #,,,,,,,  #,,,,,,,,,,,,,>$  ,,,,,,,*  + #,,,,,,,  #,,,,,,,,,,,,,,*  NNNNNNNi     9bNNNNNN% +>>>,,,,,,,,,,>*  cNNNNNNsO ",
" #,,,,,,,  #,,,,,,,,,,,,,>*  ,,,,,,,$  o #,,,,,,,  #,,,,,,,,,,,,,>$  NNNNNNNi     9bNNNNNN& +>>>,,,,,,,,,>>*  cNNNNNNs@ ",
" #,,,,,,,  #,,,,,,,,,,,,,,$  ,,,,,,,*  + #,,,,,,,  #,,,,,,,,,>>,,,*  NNNNNNNi     9bNNNNNN% +>,,,,,,,,,,,,>*  cNNNNNNs@ ",
" #,,,,,,,  #,,,,,,,,,,,,,,*  ,,,,,,,$  + #,,,,,,,  #,,  #,,,,*  ,,$  NNNNNNNi     9bNNNNNN% +>,>,,,,,,,,,,>*  cNNNNNNsO ",
" #,,,,,,,  #,,  #,,,,$  ,,*  ,,,,,,,*  + #,,,,,,,  #>,  #,,,,$  >,*  NNNNNNNi     9bNNNNNN% +>,. #>,,,*. >>*  vNNNNNNsO ",
" #,,,,,,,  #,,  #,,,,*  ,,$  ,,,,,,>$  o #,,,,,,,  o$*  o*$$*+  $$+  NNNNNNNi     9bNNNNNN% +>>. #>,,,*  >,*. cNNNNNNs@ ",
" #,,,,,,,  o$*  o*$*$+  $*#  ,,,,,,,*  + #,,,,,,,                    NNNNNNNi     9bNNNNNN% o**  o****+  **+  vNNNNNNsO ",
" #,,,,,,,                    ,,,,,,,$  + #,,,,,,,                    NNNNNNNi     0bNNNNNN%                   vNNNNNNs@ ",
" #,,,,>>,                    ,,,,,,,*  +    ,,*  NNNNNNNNNNNNNNNNNNNN  qNN        9bNNNNNN%                   vNNNNNNs@ ",
"    ,,*  ,,,,,,,,,,,,,,,,,,,,  #,,     .    ,,$  NNNNNNNNNNNNNNNNNNNN  qNN        .%%vNd-%>>>>>>>>>>>>>>>>>:>>#&qNN<%O  ",
"    >,*  ,,,,,,,,,,,,,,,,,,,,  #>>          *$1qqNNNNNNNNNNNNNNNNNNNNqqrii           vNaO >>,,,,>,,,,,,,>,,,,,  9bN%    ",
"    $*$+#,,,,,,,,,,,,,,,,,,,,###**            qNNNNNNNNNNNNNNNNNNNNNNNNi             usw%+>>,,,,>>,,,,,,>>,,,,##4uaO    ",
"      #,,,,,,,,,,,,,,,,,,,,,,,>$              qNNNNNNNNNNNNNNNNNNNNNNNNi             o+&>>,,,,,,,,,,,,,,,,,,,,>,=@@     ",
"      #,,,,,,,,,,,,,,,,,,,,,,,,*            ,,*  NNNNNNNNNNNNNNNNNNNN  qNN             +>,,,,,,,,,,,,,,,,,,,,,,,*       ",
"    ,,*  ,,,,,,,,,,,,,,,,,,,,  #,,          ,,*  NNNNNNNNNNNNNNNNNNNN  qNN           jcu+ >,,,,,,,,,,,,,>,,,,,. 9lv%    ",
"    ,,*  >,,,,>>,,>>,,,,,>,,,  #,,       .##,,=+#iiiiiiiiiiiiiiiiiiiiqwsNNqq3        vNso >,>>,,,,>>,,,,>>,,,,  9bN@    ",
" .##,,=+#*$***$***$*$**$*$$**##*,,##o    #,,,,,,,                    NNNNNNNi     <79bNgq0=*******************70pbNw92. ",
" #,,,,,>,                    >,,,,,,*  o #,,,,,,,                    NNNNNNNi     7xbNNNbb% .      .    .     lbNNNbMpO ",
" #,,,,,,,                    ,,,,,,,*  + #,,,,,,,  #,,  #,,,,$  ,,*  NNNNNNNi     9bNNNNNN%                   vNNNNNMaO ",
" #,,,,,,,  #,,  #,,,,*  ,,*  ,,,,,,,*  o #,,,,,,,  #,,  #,,,,*  ,,$  NNNNNNNi     9bNNNNNN% +>>. +>>>>*  :>$  xNNNNNMpO ",
" #,,,,,,,  #,,  #,,,>*  ,,*  ,,,,,,,$  + #,,,,,,,  #,,##*,,,,=##,,*  NNNNNNNi     9bNNNNNN% +>>  +>>,,*  >>*  vNNNNNNs@ ",
" #,,,,,,,  #,,##*,,,>=##,>$  ,,,,,,,$  + #,,,,,,,  #,,,,,,,,,,,,,>$  NNNNNNNi     9bNNNNNN% +>>#+*>,,,=#+>>*. vNNNNNNsO ",
" #,,,,,,,  #,,,,,,,,,,,,,,*  ,,,,,,,*  o #,,,,,,,  #,,,,,,,,,,,,,,*  NNNNNNNi     9bNNNNNN% +>>>>>,,,,>>>>>*  vNNNNNNs@ ",
" #,,,,,,,  #,,,,,,,,,,,,,,*  ,,,,,,,$  + #,,,,,,,  #,,,,,,,,,,,,,,$  NNNNNNNi     9bNNNNNN% +>,,>>,,,,,,,>>*  vNNNNNNsO ",
" #,,,,,,,  #,,,,,,,,,,,,,>$  ,,,,,,,$  + #,,,,,,,  #>,,,,,,,,,,,>,*  NNNNNNNi     9bNNNNNN% +>,,,,,,,,,,,,,*  cNNNNNNsO ",
" #,,,,,,,  #,,,,,,,,,,,,,>*  ,,,,,>>*  o #,,,,,,,  o$*,,,,,,,,,,$$+  NNNNNNNi     9bNNNNNN% +>>>,,,,,,,,,,,*  cNNNNNNs@ ",
" #,,,,,,,  o**>>,,,,,,,,*$+  ,,,,,,,$  + #,,,,,,,     ,,,,,,,,,,     NNNNNNNi     9bNNNNNN% +$*>,,,,,,,,>**#  bnNNNNNsO ",
" #,,,,,,,     ,,,,,,,,,,     ,,,,,,,*  + #,,,,,,,     ,,,,,,,,,,     NNNNNNNi     9bNNNNNN%    >,,,,,,,,,.    bNNNNNNs@ ",
" #,,,,,,,     ,,,,,,,,,,     ,,,,,,,$  + #,,,,,,,     ,,,,,,,,,,     NNNNNNNi     9bNNNNNN%    >,,,,,,,,,     cnNNNNNs@ ",
" #,,,,,,,     ,,,,,,,,,,     ,,,,,,,*  + #,,,,,,,     ,,,,,,,,,,     NNNNNNNi     9bNNNNNM&    :,,,,,,,,,.    bNNNNNNsO ",
" #,,,,,,,     ,,,,,,,,,,     ,,,,,,,*  + #,,,,,,,  .##,,,,,,,,,,##o  NNNNNNNi     9bNNNNNN%    >,,,,,,,,,     cNNNNNNs@ ",
" #,,,,,,,  .##,,,,,,,,,,##o  ,,,,,,,$  + #,,,,,,,  #,,,,,,,,,,,,,,*  NNNNNNNi     9bNNNNNN% .++>,,,,,,,,,#+o  cNNNNNNsO ",
" #,,,,,,,  #,,,,,,,,,,,,,,$  ,,,,,,,*  + #,,,,,,,  #,,,,,,,,,,,,,,*  NNNNNNNi     9bNNNNNN% +>>>,,,,,,,,,,>*  cNNNNNNsO ",
" #,,,,,,,  #,,,,,,,,,,,,,,*  ,,,,,,,$  o #,,,,,,,  #,,,,,,,,,,,,,>$  NNNNNNNi     9bNNNNNn& +>>>,,,,,,,,,,,*  cNNNNNNs@ ",
" #,,,,,,,  #,,,,,,,,,,,,,,*  ,,,,,,,*  + #,,,,,,,  #,,,>,,,,,,,,,,*  NNNNNNNi     9bNNNNNN% +>,,,,,,,,,,,,,*. cNNNNNNsO ",
" #,,,,,,,  #,,,,,,,,,,,>,,*  ,,,,,,,$  + #,,,,,,,  #,,*$=,,,,:$*,,$  NNNNNNNi     9bNNNNNN% +>,,,,,,,,,,,,,*  cNNNNNNs@ ",
" #,,,,,,,  #,,*$=,,,,:*$,>$  ,,,,,,,*  + #,,,,,,,  #,,  #,,,>$  ,,*  NNNNNNNi     9bNNNNNN% +>,**=>,,,>**>,*  cNNNNNNs@ ",
" #,,,,,,,  #,,  #,,>>*  ,>*  ,,,,,,>$  o #,,,,,,,  #,,  #,,,,*  ,>$  NNNNNNNi     9bNNNNNN% +>>. +>,,>*  >,*  cNNNNNNsO ",
" #,,,,,,,  #,,  #,,,,*  ,,*  ,,,,,,,*  + #,,,,,,,                    NNNNNNNi     9bNNNNNN% #>>  #>>,,*  >>*  vNNNNNNsO ",
" #,,,,,,,                    ,,,,,,,*  + #,,,,,,,                    NNNNNNNi     9bNNNNNN%  ..    ..    .    vNNNNNNs@ ",
" #,>,>,,>                    >,,,,>>$  + o*$,,:**qqqqqqqqqqqqqqqqqqqqiigNNii8     9bNNNNNN%                   vNNNNNNaO ",
" o*$,>:**####################$*=>>**+  o    ,>$  NNNNNNNNNNNNNNNNNNNN  qNN        2isbNkdsq9999999999999999099ashnNdsqo ",
"    ,,*  ,,,,,,,,,,,,,,,,,,,,  #,,     .    ,,*  NNNNNNNNNNNNNNNNNNNN  qNN        .oOvNd&olbbbbbbbbbbbbbbbbbbb-oqbN;OO  ",
"    ,,*  ,,,,,,,,,,,,,,,,,,,,  #,,            qNNNNNNNNNNNNNNNNNNNNNNNNi             vNs@ vNNNNNNNNNNNNNNNNNNN% 0bN%    ",
"      +>,,,,,,,,,,,,,,,,,,,,,,,*              qNNNNNNNNNNNNNNNNNNNNNNNNi             %%0zvNNNNNNNNNNNNNNNNNNNNvvp-%     ",
"      #,,,,,,,,,,,,,,,,,,,,,,,>$              3iiNNNNNNNNNNNNNNNNNNNNii8               9bNNNNNNNNNNNNNNNNNNNNNNNsO      ",
"      o*$,,,,,,,,,,,,,,,,,,,,*$+                 NNNNNNNNNNNNNNNNNNNN                  2ianNNNNNNNNNNNNNNNNNNNdsq.      ",
"         ,,,,,,,,,,,,,,,,,,,,                    NNNNNNNNNNNNNNNNNNNN                  .O@vNNNNNNNNNNNNNNNNNNN;@.       ",
"         ,,,,,,,,,,,,,,,,,,,,                                                             vNNNNNNNNNNNNNNNNNNN%         ",
"                                                                                          %%%%%%%%%%%%%%%%&%%%          ",
"                                                                                                                        "
};
