/* XPM */
static char *_01719337536[] = {
/* columns rows colors chars-per-pixel */
"120 77 57 1 ",
"  c black",
". c #000600",
"X c #020702",
"o c #000A00",
"O c #030A03",
"+ c #000F00",
"@ c #030C03",
"# c #001000",
"$ c #001700",
"% c #041104",
"& c #051505",
"* c #001A00",
"= c #001E00",
"- c #071B07",
"; c #071C07",
": c #002200",
"> c #002700",
", c #002800",
"< c #092309",
"1 c #0A370A",
"2 c #0F3B0F",
"3 c #0F3D0F",
"4 c #0F450F",
"5 c #0F470F",
"6 c #165816",
"7 c #165A16",
"8 c #175B17",
"9 c #175C17",
"0 c #185F18",
"q c #196319",
"w c #1A661A",
"e c #1B6A1B",
"r c #1E771E",
"t c #1F7A1F",
"y c #218521",
"u c #228822",
"i c #259625",
"p c #269926",
"a c #279A27",
"s c #279D27",
"d c #28A028",
"f c #29A429",
"g c #2AA72A",
"h c #31C231",
"j c #31C431",
"k c #37DC37",
"l c #38DE38",
"z c #39E339",
"x c #39E439",
"c c #3BEA3B",
"v c #3BED3B",
"b c #3CEE3C",
"n c #3DF43D",
"m c #3EF83E",
"M c #3FFB3F",
"N c #40FE40",
"B c #40FF40",
/* pixels */
"                                                                                                                        ",
"                                                  ####################                                                  ",
"         ####################                     ,,,,,,,,,,,,,,,,,,,,                    8000000000000000000q.         ",
"         ,,,,,,,,,,,,,,,,,,,,                     ,,,,,,,,,,,,,,,,,,,,                    znnnnnnnnnnnnnnnnnnn%         ",
"         ,,,,,,,,,,,,,,,,,,,,                  #,,,,,,,,,,,,,,,,,,,,,,,,*                 bBBBBBBBBBBBBBBBBBBB%         ",
"      #,,,,,,,,,,,,,,,,,,,,,,,>$               #,,,,,,,,,,,,,,,,,,,,,,,>*              7zbBBBBBBBBBBBBBBBBBBBBbbiO      ",
"      #,,,,,,,,,,,,,,,,,,,,,,>>$             ww5**>,,,,,,,,,,,,,,,,,,,*$1ww            0nBBBBBBBBBBBBBBBBBBBBBBBs@      ",
"    ###**,,,,,,,,,,,,,,,,,,,,**$##           BBp  >,,,,,,,,,,,,,,,,,,,  wBB          70rasBBBBBBBBBBBBBBBBBBBBfsuq0o    ",
"    ,,*  ,,,,,,,,,,,,,,,,,,,,  #,,           BBp  ,,,,,,,,,,,,,,,,,,,,  wBB          zns&obBBBBBBBBBBBBBBBBBBB;oqcn%    ",
"    ,>$  ,,,,,,,,,,,,,,,,,,,,  #,,        wBBBBBBB                    BBBBBBBp       vBdo bBBBBBBBBNBBBmBBBBBB% 0nB%    ",
" #,,,,,,,                    ,,,,,,,$  .  wBBBBBBB                    BBBBBBBp    7zbBBmbb<%&#%%@%%&%%%&%%%&%%lbnBBbbiO ",
" #,,,,,,,                    ,,,,,,,*  +  wBBBBBBB  .##  .####o  ##o  BBBBBBBp    0nBBBBBB%                   bBBBBBBsO ",
" #,,,,,,,  .##  .###+o  ##o  ,,,,,,,*  +  wBBBBBBB  #,,  #,,,,*  ,,$  BBBBBBBp    0nBBBBBB% .+#  .#+++o  ++o  bBBBBBBdO ",
" #,,,,,,,  #,,  #,,,>*  ,,*  ,,,,,,,*  o  wBBBBBBB  #,,  #,,,,*  ,,*  BBBBBBBp    0nBBBBBB% +>>  #>>>>$  >>*  bBBBBBBd@ ",
" #,,,,,,,  #,,  #,,,,*  ,>$  ,,,,,,,$  +  wBBBBBBB  #,,,,,,,,,>>,,>$  BBBBBBBp    0nBBBBBB% +>>  +>>,,*  >,*  bBBBBBBd@ ",
" #,,,,,,,  #,,,,,,,,>>,,,>*  ,,,,,,,$  +  wBBBBBBB  #,,,,,,,,,,,,,,*  BBBBBBBp    0nBBBBBB% +>>>>>>>,,>:>>,*  bBBBBBBdO ",
" #,,,,,,,  #,,,,,,,,,,,,,,*  ,,,,,,,*  o  wBBBBBBB  #,,,,,,,,,,,,,,$  BBBBBBBp    0nBBBBBB% +>,,>>,,,,,,,,,*  vBBBBBBdo ",
" #,,,,,,,  #,,,,,,,,,,,,,,$  ,,,,,,,$  +  wBBBBBBB  #,,,,,,,,,,,,,,*  BBBBBBBp    0nBBBBBB% +>,,,>,,,,,,,,,*  vBBBBBBd+ ",
" #,,,,,,,  #,,,,,,,,,,,,,,*  ,,,,,,,$  +  wBBBBBBB  #,,,,,,,,,,,,,>*  BBBBBBBp    0nBBBBBB% +>>,,,,,,,,,,,,*  vBBBBBBdO ",
" #,,,,,,,  #,,,,,,,,,,,,,>$  ,,,,,>>*  o  wBBBBBBB     ,,,,,,,,,,     BBBBBBBp    0nBBBBBB% +>>>,,,,,,,,,,,*. vBBBBBBd@ ",
" #,,,,,,,     ,,,,,,,,,,     ,,,,,,,$  +  wBBBBBBB     ,,,,,,,,,,     BBBBBBBp    0nBBBBBB%  . >,,,,,,,,,..   vBBBBBBdO ",
" #,,,,,,,     ,,,,,,,,,,     ,,,,,,,*  +  wBBBBBBB     ,,,,,,,,,,     BBBBBBBp    0nBBBBBB%    >,,,,,,,,,     vBBBBBBd@ ",
" #,,,,,,,     ,,,,,,,,,,     ,,,,,,,$  +  wBBBBBBB     ,,,,,,,,,,     BBBBBBBp    0nBBBBBB%    >,,,,,,,,,.    vBBBBBBdO ",
" #,,,,,,,     ,,,,,,,,,,     ,,,,,,,*  +  wBBBBBBB     ,,,,,,,,,,     BBBBBBBp    0nBBBBBN&    :,,,,,,,,,     vBBBBBBd@ ",
" #,,,,,,,     ,,,,,,,,,,     ,,,,,,,*  +  wBBBBBBB  #,,,,,,,,,,,,,,$  BBBBBBBp    0nBBBBBB%    >,,,,,,,,,     vBBBBBBdO ",
" #,,,,,,,  #,,,,,,,,,,,,,,*  ,,,,,,,$  +  wBBBBBBB  #,,,,,,,,,,,,,,*  BBBBBBBp    0nBBBBBB% +>>,,,,,,,,,,>>$. vBBBBBBd@ ",
" #,,,,,,,  #,,,,,,,,,,,,,>$  ,,,,,,,*  +  wBBBBBBB  #,,,,,,,,,,,,,>*  BBBBBBBp    0nBBBBBB% +>>>,,,,,,,,,,>*  vBBBBBBdO ",
" #,,,,,,,  #,,,,,,,,,,,,,>*  ,,,,,,,$  o  wBBBBBBB  #,,,,,,,,,,,,,>$  BBBBBBBp    0nBBBBBB& +>>>,,,,,,,,,>>*  vBBBBBBd@ ",
" #,,,,,,,  #,,,,,,,,,,,,,,$  ,,,,,,,*  +  wBBBBBBB  #,,,,,,,,,,,,,,$  BBBBBBBp    0nBBBBBB% +>,,,,,,,,,,,,>*  vBBBBBBd@ ",
" #,,,,,,,  #,,,,,,,,,,,,,,*  ,,,,,,,$  +  wBBBBBBB  #,,  #,,,,*  ,,*  BBBBBBBp    0nBBBBBB% +>,>,,,,,,,,,,>*  vBBBBBBdO ",
" #,,,,,,,  #,,  #,,,,$  ,,*  ,,,,,,,*  +  wBBBBBBB  +,,  #,,,,$  ,,$  BBBBBBBp    0nBBBBBB% +>,. #>,,,*. >>*  bBBBBBBdO ",
" #,,,,,,,  #,,  #,,,,*  ,,$  ,,,,,,>$  o  wBBBBBBB  o$*  o$$*$+  $*+  BBBBBBBp    0nBBBBBB% +>>. #>,,,*  >,*. vBBBBBBd@ ",
" #,,,,,,,  o$*  o*$*$+  $*#  ,,,,,,,*  +  wBBBBBBB                    BBBBBBBp    0nBBBBBB% o**  o****+  **+  bBBBBBBdO ",
" #,,,,,,,                    ,,,,,,,$  +  wBBBBBBB                    BBBBBBBp    qnBBBBBB%                   bBBBBBBd@ ",
" #,,,,>>,                    ,,,,,,,*  +     BBp  BBBBBBBBBBBBBBBBBBBB  wBB       0nBBBBBB%                   bBBBBBBd@ ",
"    ,,*  ,,,,,,,,,,,,,,,,,,,,  #,,     .     BBp  BBBBBBBBBBBBBBBBBBBB  wBB       .%%bBf-%>>>>>>>>>>>>>>>>>:>>#&wBB<%O  ",
"    >,*  ,,,,,,,,,,,,,,,,,,,,  #>>           ppywwBBBBBBBBBBBBBBBBBBBBwwtpp          bBsO >>,,,,>,,,,,,,>,,,,,  0nB%    ",
"    $*$+#,,,,,,,,,,,,,,,,,,,,###**             wBBBBBBBBBBBBBBBBBBBBBBBBp            ide%+>>,,,,>>,,,,,,>>,,,,##4isO    ",
"      #,,,,,,,,,,,,,,,,,,,,,,,>$               wBBBBBBBBBBBBBBBBBBBBBBBBp            O+$>>,,,,,,,,,,,,,,,,,,,,>,=@@     ",
"      #,,,,,,,,,,,,,,,,,,,,,,,,*             ,>$  BBBBBBBBBBBBBBBBBBBB  wBB            +>,,,,,,,,,,,,,,,,,,,,,,,*       ",
"    ,,*  ,,,,,,,,,,,,,,,,,,,,  #,,           ,,*  BBBBBBBBBBBBBBBBBBBB  wBB          lbi+ >,,,,,,,,,,,,,>,,,,,. 0zb%    ",
"    ,,*  >,,,,>>,,>>,,,,,>,,,  #,,        .##,,=##ppppppppppppppppppppwwdBBww3       bBsO >,>>,,,,>>,,,,>>,,,,  0nB@    ",
" .##,,=+#*$***$***$*$**$*$$**##*,,##o     #,,,,,,,                    BBBBBBBp    <80nBhwq=*******************8qanBe02. ",
" #,,,,,>,                    >,,,,,,*  o  #,,,,,,,                    BBBBBBBp    8cnBBBnn% .      .    .     znBBBnNaO ",
" #,,,,,,,                    ,,,,,,,*  +  #,,,,,,,  #,,  #,,,,*  ,,$  BBBBBBBp    0nBBBBBB%                   bBBBBBNsO ",
" #,,,,,,,  #,,  #,,,,*  ,,*  ,,,,,,,*  o  #,,,,,,,  #,,  #,,,,*  ,,*  BBBBBBBp    0nBBBBBB% +>>. +>>>>*  :>$  cBBBBBNaO ",
" #,,,,,,,  #,,  #,,,>*  ,,*  ,,,,,,,$  +  #,,,,,,,  #,,##*,,,,=+#,>$  BBBBBBBp    0nBBBBBB% +>>  +>>,,*  >>*  bBBBBBBd@ ",
" #,,,,,,,  #,,##*,,,>=##,>$  ,,,,,,,$  +  #,,,,,,,  #,,,,,,,,,,>,,,*  BBBBBBBp    0nBBBBBB% +>>#+*>,,,=#+>>*. bBBBBBBdO ",
" #,,,,,,,  #,,,,,,,,,,,,,,*  ,,,,,,,*  o  #,,,,,,,  #,,,,,,,,,,,,,,$  BBBBBBBp    0nBBBBBB% +>>>>>,,,,>>>>>*  bBBBBBBd@ ",
" #,,,,,,,  #,,,,,,,,,,,,,,*  ,,,,,,,$  +  #,,,,,,,  #,,,,,,,,,,,,,,*  BBBBBBBp    0nBBBBBB% +>,,>>,,,,,,,>>*  bBBBBBBdO ",
" #,,,,,,,  #,,,,,,,,,,,,,>$  ,,,,,,,$  +  #,,,,,,,  +,,,,,,,,,,,,,,$  BBBBBBBp    0nBBBBBB% +>,,,,,,,,,,,,,*  vBBBBBBdO ",
" #,,,,,,,  #,,,,,,,,,,,,,>*  ,,,,,>>*  o  #,,,,,,,  o$*,,,,,,,,,>$*+  BBBBBBBp    0nBBBBBB% +>>>,,,,,,,,,,,*  vBBBBBBd@ ",
" #,,,,,,,  o**>>,,,,,,,,*$+  ,,,,,,,$  +  #,,,,,,,     ,,,,,,,,,,     BBBBBBBp    0nBBBBBB% +$*>,,,,,,,,>**#  nmBBBBBdO ",
" #,,,,,,,     ,,,,,,,,,,     ,,,,,,,*  +  #,,,,,,,     ,,,,,,,,,,     BBBBBBBp    0nBBBBBB%    >,,,,,,,,,.    nBBBBBBd@ ",
" #,,,,,,,     ,,,,,,,,,,     ,,,,,,,$  +  #,,,,,,,     ,,,,,,,,,,     BBBBBBBp    0nBBBBBB%    >,,,,,,,,,     vmBBBBBd@ ",
" #,,,,,,,     ,,,,,,,,,,     ,,,,,,,*  +  #,,,,,,,     ,,,,,,,,,,     BBBBBBBp    0nBBBBBN&    :,,,,,,,,,.    nBBBBBBdO ",
" #,,,,,,,     ,,,,,,,,,,     ,,,,,,,*  +  #,,,,,,,  .##,,,,,,,,,,##o  BBBBBBBp    0nBBBBBB%    >,,,,,,,,,     vBBBBBBd@ ",
" #,,,,,,,  .##,,,,,,,,,,##o  ,,,,,,,$  +  #,,,,,,,  #,,,,,,,,,,,,,,*  BBBBBBBp    0nBBBBBB% .++>,,,,,,,,,#+o  vBBBBBBdO ",
" #,,,,,,,  #,,,,,,,,,,,,,,$  ,,,,,,,*  +  #,,,,,,,  #,,,,,,,,,,,,,>*  BBBBBBBp    0nBBBBBB% +>>>,,,,,,,,,,>*  vBBBBBBdO ",
" #,,,,,,,  #,,,,,,,,,,,,,,*  ,,,,,,,$  o  #,,,,,,,  #,,>,,,,,,,,,,>$  BBBBBBBp    0nBBBBBm& +>>>,,,,,,,,,,,*  vBBBBBBd@ ",
" #,,,,,,,  #,,,,,,,,,,,,,,*  ,,,,,,,*  +  #,,,,,,,  #,,>,,,,,,,,>>,$  BBBBBBBp    0nBBBBBB% +>,,,,,,,,,,,,,*. vBBBBBBdO ",
" #,,,,,,,  #,,,,,,,,,,,>,,*  ,,,,,,,$  +  #,,,,,,,  #,,**=,,,,:**,,*  BBBBBBBp    0nBBBBBB% +>,,,,,,,,,,,,,*  vBBBBBBd@ ",
" #,,,,,,,  #,,*$=,,,,:*$,>$  ,,,,,,,*  +  #,,,,,,,  #,,  +,,,>$  ,>$  BBBBBBBp    0nBBBBBB% +>,**=>,,,>**>,*  vBBBBBBd@ ",
" #,,,,,,,  #,,  #,,>>*  ,>*  ,,,,,,>$  o  #,,,,,,,  #,,  #,,,>*  ,,*  BBBBBBBp    0nBBBBBB% +>>. +>,,>*  >,*  vBBBBBBdO ",
" #,,,,,,,  #,,  #,,,,*  ,,*  ,,,,,,,*  +  #,,,,,,,                    BBBBBBBp    0nBBBBBB% #>>  #>>,,*  >>*  bBBBBBBdO ",
" #,,,,,,,                    ,,,,,,,*  +  #,,>,,,,                    BBBBBBBp    0nBBBBBB%  ..    ..    .    bBBBBBBd@ ",
" #,>,>,,>                    >,,,,>>$  +  o**>>:**+###################pphBBpp9    0nBBBBBB%                   bBBBBBBsO ",
" o*$,>:**####################$*=>>**+  o     ,,$  >,,,,,,,,,,,,,,,,,,,  wBB       2pdnBlfdw0000000000000000q00sdjmBfdwo ",
"    ,,*  ,,,,,,,,,,,,,,,,,,,,  #,,     .     ,,*  ,,,,,,,,,,,,,,,,,,,,  wBB       .oObBf&oznnnnnnnnnnnnnnnnnnn-ownB;OO  ",
"    ,,*  ,,,,,,,,,,,,,,,,,,,,  #,,             #,,,,,,,,,,,,,,,,,,,,,,,,*            bBd@ bBBBBBBBBBBBBBBBBBBB% qnB%    ",
"      +>,,,,,,,,,,,,,,,,,,,,,,,*               #,,,,,,,,,,,,,,,,,,,,,,,,$            %%qxbBBBBBBBBBBBBBBBBBBBBbba-%     ",
"      #,,,,,,,,,,,,,,,,,,,,,,,>$               o$*,,,,,,,,,,,,,,,,,,,>$*+              0nBBBBBBBBBBBBBBBBBBBBBBBdO      ",
"      o*$,,,,,,,,,,,,,,,,,,,,*$+                  ,,,,,,,,,,,,,,,,,,,,                 2psmBBBBBBBBBBBBBBBBBBBfdw.      ",
"         ,,,,,,,,,,,,,,,,,,,,                     ,,,,,,,,,,,,,,,,,,,,                 .O@bBBBBBBBBBBBBBBBBBBB;@.       ",
"         ,,,,,,,,,,,,,,,,,,,,                                                             bBBBBBBBBBBBBBBBBBBB%         ",
"                                                                                          %%%%%%%%%%%%%%%%&%%%          ",
"                                                                                                                        "
};
