/* XPM */
static char *_01719337536[] = {
/* columns rows colors chars-per-pixel */
"120 77 56 1 ",
"  c black",
". c #000600",
"X c #020702",
"o c #000A00",
"O c #030A03",
"+ c #000F00",
"@ c #030C03",
"# c #001000",
"$ c #001700",
"% c #041104",
"& c #051505",
"* c #001A00",
"= c #001E00",
"- c #071B07",
"; c #071C07",
": c #002200",
"> c #002700",
", c #002800",
"< c #092309",
"1 c #0F3B0F",
"2 c #0F3D0F",
"3 c #0F450F",
"4 c #165816",
"5 c #165A16",
"6 c #175B17",
"7 c #175C17",
"8 c #185F18",
"9 c #176217",
"0 c #196319",
"q c #1A661A",
"w c #1B6A1B",
"e c #1E771E",
"r c #1F7A1F",
"t c #218521",
"y c #228822",
"u c #259625",
"i c #269926",
"p c #279A27",
"a c #279D27",
"s c #28A028",
"d c #29A429",
"f c #2AA72A",
"g c #31C231",
"h c #31C431",
"j c #37DC37",
"k c #38DE38",
"l c #39E339",
"z c #39E439",
"x c #3BEA3B",
"c c #3BED3B",
"v c #3CEE3C",
"b c #3DF43D",
"n c #3EF83E",
"m c #3FFB3F",
"M c #40FE40",
"N c #40FF40",
/* pixels */
"                                                                                                                        ",
"                                                                                                                        ",
"         ####################                     qqqqqqqqqqqqqqqqqqqq                    68888888888888888880.         ",
"         ,,,,,,,,,,,,,,,,,,,,                     NNNNNNNNNNNNNNNNNNNN                    lbbbbbbbbbbbbbbbbbbb%         ",
"         ,,,,,,,,,,,,,,,,,,,,                     NNNNNNNNNNNNNNNNNNNN                    vNNNNNNNNNNNNNNNNNNN%         ",
"      #,,,,,,,,,,,,,,,,,,,,,,,>$               qNNNNNNNNNNNNNNNNNNNNNNNNi              5lvNNNNNNNNNNNNNNNNNNNNvvuO      ",
"      #,,,,,,,,,,,,,,,,,,,,,,>>$               qNNNNNNNNNNNNNNNNNNNNNNNNi              8bNNNNNNNNNNNNNNNNNNNNNNNa@      ",
"    ###**,,,,,,,,,,,,,,,,,,,,**$##           qqriiNNNNNNNNNNNNNNNNNNNNii0+#          58epaNNNNNNNNNNNNNNNNNNNNday08o    ",
"    ,,*  ,,,,,,,,,,,,,,,,,,,,  #,,           NNi  NNNNNNNNNNNNNNNNNNNN  #,,          lba&ovNNNNNNNNNNNNNNNNNNN;o0xb%    ",
"    ,>$  ,,,,,,,,,,,,,,,,,,,,  #,,           NNi  NNNNNNNNNNNNNNNNNNNN  #,,          cNso vNNNNNNNNMNNNnNNNNNN% 8bN%    ",
" #,,,,,,,                    ,,,,,,,$  .  qNNNNNNN                    ,,,,,,,*    5lcNNnvv<%&#%%@%%&%%%&%%%&%%kvbNNvvuO ",
" #,,,,,,,                    ,,,,,,,*  +  qNNNNNNN                    ,,,,,,>$    8bNNNNNN%                   vNNNNNNaO ",
" #,,,,,,,  .##  .###+o  ##o  ,,,,,,,*  +  qNNNNNNN  .##  .####o  ##o  ,,,,,,,*    8bNNNNNN% .+#  .#+++o  ++o  vNNNNNNsO ",
" #,,,,,,,  #,,  #,,,>*  ,,*  ,,,,,,,*  o  qNNNNNNN  #,,  #,,,,*  ,,*  ,,,,,,>$    8bNNNNNN% +>>  #>>>>$  >>*  vNNNNNNs@ ",
" #,,,,,,,  #,,  #,,,,*  ,>$  ,,,,,,,$  +  qNNNNNNN  #,,  #,,,,$  ,>$  ,,,,,,>*    8bNNNNNN% +>>  +>>,,*  >,*  vNNNNNNs@ ",
" #,,,,,,,  #,,,,,,,,>>,,,>*  ,,,,,,,$  +  qNNNNNNN  #,,,,,,,,,,,,,,*  ,,,,,,>*    8bNNNNNN% +>>>>>>>,,>:>>,*  vNNNNNNsO ",
" #,,,,,,,  #,,,,,,,,,,,,,,*  ,,,,,,,*  o  qNNNNNNN  #,,,,,,,,,,,,,,$  ,,,,,,,*    8bNNNNNN% +>,,>>,,,,,,,,,*  cNNNNNNso ",
" #,,,,,,,  #,,,,,,,,,,,,,,$  ,,,,,,,$  +  qNNNNNNN  #,,,,,,,,,,,,,,*  ,,,,,,>$    8bNNNNNN% +>,,,>,,,,,,,,,*  cNNNNNNs+ ",
" #,,,,,,,  #,,,,,,,,,,,,,,*  ,,,,,,,$  +  qNNNNNNN  #,,,,,,,,,,,,,>$  ,,,,,,>*    8bNNNNNN% +>>,,,,,,,,,,,,*  cNNNNNNsO ",
" #,,,,,,,  #,,,,,,,,,,,,,>$  ,,,,,>>*  o  qNNNNNNN  #,,,,,,,,,,,,,,*  ,,,,,,>*    8bNNNNNN% +>>>,,,,,,,,,,,*. cNNNNNNs@ ",
" #,,,,,,,     ,,,,,,,,,,     ,,,,,,,$  +  qNNNNNNN     ,,,,,,,,,,     ,,,,,,,*    8bNNNNNN%  . >,,,,,,,,,..   cNNNNNNsO ",
" #,,,,,,,     ,,,,,,,,,,     ,,,,,,,*  +  qNNNNNNN     ,,,,,,,,,,     ,,,,,,>$    8bNNNNNN%    >,,,,,,,,,     cNNNNNNs@ ",
" #,,,,,,,     ,,,,,,,,,,     ,,,,,,,$  +  qNNNNNNN     ,,,,,,,,,,     ,,,,,,,$    8bNNNNNN%    >,,,,,,,,,.    cNNNNNNsO ",
" #,,,,,,,     ,,,,,,,,,,     ,,,,,,,*  +  qNNNNNNN     ,,,,,,,,,,     ,,,,,,,*    8bNNNNNM&    :,,,,,,,,,     cNNNNNNs@ ",
" #,,,,,,,     ,,,,,,,,,,     ,,,,,,,*  +  qNNNNNNN     ,,,,,,,,,,     ,,,,,,>$    8bNNNNNN%    >,,,,,,,,,     cNNNNNNsO ",
" #,,,,,,,  #,,,,,,,,,,,,,,*  ,,,,,,,$  +  qNNNNNNN  #,,,,,,,,,,,,,,*  ,,,,,,,*    8bNNNNNN% +>>,,,,,,,,,,>>$. cNNNNNNs@ ",
" #,,,,,,,  #,,,,,,,,,,,,,>$  ,,,,,,,*  +  qNNNNNNN  #,,,,,,,,,,,,,>*  ,,,,,,,*    8bNNNNNN% +>>>,,,,,,,,,,>*  cNNNNNNsO ",
" #,,,,,,,  #,,,,,,,,,,,,,>*  ,,,,,,,$  o  qNNNNNNN  #,,,,,,,,,,,,,>$  ,,,,,,>$    8bNNNNNN& +>>>,,,,,,,,,>>*  cNNNNNNs@ ",
" #,,,,,,,  #,,,,,,,,,,,,,,$  ,,,,,,,*  +  qNNNNNNN  #,,,,,,,,,,,,,,$  ,,,,,,,*    8bNNNNNN% +>,,,,,,,,,,,,>*  cNNNNNNs@ ",
" #,,,,,,,  #,,,,,,,,,,,,,,*  ,,,,,,,$  +  qNNNNNNN  #,,,,,,,,,,,,,,*  ,,,,,,>$    8bNNNNNN% +>,>,,,,,,,,,,>*  cNNNNNNsO ",
" #,,,,,,,  #,,  #,,,,$  ,,*  ,,,,,,,*  +  qNNNNNNN  #,,  #,,,>*  ,>$  ,,,,,,>*    8bNNNNNN% +>,. #>,,,*. >>*  vNNNNNNsO ",
" #,,,,,,,  #,,  #,,,,*  ,,$  ,,,,,,>$  o  qNNNNNNN  #,,  #,,,>*  ,,*  ,,,,,,>*    8bNNNNNN% +>>. #>,,,*  >,*. cNNNNNNs@ ",
" #,,,,,,,  o$*  o*$*$+  $*#  ,,,,,,,*  +  qNNNNNNN  o*$  o*$$*+  *$+  ,,,,,,,*    8bNNNNNN% o**  o****+  **+  vNNNNNNsO ",
" #,,,,,,,                    ,,,,,,,$  +  qNNNNNNN                    ,,,,,,>$    0bNNNNNN%                   vNNNNNNs@ ",
" #,,,,>>,                    ,,,,,,,*  +  qNNNNNNN                    ,,,,,,,*    8bNNNNNN%                   vNNNNNNs@ ",
"    ,,*  ,,,,,,,,,,,,,,,,,,,,  #,,     .     NNi  NNNNNNNNNNNNNNNNNNNN  #,,       .%%vNd-%>>>>>>>>>>>>>>>>>:>>#&qNN<%O  ",
"    >,*  ,,,,,,,,,,,,,,,,,,,,  #>>           NNi  NNNNNNNNNNNNNNNNNNNN  #,>          vNaO >>,,,,>,,,,,,,>,,,,,  8bN%    ",
"    $*$+#,,,,,,,,,,,,,,,,,,,,###**           iitqqNNNNNNNNNNNNNNNNNNNNqq3**          usw%+>>,,,,>>,,,,,,>>,,,,##3uaO    ",
"      #,,,,,,,,,,,,,,,,,,,,,,,>$               qNNNNNNNNNNNNNNNNNNNNNNNNi            O+$>>,,,,,,,,,,,,,,,,,,,,>,=@@     ",
"      #,,,,,,,,,,,,,,,,,,,,,,,,*               qNNNNNNNNNNNNNNNNNNNNNNNNi              +>,,,,,,,,,,,,,,,,,,,,,,,*       ",
"    ,,*  ,,,,,,,,,,,,,,,,,,,,  #,,           ,,$  NNNNNNNNNNNNNNNNNNNN  qNN          kvu+ >,,,,,,,,,,,,,>,,,,,. 8lv%    ",
"    ,,*  >,,,,>>,,>>,,,,,>,,,  #,,           ,,*  NNNNNNNNNNNNNNNNNNNN  qNN          vNaO >,>>,,,,>>,,,,>>,,,,  8bN@    ",
" .##,,=+#*$***$***$*$**$*$$**##*,,##o     .##,,=##iiiiiiiiiiiiiiiiiiiiqqsNNqq2    <68bNgq0=*******************60pbNw81. ",
" #,,,,,>,                    >,,,,,,*  o  #,,,,,,,                    NNNNNNNi    6xbNNNbb% .      .    .     lbNNNbMpO ",
" #,,,,,,,                    ,,,,,,,*  +  #,,,,,,,                    NNNNNNNi    8bNNNNNN%                   vNNNNNMaO ",
" #,,,,,,,  #,,  #,,,,*  ,,*  ,,,,,,,*  o  #,,,,,,,  #,,  #,,,,*  ,,*  NNNNNNNi    8bNNNNNN% +>>. +>>>>*  :>$  xNNNNNMpO ",
" #,,,,,,,  #,,  #,,,>*  ,,*  ,,,,,,,$  +  #,,,,,,,  #,,  #,,,,$  ,>$  NNNNNNNi    8bNNNNNN% +>>  +>>,,*  >>*  vNNNNNNs@ ",
" #,,,,,,,  #,,##*,,,>=##,>$  ,,,,,,,$  +  #,,,,,,,  #,,##*,,,,=##,,*  NNNNNNNi    8bNNNNNN% +>>#+*>,,,=#+>>*. vNNNNNNsO ",
" #,,,,,,,  #,,,,,,,,,,,,,,*  ,,,,,,,*  o  #,,,,,,,  #,,,,,,,,,,,,,,$  NNNNNNNi    8bNNNNNN% +>>>>>,,,,>>>>>*  vNNNNNNs@ ",
" #,,,,,,,  #,,,,,,,,,,,,,,*  ,,,,,,,$  +  #,,,,,,,  #,,,,,,,,,,,,,,*  NNNNNNNi    8bNNNNNN% +>,,>>,,,,,,,>>*  vNNNNNNsO ",
" #,,,,,,,  #,,,,,,,,,,,,,>$  ,,,,,,,$  +  #,,,,,,,  #,,,,,,,,,,,,,>*  NNNNNNNi    8bNNNNNN% +>,,,,,,,,,,,,,*  cNNNNNNsO ",
" #,,,,,,,  #,,,,,,,,,,,,,>*  ,,,,,>>*  o  #,,,,,,,  #,,>,,,,,,,,,,>$  NNNNNNNi    8bNNNNNN% +>>>,,,,,,,,,,,*  cNNNNNNs@ ",
" #,,,,,,,  o**>>,,,,,,,,*$+  ,,,,,,,$  +  #,,,,,,,  o**>,,,,,,,,,*$+  NNNNNNNi    8bNNNNNN% +$*>,,,,,,,,>**#  bnNNNNNsO ",
" #,,,,,,,     ,,,,,,,,,,     ,,,,,,,*  +  #,,,,,,,     ,,,,,,,,,,     NNNNNNNi    8bNNNNNN%    >,,,,,,,,,.    bNNNNNNs@ ",
" #,,,,,,,     ,,,,,,,,,,     ,,,,,,,$  +  #,,,,,,,     ,,,,,,,,,,     NNNNNNNi    8bNNNNNN%    >,,,,,,,,,     cnNNNNNs@ ",
" #,,,,,,,     ,,,,,,,,,,     ,,,,,,,*  +  #,,,,,,,     ,,,,,,,,,,     NNNNNNNi    8bNNNNNM&    :,,,,,,,,,.    bNNNNNNsO ",
" #,,,,,,,     ,,,,,,,,,,     ,,,,,,,*  +  #,,,,,,,     ,,,,,,,,,,     NNNNNNNi    8bNNNNNN%    >,,,,,,,,,     cNNNNNNs@ ",
" #,,,,,,,  .##,,,,,,,,,,##o  ,,,,,,,$  +  #,,,,,,,  .##,,,,,,,,,,##o  NNNNNNNi    8bNNNNNN% .++>,,,,,,,,,#+o  cNNNNNNsO ",
" #,,,,,,,  #,,,,,,,,,,,,,,$  ,,,,,,,*  +  #,,,,,,,  #,,,,,,,,,,,,,>*  NNNNNNNi    8bNNNNNN% +>>>,,,,,,,,,,>*  cNNNNNNsO ",
" #,,,,,,,  #,,,,,,,,,,,,,,*  ,,,,,,,$  o  #,,,,,,,  #,,,,,,,,,,,,,>$  NNNNNNNi    8bNNNNNn& +>>>,,,,,,,,,,,*  cNNNNNNs@ ",
" #,,,,,,,  #,,,,,,,,,,,,,,*  ,,,,,,,*  +  #,,,,,,,  #,,,,,,,,,,,,,,$  NNNNNNNi    8bNNNNNN% +>,,,,,,,,,,,,,*. cNNNNNNsO ",
" #,,,,,,,  #,,,,,,,,,,,>,,*  ,,,,,,,$  +  #,,,,,,,  #,,,,,,,,,,,,>,*  NNNNNNNi    8bNNNNNN% +>,,,,,,,,,,,,,*  cNNNNNNs@ ",
" #,,,,,,,  #,,*$=,,,,:*$,>$  ,,,,,,,*  +  #,,,,,,,  #,>**=,,,>:**>>$  NNNNNNNi    8bNNNNNN% +>,**=>,,,>**>,*  cNNNNNNs@ ",
" #,,,,,,,  #,,  #,,>>*  ,>*  ,,,,,,>$  o  #,,,,,,,  #,>  +,,,>*  ,,*  NNNNNNNi    8bNNNNNN% +>>. +>,,>*  >,*  cNNNNNNsO ",
" #,,,,,,,  #,,  #,,,,*  ,,*  ,,,,,,,*  +  #,,,,,,,  #,,  #,,,,*  ,,*  NNNNNNNi    8bNNNNNN% #>>  #>>,,*  >>*  vNNNNNNsO ",
" #,,,,,,,                    ,,,,,,,*  +  #,,,,,,,                    NNNNNNNi    8bNNNNNN%  ..    ..    .    vNNNNNNs@ ",
" #,>,>,,>                    >,,,,>>$  +  #,>>>>,>                    NNNNNNNi    8bNNNNNN%                   vNNNNNNaO ",
" o*$,>:**####################$*=>>**+  o  o**,,:*$qqqqqqqqqqqqqqqqqqqqiigNNii7    1isbNkdsq8888888888888888088ashnNdsqo ",
"    ,,*  ,,,,,,,,,,,,,,,,,,,,  #,,     .     ,>*  NNNNNNNNNNNNNNNNNNNN  qNN       .oOvNd&olbbbbbbbbbbbbbbbbbbb-oqbN;OO  ",
"    ,,*  ,,,,,,,,,,,,,,,,,,,,  #,,           ,>*  NNNNNNNNNNNNNNNNNNNN  qNN          vNs@ vNNNNNNNNNNNNNNNNNNN% 0bN%    ",
"      +>,,,,,,,,,,,,,,,,,,,,,,,*               qNNNNNNNNNNNNNNNNNNNNNNNNi            %%0zvNNNNNNNNNNNNNNNNNNNNvvp-%     ",
"      #,,,,,,,,,,,,,,,,,,,,,,,>$               qNNNNNNNNNNNNNNNNNNNNNNNNi              8bNNNNNNNNNNNNNNNNNNNNNNNsO      ",
"      o*$,,,,,,,,,,,,,,,,,,,,*$+               2iiNNNNNNNNNNNNNNNNNNNNii7              1ianNNNNNNNNNNNNNNNNNNNdsq.      ",
"         ,,,,,,,,,,,,,,,,,,,,                     NNNNNNNNNNNNNNNNNNNN                 .O@vNNNNNNNNNNNNNNNNNNN;@.       ",
"         ,,,,,,,,,,,,,,,,,,,,                     NNNNNNNNNNNNNNNNNNNN                    vNNNNNNNNNNNNNNNNNNN%         ",
"                                                                                          %%%%%%%%%%%%%%%%&%%%          ",
"                                                                                                                        "
};
