/* XPM */
static char *_01719337535[] = {
/* columns rows colors chars-per-pixel */
"120 77 55 1 ",
"  c black",
". c #000600",
"X c #020702",
"o c #000A00",
"O c #030A03",
"+ c #000F00",
"@ c #030C03",
"# c #001000",
"$ c #001700",
"% c #041104",
"& c #051505",
"* c #001A00",
"= c #001E00",
"- c #071B07",
"; c #071C07",
": c #002200",
"> c #002700",
", c #002800",
"< c #092309",
"1 c #0F3B0F",
"2 c #0F3D0F",
"3 c #0F450F",
"4 c #165816",
"5 c #165A16",
"6 c #175B17",
"7 c #175C17",
"8 c #185F18",
"9 c #196319",
"0 c #1A661A",
"q c #1B6A1B",
"w c #1E771E",
"e c #1F7A1F",
"r c #218521",
"t c #228822",
"y c #259625",
"u c #269926",
"i c #279A27",
"p c #279D27",
"a c #28A028",
"s c #29A429",
"d c #2AA72A",
"f c #31C231",
"g c #31C431",
"h c #37DC37",
"j c #38DE38",
"k c #39E339",
"l c #39E439",
"z c #3BEA3B",
"x c #3BED3B",
"c c #3CEE3C",
"v c #3DF43D",
"b c #3EF83E",
"n c #3FFB3F",
"m c #40FE40",
"M c #40FF40",
/* pixels */
"                                                                                                                        ",
"                                                                                                                        ",
"         ####################                                                             68888888888888888889.         ",
"         ,,,,,,,,,,,,,,,,,,,,                   00000000000000000000                      kvvvvvvvvvvvvvvvvvvv%         ",
"         ,,,,,,,,,,,,,,,,,,,,                   MMMMMMMMMMMMMMMMMMMM                      cMMMMMMMMMMMMMMMMMMM%         ",
"      #,,,,,,,,,,,,,,,,,,,,,,,>$                MMMMMMMMMMMMMMMMMMMM                   5kcMMMMMMMMMMMMMMMMMMMMccyO      ",
"      #,,,,,,,,,,,,,,,,,,,,,,>>$             0MMMMMMMMMMMMMMMMMMMMMMMMu                8vMMMMMMMMMMMMMMMMMMMMMMMp@      ",
"    ###**,,,,,,,,,,,,,,,,,,,,**$##           0MMMMMMMMMMMMMMMMMMMMMMMMu              58wipMMMMMMMMMMMMMMMMMMMMspt98o    ",
"    ,,*  ,,,,,,,,,,,,,,,,,,,,  #,,         00euuMMMMMMMMMMMMMMMMMMMMuur00            kvp&ocMMMMMMMMMMMMMMMMMMM;o9zv%    ",
"    ,>$  ,,,,,,,,,,,,,,,,,,,,  #,,         MMu  MMMMMMMMMMMMMMMMMMMM  0MM            xMao cMMMMMMMMmMMMbMMMMMM% 8vM%    ",
" #,,,,,,,                    ,,,,,,,$      MMu  MMMMMMMMMMMMMMMMMMMM  0MM         5kcMMbcc<%&#%%@%%&%%%&%%%&%%jcvMMccyO ",
" #,,,,,,,                    ,,,,,,,*   0MMMMMMM                    MMMMMMMu      8vMMMMMM%                   cMMMMMMpO ",
" #,,,,,,,  .##  .###+o  ##o  ,,,,,,,*   0MMMMMMM                    MMMMMMMu      8vMMMMMM% .+#  .#+++o  ++o  cMMMMMMaO ",
" #,,,,,,,  #,,  #,,,>*  ,,*  ,,,,,,,*   0MMMMMMM  .##  .####o  #+o  MMMMMMMu      8vMMMMMM% +>>  #>>>>$  >>*  cMMMMMMa@ ",
" #,,,,,,,  #,,  #,,,,*  ,>$  ,,,,,,,$   0MMMMMMM  #,,  #,,,,*  ,>*  MMMMMMMu      8vMMMMMM% +>>  +>>,,*  >,*  cMMMMMMa@ ",
" #,,,,,,,  #,,,,,,,,>>,,,>*  ,,,,,,,$   0MMMMMMM  #,,  #,,,>$  ,>*  MMMMMMMu      8vMMMMMM% +>>>>>>>,,>:>>,*  cMMMMMMaO ",
" #,,,,,,,  #,,,,,,,,,,,,,,*  ,,,,,,,*   0MMMMMMM  #,,,,,,,,,,,,,,*  MMMMMMMu      8vMMMMMM% +>,,>>,,,,,,,,,*  xMMMMMMao ",
" #,,,,,,,  #,,,,,,,,,,,,,,$  ,,,,,,,$   0MMMMMMM  #,,,,,,,,,,,,,>$  MMMMMMMu      8vMMMMMM% +>,,,>,,,,,,,,,*  xMMMMMMa+ ",
" #,,,,,,,  #,,,,,,,,,,,,,,*  ,,,,,,,$   0MMMMMMM  #,,,,,,,,,,,,,>*  MMMMMMMu      8vMMMMMM% +>>,,,,,,,,,,,,*  xMMMMMMaO ",
" #,,,,,,,  #,,,,,,,,,,,,,>$  ,,,,,>>*   0MMMMMMM  #,,,,,,,,,,,,,>*  MMMMMMMu      8vMMMMMM% +>>>,,,,,,,,,,,*. xMMMMMMa@ ",
" #,,,,,,,     ,,,,,,,,,,     ,,,,,,,$   0MMMMMMM  #,,,,,,,,,,,,,,*  MMMMMMMu      8vMMMMMM%  . >,,,,,,,,,..   xMMMMMMaO ",
" #,,,,,,,     ,,,,,,,,,,     ,,,,,,,*   0MMMMMMM     ,,,,,,,,,,     MMMMMMMu      8vMMMMMM%    >,,,,,,,,,     xMMMMMMa@ ",
" #,,,,,,,     ,,,,,,,,,,     ,,,,,,,$   0MMMMMMM     ,,,,,,,,,,     MMMMMMMu      8vMMMMMM%    >,,,,,,,,,.    xMMMMMMaO ",
" #,,,,,,,     ,,,,,,,,,,     ,,,,,,,*   0MMMMMMM     ,,,,,,,,,,     MMMMMMMu      8vMMMMMm&    :,,,,,,,,,     xMMMMMMa@ ",
" #,,,,,,,     ,,,,,,,,,,     ,,,,,,,*   0MMMMMMM     ,,,,,,,,,,     MMMMMMMu      8vMMMMMM%    >,,,,,,,,,     xMMMMMMaO ",
" #,,,,,,,  #,,,,,,,,,,,,,,*  ,,,,,,,$   0MMMMMMM     ,,,,,,,,,,     MMMMMMMu      8vMMMMMM% +>>,,,,,,,,,,>>$. xMMMMMMa@ ",
" #,,,,,,,  #,,,,,,,,,,,,,>$  ,,,,,,,*   0MMMMMMM  #,,,,,,,,,,,,,>*  MMMMMMMu      8vMMMMMM% +>>>,,,,,,,,,,>*  xMMMMMMaO ",
" #,,,,,,,  #,,,,,,,,,,,,,>*  ,,,,,,,$   0MMMMMMM  #,,,,,,,,,,,,,>*  MMMMMMMu      8vMMMMMM& +>>>,,,,,,,,,>>*  xMMMMMMa@ ",
" #,,,,,,,  #,,,,,,,,,,,,,,$  ,,,,,,,$   0MMMMMMM  #,,,,,,,,,,,,,,*  MMMMMMMu      8vMMMMMM% +>,,,,,,,,,,,,>*  xMMMMMMa@ ",
" #,,,,,,,  #,,,,,,,,,,,,,,*  ,,,,,,,*   0MMMMMMM  #,,,,,,,,,,,,,>$  MMMMMMMu      8vMMMMMM% +>,>,,,,,,,,,,>*  xMMMMMMaO ",
" #,,,,,,,  #,,  #,,,,$  ,,*  ,,,,,,,*   0MMMMMMM  #,,,,,,,,,,,,,>*  MMMMMMMu      8vMMMMMM% +>,. #>,,,*. >>*  cMMMMMMaO ",
" #,,,,,,,  #,,  #,,,,*  ,,$  ,,,,,,>$   0MMMMMMM  #,,  #,,>>*  ,>*  MMMMMMMu      8vMMMMMM% +>>. #>,,,*  >,*. xMMMMMMa@ ",
" #,,,,,,,  o$*  o*$*$+  $*#  ,,,,,,,*   0MMMMMMM  #,>  #,,>,*  ,,*  MMMMMMMu      8vMMMMMM% o**  o****+  **+  cMMMMMMaO ",
" #,,,,,,,                    ,,,,,,,$   0MMMMMMM  o**  o$*$*+  *$+  MMMMMMMu      9vMMMMMM%                   cMMMMMMa@ ",
" #,,,,>>,                    ,,,,,,,*   0MMMMMMM                    MMMMMMMu      8vMMMMMM%                   cMMMMMMa@ ",
"    ,,*  ,,,,,,,,,,,,,,,,,,,,  #,,      0MMMMMMM                    MMMMMMMu      .%%cMs-%>>>>>>>>>>>>>>>>>:>>#&0MM<%O  ",
"    >,*  ,,,,,,,,,,,,,,,,,,,,  #>>         MMu  MMMMMMMMMMMMMMMMMMMM  0MM            cMpO >>,,,,>,,,,,,,>,,,,,  8vM%    ",
"    $*$+#,,,,,,,,,,,,,,,,,,,,###**         MMu  MMMMMMMMMMMMMMMMMMMM  0MM            yaq%+>>,,,,>>,,,,,,>>,,,,##3ypO    ",
"      #,,,,,,,,,,,,,,,,,,,,,,,>$           uur00MMMMMMMMMMMMMMMMMMMM00euu            O+$>>,,,,,,,,,,,,,,,,,,,,>,=@@     ",
"      #,,,,,,,,,,,,,,,,,,,,,,,,*             0MMMMMMMMMMMMMMMMMMMMMMMMu                +>,,,,,,,,,,,,,,,,,,,,,,,*       ",
"    ,,*  ,,,,,,,,,,,,,,,,,,,,  #,,           0MMMMMMMMMMMMMMMMMMMMMMMMu              jcy+ >,,,,,,,,,,,,,>,,,,,. 8kc%    ",
"    ,,*  >,,,,>>,,>>,,,,,>,,,  #,,         ,>$  MMMMMMMMMMMMMMMMMMMM  0MM            cMpO >,>>,,,,>>,,,,>>,,,,  8vM@    ",
" .##,,=+#*$***$***$*$**$*$$**##*,,##o      ,,*  MMMMMMMMMMMMMMMMMMMM  0MM         <68vMf09=*******************69ivMq81. ",
" #,,,,,>,                    >,,,,,,*   .##,,=##uuuuuuuuuuuuuuuuuuuu00aMM002      6zvMMMvv% .      .    .     kvMMMvmiO ",
" #,,,,,,,                    ,,,,,,,*   #,,,,,,,                    MMMMMMMu      8vMMMMMM%                   cMMMMMmpO ",
" #,,,,,,,  #,,  #,,,,*  ,,*  ,,,,,,,*   #,,,,,,,                    MMMMMMMu      8vMMMMMM% +>>. +>>>>*  :>$  zMMMMMmiO ",
" #,,,,,,,  #,,  #,,,>*  ,,*  ,,,,,,,$   #,,,,,,,  #,,  #,,,,*  ,>*  MMMMMMMu      8vMMMMMM% +>>  +>>,,*  >>*  cMMMMMMa@ ",
" #,,,,,,,  #,,##*,,,>=##,>$  ,,,,,,,$   #,,,,,,,  #,,  #,,,>$  ,>*  MMMMMMMu      8vMMMMMM% +>>#+*>,,,=#+>>*. cMMMMMMaO ",
" #,,,,,,,  #,,,,,,,,,,,,,,*  ,,,,,,,*   #,,,,,,,  #,,##*,,,,=##,,*  MMMMMMMu      8vMMMMMM% +>>>>>,,,,>>>>>*  cMMMMMMa@ ",
" #,,,,,,,  #,,,,,,,,,,,,,,*  ,,,,,,,$   #,,,,,,,  #,,,,,,,,,,,,,>$  MMMMMMMu      8vMMMMMM% +>,,>>,,,,,,,>>*  cMMMMMMaO ",
" #,,,,,,,  #,,,,,,,,,,,,,>$  ,,,,,,,$   #,,,,,,,  #,,,,,,,,,,,,,>*  MMMMMMMu      8vMMMMMM% +>,,,,,,,,,,,,,*  xMMMMMMaO ",
" #,,,,,,,  #,,,,,,,,,,,,,>*  ,,,,,>>*   #,,,,,,,  #,,,,,,,,,,,,,>*  MMMMMMMu      8vMMMMMM% +>>>,,,,,,,,,,,*  xMMMMMMa@ ",
" #,,,,,,,  o**>>,,,,,,,,*$+  ,,,,,,,$   #,,,,,,,  +>,,,,,,,,,,,,,*  MMMMMMMu      8vMMMMMM% +$*>,,,,,,,,>**#  vbMMMMMaO ",
" #,,,,,,,     ,,,,,,,,,,     ,,,,,,,*   #,,,,,,,  o**,,,,,,,,,>*$+  MMMMMMMu      8vMMMMMM%    >,,,,,,,,,.    vMMMMMMa@ ",
" #,,,,,,,     ,,,,,,,,,,     ,,,,,,,$   #,,,,,,,     ,,,,,,,,,>     MMMMMMMu      8vMMMMMM%    >,,,,,,,,,     xbMMMMMa@ ",
" #,,,,,,,     ,,,,,,,,,,     ,,,,,,,*   #,,,,,,,     ,,,,,,,,,,     MMMMMMMu      8vMMMMMm&    :,,,,,,,,,.    vMMMMMMaO ",
" #,,,,,,,     ,,,,,,,,,,     ,,,,,,,*   #,,,,,,,     ,,,,,,,,,,     MMMMMMMu      8vMMMMMM%    >,,,,,,,,,     xMMMMMMa@ ",
" #,,,,,,,  .##,,,,,,,,,,##o  ,,,,,,,$   #,,,,,,,     ,,,,,,,,,,     MMMMMMMu      8vMMMMMM% .++>,,,,,,,,,#+o  xMMMMMMaO ",
" #,,,,,,,  #,,,,,,,,,,,,,,$  ,,,,,,,*   #,,,,,,,  .##,,,,,,,,,,#+o  MMMMMMMu      8vMMMMMM% +>>>,,,,,,,,,,>*  xMMMMMMaO ",
" #,,,,,,,  #,,,,,,,,,,,,,,*  ,,,,,,,$   #,,,,,,,  #,,,,,,,,,,,,,>*  MMMMMMMu      8vMMMMMb& +>>>,,,,,,,,,,,*  xMMMMMMa@ ",
" #,,,,,,,  #,,,,,,,,,,,,,,*  ,,,,,,,$   #,,,,,,,  #,,,,,,,,,,,,,,*  MMMMMMMu      8vMMMMMM% +>,,,,,,,,,,,,,*. xMMMMMMaO ",
" #,,,,,,,  #,,,,,,,,,,,>,,*  ,,,,,,,*   #,,,,,,,  #,,,,,,,,,,,,,>$  MMMMMMMu      8vMMMMMM% +>,,,,,,,,,,,,,*  xMMMMMMa@ ",
" #,,,,,,,  #,,*$=,,,,:*$,>$  ,,,,,,,*   #,,,,,,,  #,,,,,,,,,,>,,>*  MMMMMMMu      8vMMMMMM% +>,**=>,,,>**>,*  xMMMMMMa@ ",
" #,,,,,,,  #,,  #,,>>*  ,>*  ,,,,,,>$   #,,,,,,,  #,>$*=,,,,:$*,>*  MMMMMMMu      8vMMMMMM% +>>. +>,,>*  >,*  xMMMMMMaO ",
" #,,,,,,,  #,,  #,,,,*  ,,*  ,,,,,,,*   #,,,,,,,  #,,  #,,,,*  ,,*  MMMMMMMu      8vMMMMMM% #>>  #>>,,*  >>*  cMMMMMMaO ",
" #,,,,,,,                    ,,,,,,,*   #,,,,,,,  #,,  #,,,,*  ,>$  MMMMMMMu      8vMMMMMM%  ..    ..    .    cMMMMMMa@ ",
" #,>,>,,>                    >,,,,>>$   #,,,,,,,                    MMMMMMMu      8vMMMMMM%                   cMMMMMMpO ",
" o*$,>:**####################$*=>>**+   #,,,,,,>                    MMMMMMMu      1uavMjsa08888888888888888988pagbMsa0o ",
"    ,,*  ,,,,,,,,,,,,,,,,,,,,  #,,      o**>>:*$####################uufMMuu7      .oOcMs&okvvvvvvvvvvvvvvvvvvv-o0vM;OO  ",
"    ,,*  ,,,,,,,,,,,,,,,,,,,,  #,,         ,>*  ,,,,,,,,,,,,,,,,,,,,  0MM            cMa@ cMMMMMMMMMMMMMMMMMMM% 9vM%    ",
"      +>,,,,,,,,,,,,,,,,,,,,,,,*           ,>*  ,,,,,,,,,,,,,,,,,,,,  0MM            %%9lcMMMMMMMMMMMMMMMMMMMMcci-%     ",
"      #,,,,,,,,,,,,,,,,,,,,,,,>$             #,,,,,,,,,,,,,,,,,,,,,,,>*                8vMMMMMMMMMMMMMMMMMMMMMMMaO      ",
"      o*$,,,,,,,,,,,,,,,,,,,,*$+             +>>,,,,,,,,,,,,,,,,,,,,>,*                1upbMMMMMMMMMMMMMMMMMMMsa0.      ",
"         ,,,,,,,,,,,,,,,,,,,,                o**,,,,,,,,,,,,,,,,,,,,$*+                .O@cMMMMMMMMMMMMMMMMMMM;@.       ",
"         ,,,,,,,,,,,,,,,,,,,,                   ,,,,,,,,,,,,,,,,,,,,                      cMMMMMMMMMMMMMMMMMMM%         ",
"                                                                                          %%%%%%%%%%%%%%%%&%%%          ",
"                                                                                                                        "
};
