/* XPM */
static char *cc01867db13a4477c107473a82ec4807yzZtfwdnEkLaBCe9[] = {
/* columns rows colors chars-per-pixel */
"20 20 59 1 ",
"  c #4B351F",
". c #553C24",
"X c #594028",
"o c #5D442A",
"O c #5E462C",
"+ c #61472D",
"@ c #62482D",
"# c #644A2F",
"$ c #624A30",
"% c #644B30",
"& c #674D32",
"* c #694E31",
"= c #6B5033",
"- c #6B5134",
"; c #6D5336",
": c #6C5237",
"> c #6E5437",
", c #6E5539",
"< c #705436",
"1 c #70573B",
"2 c #72573A",
"3 c #73583B",
"4 c #74593B",
"5 c #73583C",
"6 c #74593C",
"7 c #775D3F",
"8 c #7A5D3D",
"9 c #7A5F40",
"0 c #7C5F40",
"q c #7A6042",
"w c #7D6040",
"e c #7E6445",
"r c #836543",
"t c #816546",
"y c #846847",
"u c #816749",
"i c #836849",
"p c #866A48",
"a c #866C4C",
"s c #886B49",
"d c #896D4B",
"f c #8A6E4D",
"g c #8C6F4C",
"h c #8D704D",
"j c #8F7350",
"k c #907350",
"l c #917551",
"z c #947753",
"x c #927654",
"c c #947754",
"v c #947854",
"b c #987B57",
"n c #977B58",
"m c #987B58",
"M c #997D59",
"N c #9B7F5B",
"B c #9C7F5C",
"V c #9E815E",
"C c #A28662",
/* pixels */
"qpww@-rrf2,wtt;3dgs;",
"ivMM#-llM;9xvk#,cvM6",
"plMM-,jhb27lvv*2llvi",
"tmVV2,hkv-7vvz=9vlMt",
"eMMV6,fvv;qMvv*qvMB8",
"qvvMwejll>qMMM69cmM8",
"evvvw9lhlwaMVV67lvV9",
"tvvv32llvfjmVn29hlV6",
"pMMv%6cvMfpVVnepvlMe",
"6w55.$;o5>&;-;+,w8w9",
"4q69;*846*2874#%ttrw",
"ivvC35CMM;3Mvc*,Mllp",
"uvll#&MMMe5MvM27vhMt",
"9Mvh-@mMv96MkMtpVkvt",
"5VMvwqVcM,2MlvptMvve",
"eMMVppMlv-2vcMfpMMM0",
"pVMVpecvl*;vvbpiMvv8",
"exlc*5lhl<;mbMeuMlly",
"pfhv*%lll<9VMV48lhzf",
"q-X;O @&*@7fw3o%twt8"
};
