/* XPM */
static const char *cGxheWVyX2xu[] = {
/* columns rows colors chars-per-pixel */
"20 20 203 2 ",
"   c #180400",
".  c #270A00",
"X  c #380D02",
"o  c #27130A",
"O  c #37160F",
"+  c #221610",
"@  c #2C1A16",
"#  c #3C1B12",
"$  c #2C231E",
"%  c #31231A",
"&  c #342A25",
"*  c #430E08",
"=  c #42271E",
"-  c #5A251F",
";  c #5B2E29",
":  c #4A3224",
">  c #593127",
",  c #53352A",
"<  c #523730",
"1  c #523D37",
"2  c #5C3D33",
"3  c #68392F",
"4  c #6D3C38",
"5  c #5A463A",
"6  c #654135",
"7  c #62453A",
"8  c #6B443B",
"9  c #6A4B3E",
"0  c #7E4A36",
"q  c #5E4741",
"w  c #5E4944",
"e  c #6E4B42",
"r  c #624B45",
"t  c #744E45",
"y  c #7A4B43",
"u  c #794A45",
"i  c #6C5245",
"p  c #645142",
"a  c #735045",
"s  c #7D5345",
"d  c #74534A",
"f  c #725D4F",
"g  c #7E5D4E",
"h  c #7B5653",
"j  c #765F51",
"k  c #7F5B52",
"l  c #786151",
"z  c #7C6658",
"x  c #7F6963",
"c  c #843B24",
"v  c #92481B",
"b  c #934928",
"n  c #9A5029",
"m  c #9F5322",
"M  c #924730",
"N  c #924936",
"B  c #A95C2E",
"V  c #A35B3B",
"C  c #A65A34",
"Z  c #AC6239",
"A  c #B4693D",
"S  c #87574B",
"D  c #8E5F4F",
"F  c #845947",
"G  c #975348",
"H  c #975D46",
"J  c #865D54",
"K  c #8A5D56",
"L  c #975F52",
"P  c #A85E45",
"I  c #9F624D",
"U  c #8C645B",
"Y  c #836A5C",
"T  c #876759",
"R  c #9C6A5A",
"E  c #9C6557",
"W  c #9C725C",
"Q  c #AF6A49",
"!  c #B76A4A",
"~  c #B76A49",
"^  c #A36155",
"/  c #A96356",
"(  c #B96D5A",
")  c #B76352",
"_  c #A8735B",
"`  c #B37254",
"'  c #8E6C61",
"]  c #8D6E6B",
"[  c #966663",
"{  c #936D62",
"}  c #9A6D68",
"|  c #8B7465",
" . c #8F726E",
".. c #9A7163",
"X. c #95756B",
"o. c #967A6C",
"O. c #9F786B",
"+. c #9E7A71",
"@. c #957D73",
"#. c #A06F68",
"$. c #AB6D62",
"%. c #B26E61",
"&. c #AA746B",
"*. c #AC7C6C",
"=. c #A47668",
"-. c #B57463",
";. c #B37B6C",
":. c #B97966",
">. c #A27474",
",. c #A47B74",
"<. c #AF7F73",
"1. c #AD7C7C",
"2. c #AC7771",
"3. c #B17A7E",
"4. c #B87E75",
"5. c #C06C52",
"6. c #C67D56",
"7. c #C17C5F",
"8. c #C6794B",
"9. c #C47E6F",
"0. c #C17E64",
"q. c #D67F6B",
"w. c #C87F70",
"e. c #A48179",
"r. c #AA837C",
"t. c #AC8775",
"y. c #B28174",
"u. c #BB8477",
"i. c #B9847A",
"p. c #B3877A",
"a. c #CD815D",
"s. c #D4885C",
"d. c #CF8467",
"f. c #C88865",
"g. c #C6826A",
"h. c #CA866C",
"j. c #CF8868",
"k. c #D18662",
"l. c #D78E65",
"z. c #D2836B",
"x. c #D48C6A",
"c. c #DB8E6C",
"v. c #DC8F65",
"b. c #DD9266",
"n. c #DE946D",
"m. c #C28473",
"M. c #C98374",
"N. c #C78C75",
"B. c #C2867D",
"V. c #C58B7C",
"C. c #CE8C7A",
"Z. c #CD8A70",
"A. c #D88776",
"S. c #D28A74",
"D. c #D3897A",
"F. c #DC8D7C",
"G. c #DD8C71",
"H. c #CC917F",
"J. c #C99274",
"K. c #D39677",
"L. c #DB9176",
"P. c #D1937F",
"I. c #DD9279",
"U. c #DC9B7B",
"Y. c #E2946A",
"T. c #E18E7A",
"R. c #E59A75",
"E. c #E99C75",
"W. c #E59C7B",
"Q. c #EA9E7A",
"!. c #E09671",
"~. c #EEA177",
"^. c #ECA17A",
"/. c #F2A77F",
"(. c #A88780",
"). c #B48183",
"_. c #B88687",
"`. c #B38B83",
"'. c #BB8C81",
"]. c #B78B88",
"[. c #BC8A8A",
"{. c #B19182",
"}. c #B79886",
"|. c #B99A88",
" X c #C38F84",
".X c #C68F88",
"XX c #CB8D80",
"oX c #C59B8E",
"OX c #C69588",
"+X c #DC9282",
"@X c #D49C88",
"#X c #C39B91",
"$X c #E79D80",
"%X c #E79889",
"&X c #E79A85",
"*X c #C5A496",
"=X c #D0A197",
"-X c #E2A386",
";X c #ECA780",
":X c #E8A68A",
">X c #FBAD85",
",X c #F2A58B",
"<X c #DDA8A0",
/* pixels */
"[ y 4 y [ >.1.).[.).3.3.).).3.>. .x w 1 ",
"u 3 ; 8 J } 1.[.1.).)._._.).1.>.] x r 1 ",
"8 6 8 d J U { +.,.r.].`.,.[ J h h d < = ",
"= , 7 9 7 2 2 7 X.e.`.e.' d e e t a , # ",
"i z | Y j f Y | Y X.e.X.k e a k J U t > ",
"p f f 5 : : 7 d Y o.+.' a 6 8 s D R S 3 ",
"l | o.Y i e d g { O.,...S y s D R ;.E 0 ",
"9 ' {.{.r.,.O...U #.y.y.*.*.u.XXN.@Xm.I ",
"J =.oXoX'.'.i.E E ;.C.m.-.:.M.C.S.-Xh.H ",
"y #.y.&.&.u.4.$.-.%.9.+XM./ ( +XS.$Xh.V ",
"- 2..X4.B.B.^ G D.w.D.%XA.) ) z.x.Q.k.V ",
"* i.<X X@XV.^ ^ 9.F.&XT.F.T.q.5.c.^.k.C ",
"X y.=X<.y.;.$.H.-.g.S.I.&X,XG.! Y.E.a.B ",
"X { oXp.*.R D _ P.:.g.:X,Xd.~ ~ b.Y.8.B ",
". 9 {.*X}.W F 0 @XN.K.:XU.` Q 6.b.s.A m ",
"o : | |.}.t.*.W _ J.-XK.f.x.W.;Xn.s.Z v ",
"+ % 5 @.*X`.y.@X-.` 7.j.x.R./.!.I.P b n ",
"$ + @ q (.#X XV.C.h.L.W.Q.>X>XR.( N b Z ",
"& +   o d `.OXV.P.Z.L.W.E./.~.a.M c C 6.",
"& & @   O J OXH.m.0.z.c.c.E.v.A c c Q l."
};
