/* XPM */
static char *_62a4755bb6b4aeac9333c86b311e590aR8ueDaDbdZAZ7VC[] = {
/* columns rows colors chars-per-pixel */
"20 20 247 2 ",
"   c black",
".  c #663931",
"X  c #643831",
"o  c #2F2533",
"O  c #212034",
"+  c #222034",
"@  c #15152D",
"#  c #1A1A30",
"$  c #663931",
"%  c #663931",
"&  c #663931",
"*  c #663931",
"=  c #663931",
"-  c #663931",
";  c #663931",
":  c #663931",
">  c #663931",
",  c #663931",
"<  c #663931",
"1  c #663931",
"2  c #663931",
"3  c #663931",
"4  c #663931",
"5  c #663931",
"6  c #663931",
"7  c #663931",
"8  c #663931",
"9  c None",
"0  c #663931",
"q  c #663931",
"w  c #663931",
"e  c #663931",
"r  c #663931",
"t  c #663931",
"y  c #663931",
"u  c #663931",
"i  c #663931",
"p  c #663931",
"a  c #673A31",
"s  c #693A31",
"d  c #643830",
"f  c #422B31",
"g  c #191B32",
"h  c #302634",
"j  c #39323F",
"k  c black",
"l  c #242235",
"z  c #3F3743",
"x  c #252235",
"c  c #252235",
"v  c #3F3743",
"b  c #232134",
"n  c #8E766A",
"m  c #AE907A",
"M  c #38323F",
"N  c black",
"B  c #000004",
"V  c #221F33",
"C  c #94776A",
"Z  c #3F3541",
"A  c #000008",
"S  c #000002",
"D  c #423A44",
"F  c #54484D",
"G  c #5C454A",
"H  c #9B3536",
"J  c #6F4245",
"K  c #5A4F51",
"L  c #4F444A",
"P  c #0A0C28",
"I  c #605153",
"U  c #6A5A58",
"Y  c #0E102A",
"T  c #493F47",
"R  c #665656",
"E  c #625156",
"W  c #3F2A49",
"Q  c #0E1129",
"!  c #12132C",
"~  c #00000B",
"^  c #00001C",
"/  c #20203A",
"(  c #2C2C4D",
")  c #19161E",
"_  c #26243D",
"`  c #2E2D4F",
"'  c #222135",
"]  c #2C2A49",
"[  c #393866",
"{  c #313056",
"}  c #313055",
"|  c #27253F",
" . c #1F1D2D",
".. c #1A1823",
"X. c #232137",
"o. c #272640",
"O. c #1F1D2D",
"+. c #222034",
"@. c #201E30",
"#. c #18161F",
"$. c #1F1D2E",
"%. c #1F1D2E",
"&. c #1F1D2E",
"*. c #211F32",
"=. c #232135",
"-. c #663931",
";. c #653830",
":. c #653831",
">. c #643730",
",. c #71443A",
"<. c #63362E",
"1. c #6C3F35",
"2. c #805445",
"3. c #7F5244",
"4. c #6E4137",
"5. c #62352E",
"6. c #875A4A",
"7. c #C29678",
"8. c #7C4F42",
"9. c #966A56",
"0. c #64372F",
"q. c #72453A",
"w. c #996D58",
"e. c #6A3D35",
"r. c #AF856C",
"t. c #D9AE8B",
"y. c #D6AA87",
"u. c #B4886D",
"i. c #DAAF8B",
"p. c #E4B993",
"a. c #D0A585",
"s. c #F1C89F",
"d. c #F1C69D",
"f. c #D6AB88",
"g. c #7C5144",
"h. c #AC8A73",
"j. c #E9BD94",
"k. c #DDC4B4",
"l. c #F5E8DC",
"z. c #F9E4D0",
"x. c #EFC49A",
"c. c #F1C69C",
"v. c #F2C79E",
"b. c #F1CDAA",
"n. c #FBEDE0",
"m. c #F9EBDE",
"M. c #F0CAA5",
"N. c #F0C59B",
"B. c #CFA787",
"V. c #B99980",
"C. c #F2C59A",
"Z. c #F9E6D3",
"A. c #F2E0CD",
"S. c #F8E8D8",
"D. c #EEC299",
"F. c #ECC096",
"G. c #E9BB8E",
"H. c #F2D0B0",
"J. c #F6E8D9",
"K. c #F7E9DC",
"L. c #F1CCAA",
"P. c #EEC399",
"I. c #DEB792",
"U. c #B8987F",
"Y. c #F2C59B",
"T. c #F2D0AF",
"R. c #F5DCC4",
"E. c #F2D2B3",
"W. c #EEC39A",
"Q. c #EDC197",
"!. c #E9BB8F",
"~. c #EEC69F",
"^. c #F5DAC0",
"/. c #F4D9BF",
"(. c #EFC69F",
"). c #DDB592",
"_. c #BA9A80",
"`. c #F2C69C",
"'. c #EEC197",
"]. c #EBBF94",
"[. c #EABC8F",
"{. c #EABD90",
"}. c #E1AD7A",
"|. c #E2AE7B",
" X c #EEC298",
".X c #E0B893",
"XX c #EAC098",
"oX c #EEC49B",
"OX c #E7B889",
"+X c #E2AF7C",
"@X c #E2AF7D",
"#X c #ECBF94",
"$X c #F0C49B",
"%X c #EBBC95",
"&X c #EABE97",
"*X c #EFC6A0",
"=X c #EBC099",
"-X c #EABC95",
";X c #EEBE97",
":X c #B38F79",
">X c #B54540",
",X c #B3433D",
"<X c #A85B55",
"1X c #FAF3EE",
"2X c #BB837E",
"3X c #AC3F39",
"4X c #B64640",
"5X c #A73938",
"6X c #E4B18D",
"7X c #B13B38",
"8X c #AC3131",
"9X c #AA2E2E",
"0X c #9D4A4A",
"qX c #FDFCFC",
"wX c #B37979",
"eX c #A22929",
"rX c #AD3131",
"tX c #986159",
"yX c #8F796C",
"uX c #613D5F",
"iX c #603A5E",
"pX c #5F395E",
"aX c #613B5F",
"sX c #603A5F",
"dX c #5C4367",
"fX c #7A7A9F",
"gX c #635176",
"hX c #5E395D",
"jX c #613B60",
"kX c #3A3D70",
"lX c #35386D",
"zX c #313467",
"xX c #3C3F75",
"cX c #3D4077",
"vX c #3C3E74",
"bX c #343362",
"nX c #3A3B6F",
"mX c #35376C",
"MX c #33366A",
"NX c #3D3C6F",
"BX c #3F3F74",
"VX c #373662",
"CX c #313055",
"ZX c #2A2946",
"AX c #2B2947",
"SX c #2B2948",
"DX c white",
/* pixels */
"                      . . . . .         ",
"    . . . . $ % % % % . & * = . . . .   ",
"    . - ; : > , < < < 1 2 3 4 ; ; 5 .   ",
"  . . 6 7 8 -.-.-.-.-.-.-.9 7 0 q ; .   ",
"  . w e -.-.-.-.-.-.-.;.-.-.-.-.r t .   ",
". . y -.-.:.>.>.;.-.;.,.;.<.<.>.-.u $   ",
". i p >.-.1.2.3.4.5.6.7.8.9.9.3.0.a s   ",
"X d q.w.e.r.t.y.7.u.i.p.a.s.d.f.g.f g   ",
"o h h.j.k.l.z.x.c.v.x.b.n.m.M.N.B.j k   ",
"O l V.C.Z.A.S.D.F.G.D.H.J.K.L.P.I.z k   ",
"+ x U.Y.T.R.E.W.Q.!.D.~.^./.(.W.).z k   ",
"+ c _.`.D.'.D.].[.{.}.|.Q. XW.W..Xv k   ",
"+ b n XXW.W.oXOX+X@X@X#XW.W.W.$Xm M   + ",
"N B V C %X%X%X%X&X*X=X-X%X%X;X:XZ A S @ ",
"D F G H >X>X>X,X<X1X2X3X>X>X4X5XJ K L P ",
"I XX6X7X8X8X8X9X0XqXwXeXrX8X8XrXtXyXU Y ",
"T R E uXiXpXaXsXdXfXgXhXjXiXiXjXW Q ! # ",
"~ ^ / kXlXzXxXcXvXbXnXcXcXmXMXcX( ) + + ",
"+   _ NXBXBXBXVX` ' ] [ { } } CX|  .+   ",
"  ..X.ZXAXAXSXo.O.+.@.#.$.%.%.&.*.=.+   "
};
