/* XPM */
static char *_048d0eba33b4e0eee405858ce19f42aZM26Rq6YJUHXJa5X[] = {
/* columns rows colors chars-per-pixel */
"64 64 87 1 ",
"  c #8D8D8B",
". c #8E8E8C",
"X c #8F8F8D",
"o c #90908E",
"O c #929290",
"+ c #939391",
"@ c #949492",
"# c #959593",
"$ c #969694",
"% c #979795",
"& c #989896",
"* c #999997",
"= c #9A9A98",
"- c #9B9B99",
"; c #9C9C9A",
": c #9D9D9B",
"> c #9E9E9C",
", c #9F9F9D",
"< c #A0A09E",
"1 c #A1A19F",
"2 c #A2A2A0",
"3 c #A3A3A1",
"4 c #A4A4A2",
"5 c #A5A5A3",
"6 c #A6A6A4",
"7 c #A7A7A5",
"8 c #A8A8A6",
"9 c #A9A9A7",
"0 c #ABABA9",
"q c #ACACAA",
"w c #BBBBB9",
"e c #BCBCBA",
"r c #C2C2C0",
"t c #C3C3C1",
"y c #C6C6C4",
"u c #C8C8C6",
"i c #CBCBC9",
"p c #CCCCCA",
"a c #CDCDCB",
"s c #CECECC",
"d c #CFCFCD",
"f c #D2D2D0",
"g c #D3D3D1",
"h c #D4D4D2",
"j c #D5D5D3",
"k c #D6D6D4",
"l c #D7D7D5",
"z c #D8D8D6",
"x c #D9D9D7",
"c c #DADAD8",
"v c #DBDBD9",
"b c #DCDCDA",
"n c #DDDDDB",
"m c #DEDEDC",
"M c #DFDFDD",
"N c #E0E0DE",
"B c #E1E1DF",
"V c #E2E2E0",
"C c #E3E3E1",
"Z c #E4E4E2",
"A c #E5E5E3",
"S c #E6E6E4",
"D c #E7E7E5",
"F c #E8E8E6",
"G c #E9E9E7",
"H c #EAEAE8",
"J c #EBEBE9",
"K c #ECECEA",
"L c #EDEDEB",
"P c #EEEEEC",
"I c #EFEFED",
"U c #F0F0EE",
"Y c #F1F1EF",
"T c #F2F2F0",
"R c #F3F3F1",
"E c #F4F4F2",
"W c #F5F5F3",
"Q c #F6F6F4",
"! c #F7F7F5",
"~ c #F8F8F6",
"^ c #F9F9F7",
"/ c #FAFAF8",
"( c #FBFBF9",
") c #FCFCFA",
"_ c #FDFDFB",
"` c #FEFEFC",
"' c #FFFFFD",
/* pixels */
"W')!'~T/!!!!!!!!!!!!!!!!!!!!!!!!!!!!!!!!!!!!!!!!~!!!WW!!!!/)W/)!",
"!/WT/~W'////////////////////////////////////////////////~~~!YT!~",
")/!/~!!/~~~~~~~~~~~~~~~~~~~~~~~~~~~~~~~~~~~~~~~~~~~~~///!~~W/!~)",
"WW/'YTW!WWWWWWWWWWWWWWWWWWWWWWWWWWWWWWWWWWWWWWWWWTYPPYTTT!WP'/TT",
"'/WDq43>44444444444444444444444444444444444444443>=%#%=;=449G!~)",
"~~WD7effiiiiiiiiiiiiiiiiiiiiiiiiiiiiiiiiiiiiiiiisiyrrryusjw3G~!!",
"/)/H9j~W))))))))))))))))))))))))))))))))))))))))''))))))W)f3K)/~",
"W~~H7b'!~~~~~~~~~~~~~~~~~~~~~~~~~~~~~~~~~~~~~~~~YW!~/~!WW'c1H/~W",
"~!/Z3b)~~~~~~~~~~~~~~~~~~~~~~~~~~~~~~~~~~~~~~~~~~~~~~~~~//c=D//W",
"~!/Z4b)!~~~~~~~~~~~~~~~~~~~~~~~~~~~~~~~~~~~~~~~~~~~~~~~~~)m>H))!",
"~!/Z4b)!~~~~~~~~~~~~~~~~~~~~~~~~~~~~~~~~~~~~~~~~~~~~~~~~!)C3H//~",
"~!)D4b)!~~~~~~~~~~~~~~~~~~~~~~~~~~~~~~~~~~~~~~~~~~~~~~~~T/C3H~~!",
"~!)D7b)!~~~~~~~~~~~~~~~~~~~~~~~~~~~~~~~~~~~~~~~~~~~~~~~~T/C1G~~!",
"~!)G7m)!~~~~~~~~~~~~~~~~~~~~~~~~~~~~~~~~~~~~~~~~~~~~~~~~!)N>G//~",
"~!)G9m)!~~~~~~~~~~~~~~~~~~~~~~~~~~~~~~~~~~~~~~~~~~~~~~~~//b=D//~",
"~!)G9m)!~~~~~~~~~~~~~~~~~~~~~~~~~~~~~~~~~~~~~~~~~~~~~~~~/~x%C~~!",
"~!)D7b)!~~~~~~~~~~~~~~~~~~~~~~~~~~~~~~~~~~~~~~~~~~~~~~~~W'c#K'!!",
"~!)D7b)!~~~~~~~~~~~~~~~~~~~~~~~~~~~~~~~~~~~~~~~~~~~~~~~~W'xOH)W!",
"~!)D7b)!~~~~~~~~~~~~~~~~~~~~~~~~~~~~~~~~~~~~~~~~~~~~~~~~W'xoG)!!",
"~!)D7b)!~~~~~~~~~~~~~~~~~~~~~~~~~~~~~~~~~~~~~~~~~~~~~~~~~'xoG)~/",
"~!)D7b)!~~~~~~~~~~~~~~~~~~~~~~~~~~~~~~~~~~~~~~~~~~~~~~~~~'xXD)!/",
"~!)D7b)!~~~~~~~~~~~~~~~~~~~~~~~~~~~~~~~~~~~~~~~~~~~~~~~~!'l Z/W~",
"~!)D7b)!~~~~~~~~~~~~~~~~~~~~~~~~~~~~~~~~~~~~~~~~~~~~~~~~W'lXD/W!",
"~!)D7b)!~~~~~~~~~~~~~~~~~~~~~~~~~~~~~~~~~~~~~~~~~~~~~~~~!'xoG)!~",
"~W/D4b)!~~~~~~~~~~~~~~~~~~~~~~~~~~~~~~~~~~~~~~~~~~~~~~~~!'b=H/~~",
"~W/D4b)!~~~~~~~~~~~~~~~~~~~~~~~~~~~~~~~~~~~~~~~~~~~~~~~~!)b&G~!!",
"~W/D4b)!~~~~~~~~~~~~~~~~~~~~~~~~~~~~~~~~~~~~~~~~~~~~~~~~!)b&G~!!",
"~W/D4b)!~~~~~~~~~~~~~~~~~~~~~~~~~~~~~~~~~~~~~~~~~~~~~~~~!'b=H/~~",
"~W/D4b)!~~~~~~~~~~~~~~~~~~~~~~~~~~~~~~~~~~~~~~~~~~~~~~~~!'b=H/~~",
"~W/D4b)!~~~~~~~~~~~~~~~~~~~~~~~~~~~~~~~~~~~~~~~~~~~~~~~~!)b&G~!!",
"~W/D4b)!~~~~~~~~~~~~~~~~~~~~~~~~~~~~~~~~~~~~~~~~~~~~~~~~!)b&G~!!",
"~W/D4b)!~~~~~~~~~~~~~~~~~~~~~~~~~~~~~~~~~~~~~~~~~~~~~~~~!'b=H/~~",
"~!)D7b)!~~~~~~~~~~~~~~~~~~~~~~~~~~~~~~~~~~~~~~~~~~~~~~~~Y)N1T'!W",
"~!)D7b)!~~~~~~~~~~~~~~~~~~~~~~~~~~~~~~~~~~~~~~~~~~~~~~~~~'b&G///",
"~!)D7b)!~~~~~~~~~~~~~~~~~~~~~~~~~~~~~~~~~~~~~~~~~~~~~~~~~)xOC!~/",
"~!)D7b)!~~~~~~~~~~~~~~~~~~~~~~~~~~~~~~~~~~~~~~~~~~~~~~~~W)c&G/!~",
"~!)D7b)!~~~~~~~~~~~~~~~~~~~~~~~~~~~~~~~~~~~~~~~~~~~~~~~~!'N;P'//",
"~!)D7b)!~~~~~~~~~~~~~~~~~~~~~~~~~~~~~~~~~~~~~~~~~~~~~~~~~)c%G/~/",
"~!)D7b)!~~~~~~~~~~~~~~~~~~~~~~~~~~~~~~~~~~~~~~~~~~~~~~~~!/xOC!!~",
"~!)D7b)!~~~~~~~~~~~~~~~~~~~~~~~~~~~~~~~~~~~~~~~~~~~~~~~~!)b&H/~~",
"!!)G7b)!~~~~~~~~~~~~~~~~~~~~~~~~~~~~~~~~~~~~~~~~~~~~~~~~!)b4D)!~",
"!!)G7b)!~~~~~~~~~~~~~~~~~~~~~~~~~~~~~~~~~~~~~~~~~~~~~~~~!)b4D)!~",
"!!)D4b)~~~~~~~~~~~~~~~~~~~~~~~~~~~~~~~~~~~~~~~~~~~~~~~~~!)b4D)!~",
"~!)D4c)~~~~~~~~~~~~~~~~~~~~~~~~~~~~~~~~~~~~~~~~~~~~~~~~~!)b4D)!~",
"~!)Z3c)~~~~~~~~~~~~~~~~~~~~~~~~~~~~~~~~~~~~~~~~~~~~~~~~~!)b4D)!~",
"~W/Z3c)~~~~~~~~~~~~~~~~~~~~~~~~~~~~~~~~~~~~~~~~~~~~~~~~~!)b4D)!~",
"~W/Z3c)~~~~~~~~~~~~~~~~~~~~~~~~~~~~~~~~~~~~~~~~~~~~~~~~~!)b4D)!~",
"~W/Z1c)~~~~~~~~~~~~~~~~~~~~~~~~~~~~~~~~~~~~~~~~~~~~~~~~~!)b4D)!~",
"W!'D4b)W~~~~~~~~~~~~~~~~~~~~~~~~~~~~~~~~~~~~~~~~~~~~~~~~~)b4D)!~",
"!!)Z3b)!~~~~~~~~~~~~~~~~~~~~~~~~~~~~~~~~~~~~~~~~~~~~~~~~~)b4D)!~",
"!!)Z3b'!~~~~~~~~~~~~~~~~~~~~~~~~~~~~~~~~~~~~~~~~~~~~~~~~~)b4D)!~",
"~!)C1b'~~~~~~~~~~~~~~~~~~~~~~~~~~~~~~~~~~~~~~~~~~~~~~~~~~)b4D)!~",
"~!)C1b'~~~~~~~~~~~~~~~~~~~~~~~~~~~~~~~~~~~~~~~~~~~~~~~~~~)b4D)!~",
"!!)Z3b'!~~~~~~~~~~~~~~~~~~~~~~~~~~~~~~~~~~~~~~~~~~~~~~~~~)b4D)!~",
"!!)Z3b)!~~~~~~~~~~~~~~~~~~~~~~~~~~~~~~~~~~~~~~~~~~~~~~~~~)b4D)!~",
"W!'D4b)W~~~~~~~~~~~~~~~~~~~~~~~~~~~~~~~~~~~~~~~~~~~~~~~~~)b4D)!~",
"WW!G3m'T!~~~~~~~!!!!!!!!~~~~~~~~~~~~~~~~~~~~~~~~~~~~~~~~W'm4H~!!",
")))H4l'!~~~~~~~~////////~~~~~~~~~~~~~~~~~~~~~~~~~~~~~~~~W'j4H/))",
"WW~K0pPPHHHHHGGGHHHHHHHHKKKKKKKKKKKKKKKKKKKKKKKKKKKKKKKKPPpqK~WW",
")~WC;&;#====&&&&&&&&&&&&>>>>>>>>>>>>>>>>>>>>>>>>>>>>>>>>%>=>Z!/'",
"WW/)cxcllllljjjfjjjjjjjjlllllllllllllllllllllllllllllllllcxc)/WW",
"~~/'!~~~''''))))''''''''))))))))))))))))))))))))))))))))//~!')~~",
"~~!W~~~~!!!!!!!!!!!!!!!!!!!!!!!!!!!!!!!!!!!!!!!!!!!!!!!!)///!/)/",
"!)/W/~WW~~~~~~~~~~~~~~~~!!!!!!!!!!!!!!!!!!!!!!!!!!!!!!!!WW~/W/)!"
};
