/* XPM */
static char *_0659012af40412eeacd838591f62092HrXpCVZ2KnSvSmAH[] = {
/* columns rows colors chars-per-pixel */
"20 20 123 2 ",
"   c #53252B",
".  c #59272C",
"X  c #59282D",
"o  c #472937",
"O  c #5B2435",
"+  c #522934",
"@  c #5A2831",
"#  c #5D2539",
"$  c #552D3C",
"%  c #5D2D3B",
"&  c #5A333F",
"*  c #6C232C",
"=  c #632A2E",
"-  c #6B2D2C",
";  c #632634",
":  c #692534",
">  c #652A34",
",  c #6B2D34",
"<  c #632738",
"1  c #642B3B",
"2  c #6B2E39",
"3  c #732D34",
"4  c #7B2D34",
"5  c #752D39",
"6  c #7A2E39",
"7  c #6D3134",
"8  c #6D313A",
"9  c #723135",
"0  c #743336",
"q  c #753336",
"w  c #743337",
"e  c #733436",
"r  c #733437",
"t  c #753437",
"y  c #753537",
"u  c #773537",
"i  c #743433",
"p  c #7B3036",
"a  c #7A3635",
"s  c #7C3936",
"d  c #713338",
"f  c #703239",
"g  c #713339",
"h  c #723338",
"j  c #70313B",
"k  c #753139",
"l  c #763139",
"z  c #743338",
"x  c #743339",
"c  c #763239",
"v  c #75313A",
"b  c #77313A",
"n  c #72353A",
"m  c #743438",
"M  c #753438",
"N  c #763538",
"B  c #763638",
"V  c #763639",
"C  c #76373A",
"Z  c #77373A",
"A  c #743638",
"S  c #793139",
"D  c #793239",
"F  c #7A303B",
"G  c #7B323A",
"H  c #7F3138",
"J  c #7C3939",
"K  c #3F2F47",
"L  c #402E43",
"P  c #532C40",
"I  c #552F44",
"U  c #582F41",
"Y  c #4F3246",
"T  c #4F3349",
"R  c #4C3649",
"E  c #533347",
"W  c #553247",
"Q  c #543347",
"!  c #553342",
"~  c #5D3042",
"^  c #5B3546",
"/  c #5A3543",
"(  c #5D3845",
")  c #573449",
"_  c #54364B",
"`  c #5A364B",
"'  c #58374D",
"]  c #593748",
"[  c #54394A",
"{  c #5F394A",
"}  c #5A3A4C",
"|  c #4F3C55",
" . c #4E3C57",
".. c #4C3C58",
"X. c #4C3C5A",
"o. c #4D3C5B",
"O. c #4D3D5C",
"+. c #533950",
"@. c #543B53",
"#. c #563C53",
"$. c #503C56",
"%. c #533C56",
"&. c #523C57",
"*. c #543B51",
"=. c #5A3952",
"-. c #5F3951",
";. c #5C3B50",
":. c #5A3C51",
">. c #623342",
",. c #653143",
"<. c #6C3544",
"1. c #6F3644",
"2. c #633A4B",
"3. c #653A48",
"4. c #663A49",
"5. c #60394D",
"6. c #613B4C",
"7. c #653A4F",
"8. c #6A3A4C",
"9. c #723641",
"0. c #703B49",
"q. c #5F4056",
"w. c #823C38",
/* pixels */
"* 3 3 5 : ; 1 < # # O O O < ; ; 5 6 6 3 ",
"* 4 6 5 : ; 1 < 1 # O O < 1 ; : 5 6 4 3 ",
"* 4 6 5 : ; > < 1 O O < < 2 : : 5 6 4 4 ",
"* H F 5 : : 1 1 1 O O % % ,.1 1 1.1.9.8 ",
"1 0.8.7.-.=.@.$.| ....O...| $.#.-.5.4.>.",
"~ 4.2.5.` ) Q E Q I P U $ % % < 2 3 6 3 ",
": b b 3 : > , , 2 > ; , > 2 > , b 6 p 3 ",
": F F 3 , > 2 , , , ; , , , , , g 2 b , ",
"> F b 3 , > 8 , , , > , 2 , , > / q.} > ",
"; b 9 , , , g 7 , > > , 8 , , > Y $.) < ",
"@ b 3 9 : , g g 9 : , , 9 9 : < T +.' % ",
"@ g , 9 , , b 0 M 9 , 9 9 M , : % $ $ @ ",
"@ 9 3 0 9 , 0 M M 9 7 9 9 M 7 , 9 , 7 X ",
"+ 8 7 n 7 , 9 M M e 7 u 9 u e 7 0 9 u = ",
"K +.@.@.@.#.:.} :.:.} } ] } } ] ( / ^ $ ",
"o & / / / ! / / ] ] [ } [ [ [ R R R R L ",
"X i 0 J u i a a J a u J a u u 9 M 7 e > ",
". i a J u i a a s s 0 w.J s s a J a a 7 ",
". 0 a s i i a a a i i w.w.s s i J a a 7 ",
"  7 i 7 - = , - - - - s a i 7 = , 7 7 > "
};
