/* XPM */
static char *_653e39094734f91f28ca32b004d6383G2Cjvjqh9jmV3fpt[] = {
/* columns rows colors chars-per-pixel */
"20 20 133 2 ",
"   c #C0C0CD",
".  c #C5CBD3",
"X  c #CCCCD6",
"o  c #CDCFD8",
"O  c #CED2DA",
"+  c #D1D0D7",
"@  c #D3D4DB",
"#  c #D9D5DB",
"$  c #D4D8DE",
"%  c #DDDADE",
"&  c #E0DBDE",
"*  c #D7D7E1",
"=  c #D6DCE1",
"-  c #DDDDE3",
";  c #E3DEE3",
":  c #DDE0E5",
">  c #DEE2E8",
",  c #E3E1E5",
"<  c #EAE2E5",
"1  c #E5E5EA",
"2  c #E6E4EA",
"3  c #E7E5EB",
"4  c #E6E6EA",
"5  c #E7E6EA",
"6  c #E7E6EB",
"7  c #E7E7EB",
"8  c #E5E5E8",
"9  c #E3E7ED",
"0  c #E7E7EC",
"q  c #E7E7EE",
"w  c #E4E4E9",
"e  c #E8E6E9",
"r  c #E9E6E9",
"t  c #E8E4EB",
"y  c #E8E7EA",
"u  c #E8E6EB",
"i  c #EBE6EA",
"p  c #EAE7EA",
"a  c #EBE7EA",
"s  c #EBE6EB",
"d  c #EAE7EB",
"f  c #EEE5E9",
"g  c #EEE6E9",
"h  c #EFE6E9",
"j  c #ECE5EB",
"k  c #ECE6EA",
"l  c #E9E4EC",
"z  c #E9E6EC",
"x  c #E9E7EC",
"c  c #EAE7EC",
"v  c #ECE7EC",
"b  c #ECE7ED",
"n  c #EBE6EA",
"m  c #E0E9EF",
"M  c #E6E9ED",
"N  c #E6E9EE",
"B  c #E6EAEF",
"V  c #E8E8EC",
"C  c #E8E8ED",
"Z  c #E9E9ED",
"A  c #EBE9EC",
"S  c #EBE9ED",
"D  c #E8E8EE",
"F  c #E8E9EE",
"G  c #EBE9EE",
"H  c #EBE9EF",
"J  c #E9EAEF",
"K  c #E9EBEF",
"L  c #EAEAEE",
"P  c #EBEAEE",
"I  c #EAEBEF",
"U  c #ECE8EC",
"Y  c #ECE8ED",
"T  c #ECE9ED",
"R  c #EEEAED",
"E  c #EEE9EE",
"W  c #ECEBEF",
"Q  c #EEEBEF",
"!  c #ECE9EE",
"~  c #F0E6E9",
"^  c #F1E7EA",
"/  c #F1E7EA",
"(  c #F2E8E9",
")  c #F0E8EA",
"_  c #F1E8EA",
"`  c #F0E8EB",
"'  c #F2E8EB",
"]  c #F0E9EC",
"[  c #F2E9EC",
"{  c #F0EBEF",
"}  c #F3EAEF",
"|  c #F2EBEF",
" . c #F5EAED",
".. c #F2EAED",
"X. c #E6EBF0",
"o. c #E6ECF2",
"O. c #E7ECF2",
"+. c #E5EBF1",
"@. c #EAEAF1",
"#. c #ECEBF0",
"$. c #EFEAF0",
"%. c #ECECF0",
"&. c #EDECF0",
"*. c #EDEDF1",
"=. c #EFECF1",
"-. c #EEEEF3",
";. c #EEEDF3",
":. c #F1EBF0",
">. c #F2EBF1",
",. c #F1EDF1",
"<. c #F2EEF2",
"1. c #F3EEF2",
"2. c #F6EDF0",
"3. c #F7EDF0",
"4. c #F5EEF1",
"5. c #F4EFF3",
"6. c #F6EFF3",
"7. c #F5EFF4",
"8. c #F2EDF2",
"9. c #F8EDF0",
"0. c #EEF0F6",
"q. c #F2F1F6",
"w. c #F7F1F5",
"e. c #F7F2F6",
"r. c #F6F2F7",
"t. c #F7F1F5",
"y. c #F9F0F4",
"u. c #F9F1F5",
"i. c #F9F1F6",
"p. c #FAF3F7",
"a. c #F3F3F8",
"s. c #F5F4F9",
"d. c #FCF4F8",
/* pixels */
"m o.o.9 *.8 , C C w @ W e.8 , w 8 X.B w ",
"B C , w ,.< % w - : . $ C , % , , , % % ",
"#.k # < 2.9.< % % % O = B , ; r r # & < ",
"{ 2.; ; {  .< % < < - x *.r { ,.b ; & ` ",
"` 2.~ ; k ~ < < k { ; k 2.2.d.e.>.< # ; ",
"k ` ` ; < < < k u.u.# { u.>.x w b ` +   ",
", < ; , , ; , - r #., r W - w x W < - X ",
"- % % C w * 0 C - - : : - - , 8 - $ % X ",
", , , 8 $ w 8 , 0 @.x C 7.r , 8 - o . = ",
"8 C C , 8 8 8 C *.C 0 C ,.W , , , @ . : ",
"- , W ,.,.{ W = = C r ; < , O = 8 # $ @ ",
", , C e.,.*.C w : x W < % , ; = w X - O ",
"- C W w > *.w w W w r < # , < % # . . @ ",
"; r w - , 8 , , 8 8 8 8 , w 8 8 , 8 w > ",
"r W r - , , , , 8 8 8 % % - C C * a.q.s.",
",.w - - ; 8 r k W C k # & r 8 8 8 0.-.-.",
"5.*.*.r r W W e.0 ; 2.< % 8 - , 8 O.O.0.",
"; C *.,.u.,.x 7.*.,.{ ~ @ @ % - , +.X.X.",
",.,.W e.>.#.C - x ,.k ~ # + < < C C 8 , ",
",.W < ; - ; #.,.,.W < < ; ; k { ,.k % # "
};
