/* XPM */
static char *_2fac473626b4859bf222924e5f513761s7V0pgcM2ms4J6p[] = {
/* columns rows colors chars-per-pixel */
"20 20 224 2 ",
"   c #D6D3B0",
".  c #D5D2B0",
"X  c #D5D2AF",
"o  c #BEBB9B",
"O  c #BFBC9B",
"+  c #C5C2A1",
"@  c #D6D3B0",
"#  c #BCB99C",
"$  c None",
"%  c #C8C5A5",
"&  c #D5D2AF",
"*  c #D7D4B0",
"=  c #C2BFA1",
"-  c #989782",
";  c #9A9884",
":  c #CAC7A7",
">  c #D6D3B0",
",  c #D9D6B2",
"<  c #D8D5B1",
"1  c #D8D5B1",
"2  c #D9D6B2",
"3  c #D5D2B0",
"4  c #D6D3B0",
"5  c #D5D2B0",
"6  c #D5D2B0",
"7  c #D6D3B1",
"8  c #D6D3B1",
"9  c #D6D3B0",
"0  c #D5D2AF",
"q  c #D5D2AF",
"w  c #D5D2AF",
"e  c #D6D3B0",
"r  c #D6D3B0",
"t  c #D5D2AF",
"y  c #D1CEAC",
"u  c #BEBC9F",
"i  c #C0BD9F",
"p  c #D3D0AE",
"a  c #D5D2AF",
"s  c #D5D2AF",
"d  c #D7D4B0",
"f  c #D7D4B1",
"g  c #D7D4B1",
"h  c #D8D5B0",
"j  c #BEBB9B",
"k  c #C0BD9D",
"l  c #D2CFAC",
"z  c #D5D2B0",
"x  c #D0CDAB",
"c  c #BFBC9C",
"v  c #D2CFAD",
"b  c #D1CEAB",
"n  c #D4D1AF",
"m  c #CFCCAA",
"M  c #C2BF9F",
"N  c #C5C2A1",
"B  c #D5D2AF",
"V  c #C8C5A4",
"C  c #C3C09F",
"Z  c #C2BF9E",
"A  c #BFBC9B",
"S  c #BDBA9A",
"D  c #B8B597",
"F  c #B7B496",
"G  c #BAB798",
"H  c #D3D0AD",
"J  c #D9D5B2",
"K  c #D6D3B0",
"L  c #D8D5B2",
"P  c #C6C3A2",
"I  c #B9B697",
"U  c #AEAB8F",
"Y  c #4B4A47",
"T  c #3B3A3C",
"R  c #3B3B3C",
"E  c gray26",
"W  c #868474",
"Q  c #9B9884",
"!  c #C8C5A5",
"~  c #C2BFA1",
"^  c #989682",
"/  c #7C7A6C",
"(  c #3E3E3E",
")  c #3A3A3B",
"_  c #54534E",
"`  c #B5B395",
"'  c #A8A58B",
"]  c #23232B",
"[  c #0F0E1B",
"{  c #140F1C",
"}  c #15101C",
"|  c #14131E",
" . c #1F1F28",
".. c #ADAB91",
"X. c #D7D4B1",
"o. c #D8D5B1",
"O. c #9B9984",
"+. c #181822",
"@. c #14131F",
"#. c #150F1C",
"$. c #0E0D1B",
"%. c #303034",
"&. c #B2AF92",
"*. c #AEAB90",
"=. c #25262D",
"-. c #22101B",
";. c #A40C10",
":. c #B00B0F",
">. c #2E101B",
",. c #1B1D26",
"<. c #ADAA91",
"1. c #9A9883",
"2. c #121521",
"3. c #3E101A",
"4. c #B90B0E",
"5. c #960C12",
"6. c #180F1C",
"7. c #333337",
"8. c #B9B698",
"9. c #282A30",
"0. c #2B121C",
"q. c #E10C0D",
"w. c #F10B0B",
"e. c #3D121B",
"r. c #1C1F28",
"t. c #ABA990",
"y. c #999783",
"u. c #141822",
"i. c #52111A",
"p. c #FD0A0A",
"a. c #CC0C0F",
"s. c #1D121D",
"d. c #9E947F",
"f. c #D8917A",
"g. c #DD917A",
"h. c #A3947F",
"j. c #91907D",
"k. c #5F5E57",
"l. c #504F4C",
"z. c #66645C",
"x. c #94937F",
"c. c #AA937E",
"v. c #E19179",
"b. c #D1927B",
"n. c #999480",
"m. c #D5D5B2",
"M. c #D8D6B2",
"N. c #CDCAA9",
"B. c #39383B",
"V. c #0C0D1A",
"C. c #0C0C19",
"Z. c #4C4B49",
"A. c #D7D6B2",
"S. c #D4D5B2",
"D. c #C7C4A5",
"F. c #A3A18A",
"G. c #D1CEAC",
"H. c #9C9A85",
"J. c #8D8B79",
"K. c #D4D1AE",
"L. c #A09D87",
"P. c #CDCAAA",
"I. c #BEBB9F",
"U. c #858474",
"Y. c #D9D6B2",
"T. c #807E70",
"R. c #C8C6A7",
"E. c #C0BEA0",
"W. c #95937F",
"Q. c #A6A48C",
"!. c #68675E",
"~. c #B8B599",
"^. c #7B7A6C",
"/. c #878675",
"(. c #B1AE94",
"). c #66655C",
"_. c #575652",
"`. c #CBC8A8",
"'. c #29282F",
"]. c #67665D",
"[. c #191924",
"{. c #A4A28B",
"}. c #161621",
"|. c #39393B",
" X c #CCC9A9",
".X c #C1BFA1",
"XX c #2C2C31",
"oX c #38373A",
"OX c #464544",
"+X c #151520",
"@X c #54534F",
"#X c #25242C",
"$X c #2D2D32",
"%X c #4F4E4B",
"&X c #14141F",
"*X c #4E4D4B",
"=X c #3C3C3D",
"-X c #2C2C32",
";X c #0C0C1A",
":X c #353538",
">X c #555450",
",X c #12121E",
"<X c #595853",
"1X c #2F2F34",
"2X c #0B0B19",
"3X c #3D3C3E",
"4X c #C4C1A3",
"5X c #414041",
"6X c #24232B",
"7X c #737266",
"8X c #25252C",
"9X c #68665E",
"0X c #9E9C86",
"qX c #2F2E33",
"wX c #A3A18B",
"eX c #605F58",
"rX c #4F4F4C",
"tX c #BCB99D",
"yX c #CCC9A8",
"uX c #C5C2A4",
"iX c #BDBB9E",
"pX c #CECBAA",
"aX c #D6D3B1",
"sX c white",
/* pixels */
"j j j k l z z z z z z z z z z x c j j o ",
"j j j k v z z z z z z z z z z x c j j o ",
"j j j k b n z z z z z z z n n m c j j o ",
"j j j c M N v z z z z z B V C Z A j j o ",
"j S D F F G H J K z z K L P F F F I j o ",
"c U Y T R E W Q ! K K ~ ^ / ( R ) _ ` O ",
"c ' ] [ { } |  ...X.o.O.+.@.#.{ $.%.&.o ",
"P *.=.-.;.:.>.,.<.o.L 1.2.3.4.5.6.7.8.+ ",
"@ # 9.0.q.w.e.r.t.B K y.u.i.p.a.s.$ % & ",
"* = - d.f.g.h.j.k.l.l.z.x.c.v.b.n.; : > ",
"  , < o.m.m.M.N.B.V.C.Z.B A.S.m.o.1 2   ",
". 3 4 D.F.B B G.H.J.J.F.K.B H L.P.5 6 . ",
". 3 7 I.U.K B K o.Y.Y.o.K B l T.R.8 6 . ",
". 3 7 E.l.W.Q.!.~.^./.(.).(.W _.`.9 6 . ",
"X 0 7 ~ '.].W [.{.T l.^ }.^ l.|. X9 q X ",
"X 0 7 .XXXoXOX+X@X#X$X%X&X*X$X=X X9 q X ",
"X 0 7 .X-XC.T l.;X:X>X,X<X1X2X3X X9 q X ",
"X w e 4X5X6X7XW.8X9X0XqXwXeX] rXP.r q X ",
"X q t y u tXD.yXtXuXN.iXpX4XtXi p a s X ",
"X X   d f X.aXaXX.aXK X.K aXX.g h . X X "
};
